NotoSansBengali-Light.ufo
<glyph name="quotesingle.beng" format="2">
  <advance width="254"/>
  <unicode hex="0027"/>
  <outline>
    <contour>
      <point x="124" y="471" type="line"/>
      <point x="147" y="471" type="line"/>
      <point x="150" y="729" type="line"/>
      <point x="121" y="729" type="line"/>
    </contour>
  </outline>
</glyph>
<glyph name="parenleft.beng" format="2">
  <advance width="375"/>
  <unicode hex="0028"/>
  <outline>
    <contour>
      <point x="264" y="-135" type="curve"/>
      <point x="294" y="-135" type="line"/>
      <point x="197" y="-9"/>
      <point x="143" y="149"/>
      <point x="143" y="325" type="curve" smooth="yes"/>
      <point x="143" y="504"/>
      <point x="197" y="666"/>
      <point x="294" y="792" type="curve"/>
      <point x="264" y="792" type="line"/>
      <point x="175" y="678"/>
      <point x="116" y="512"/>
      <point x="116" y="324" type="curve" smooth="yes"/>
      <point x="116" y="138"/>
      <point x="175" y="-16"/>
    </contour>
  </outline>
</glyph>
<glyph name="parenright.beng" format="2">
  <advance width="375"/>
  <unicode hex="0029"/>
  <outline>
    <contour>
      <point x="81" y="-135" type="curve"/>
      <point x="111" y="-135" type="line"/>
      <point x="200" y="-21"/>
      <point x="259" y="145"/>
      <point x="259" y="333" type="curve" smooth="yes"/>
      <point x="259" y="519"/>
      <point x="200" y="673"/>
      <point x="111" y="792" type="curve"/>
      <point x="81" y="792" type="line"/>
      <point x="178" y="666"/>
      <point x="232" y="508"/>
      <point x="232" y="332" type="curve" smooth="yes"/>
      <point x="232" y="153"/>
      <point x="178" y="-9"/>
    </contour>
  </outline>
</glyph>
<glyph name="plus.beng" format="2">
  <advance width="592"/>
  <unicode hex="002B"/>
  <outline>
    <contour>
      <point x="283" y="309" type="line"/>
      <point x="283" y="94" type="line"/>
      <point x="309" y="94" type="line"/>
      <point x="309" y="309" type="line"/>
      <point x="522" y="309" type="line"/>
      <point x="522" y="335" type="line"/>
      <point x="309" y="335" type="line"/>
      <point x="309" y="546" type="line"/>
      <point x="283" y="546" type="line"/>
      <point x="283" y="335" type="line"/>
      <point x="70" y="335" type="line"/>
      <point x="70" y="309" type="line"/>
    </contour>
  </outline>
</glyph>
<glyph name="comma.beng" format="2">
  <advance width="205"/>
  <unicode hex="002C"/>
  <outline>
    <contour>
      <point x="128" y="116" type="line"/>
      <point x="100" y="116" type="line"/>
      <point x="89" y="40"/>
      <point x="76" y="-22"/>
      <point x="47" y="-119" type="curve"/>
      <point x="69" y="-119" type="line"/>
      <point x="97" y="-50"/>
      <point x="116" y="30"/>
      <point x="131" y="104" type="curve"/>
    </contour>
  </outline>
</glyph>
<glyph name="slash.beng" format="2">
  <advance width="406"/>
  <unicode hex="002F"/>
  <outline>
    <contour>
      <point x="321" y="792" type="line"/>
      <point x="58" y="-135" type="line"/>
      <point x="85" y="-135" type="line"/>
      <point x="348" y="792" type="line"/>
    </contour>
  </outline>
</glyph>
<glyph name="seven.beng" format="2">
  <advance width="551"/>
  <unicode hex="0037"/>
  <outline>
    <contour>
      <point x="461" y="688" type="line"/>
      <point x="168" y="0" type="line"/>
      <point x="198" y="0" type="line"/>
      <point x="491" y="692" type="line"/>
      <point x="491" y="714" type="line"/>
      <point x="56" y="714" type="line"/>
      <point x="56" y="688" type="line"/>
    </contour>
  </outline>
</glyph>
<glyph name="less.beng" format="2">
  <advance width="592"/>
  <unicode hex="003C"/>
  <outline>
    <contour>
      <point x="69" y="307" type="line"/>
      <point x="521" y="88" type="line"/>
      <point x="521" y="118" type="line"/>
      <point x="100" y="320" type="line"/>
      <point x="521" y="523" type="line"/>
      <point x="521" y="553" type="line"/>
      <point x="69" y="333" type="line"/>
    </contour>
  </outline>
</glyph>
<glyph name="equal.beng" format="2">
  <advance width="592"/>
  <unicode hex="003D"/>
  <outline>
    <contour>
      <point x="70" y="435" type="line"/>
      <point x="70" y="409" type="line"/>
      <point x="522" y="409" type="line"/>
      <point x="522" y="435" type="line"/>
    </contour>
    <contour>
      <point x="70" y="231" type="line"/>
      <point x="70" y="206" type="line"/>
      <point x="522" y="206" type="line"/>
      <point x="522" y="231" type="line"/>
    </contour>
  </outline>
</glyph>
<glyph name="greater.beng" format="2">
  <advance width="592"/>
  <unicode hex="003E"/>
  <outline>
    <contour>
      <point x="69" y="118" type="line"/>
      <point x="69" y="88" type="line"/>
      <point x="521" y="308" type="line"/>
      <point x="521" y="334" type="line"/>
      <point x="69" y="553" type="line"/>
      <point x="69" y="523" type="line"/>
      <point x="490" y="321" type="line"/>
    </contour>
  </outline>
</glyph>
<glyph name="bracketleft.beng" format="2">
  <advance width="375"/>
  <unicode hex="005B"/>
  <outline>
    <contour>
      <point x="145" y="792" type="line"/>
      <point x="145" y="-135" type="line"/>
      <point x="294" y="-135" type="line"/>
      <point x="294" y="-109" type="line"/>
      <point x="171" y="-109" type="line"/>
      <point x="171" y="766" type="line"/>
      <point x="294" y="766" type="line"/>
      <point x="294" y="792" type="line"/>
    </contour>
  </outline>
</glyph>
<glyph name="backslash.beng" format="2">
  <advance width="404"/>
  <unicode hex="005C"/>
  <outline>
    <contour>
      <point x="58" y="792" type="line"/>
      <point x="319" y="-135" type="line"/>
      <point x="346" y="-135" type="line"/>
      <point x="85" y="792" type="line"/>
    </contour>
  </outline>
</glyph>
<glyph name="bracketright.beng" format="2">
  <advance width="375"/>
  <unicode hex="005D"/>
  <outline>
    <contour>
      <point x="81" y="-109" type="line"/>
      <point x="81" y="-135" type="line"/>
      <point x="230" y="-135" type="line"/>
      <point x="230" y="792" type="line"/>
      <point x="81" y="792" type="line"/>
      <point x="81" y="766" type="line"/>
      <point x="204" y="766" type="line"/>
      <point x="204" y="-109" type="line"/>
    </contour>
  </outline>
</glyph>
<glyph name="asciicircum.beng" format="2">
  <advance width="592"/>
  <unicode hex="005E"/>
  <outline>
    <contour>
      <point x="283" y="720" type="line"/>
      <point x="67" y="284" type="line"/>
      <point x="97" y="284" type="line"/>
      <point x="298" y="694" type="line"/>
      <point x="494" y="284" type="line"/>
      <point x="524" y="284" type="line"/>
      <point x="313" y="720" type="line"/>
    </contour>
  </outline>
</glyph>
<glyph name="underscore.beng" format="2">
  <advance width="411"/>
  <unicode hex="005F"/>
  <outline>
    <contour>
      <point x="-2" y="-90" type="line"/>
      <point x="-2" y="-116" type="line"/>
      <point x="413" y="-116" type="line"/>
      <point x="413" y="-90" type="line"/>
    </contour>
  </outline>
</glyph>
<glyph name="braceleft.beng" format="2">
  <advance width="436"/>
  <unicode hex="007B"/>
  <outline>
    <contour>
      <point x="81" y="339" type="curve"/>
      <point x="81" y="315" type="line"/>
      <point x="162" y="315"/>
      <point x="192" y="285"/>
      <point x="192" y="200" type="curve" smooth="yes"/>
      <point x="192" y="-3" type="line" smooth="yes"/>
      <point x="192" y="-101"/>
      <point x="238" y="-135"/>
      <point x="355" y="-135" type="curve"/>
      <point x="355" y="-110" type="line"/>
      <point x="249" y="-110"/>
      <point x="217" y="-84"/>
      <point x="217" y="3" type="curve" smooth="yes"/>
      <point x="217" y="204" type="line" smooth="yes"/>
      <point x="217" y="279"/>
      <point x="196" y="313"/>
      <point x="139" y="326" type="curve"/>
      <point x="139" y="328" type="line"/>
      <point x="197" y="339"/>
      <point x="217" y="385"/>
      <point x="217" y="453" type="curve" smooth="yes"/>
      <point x="217" y="651" type="line" smooth="yes"/>
      <point x="217" y="732"/>
      <point x="259" y="767"/>
      <point x="355" y="767" type="curve"/>
      <point x="355" y="792" type="line"/>
      <point x="247" y="792"/>
      <point x="192" y="744"/>
      <point x="192" y="657" type="curve" smooth="yes"/>
      <point x="192" y="457" type="line" smooth="yes"/>
      <point x="192" y="371"/>
      <point x="162" y="339"/>
    </contour>
  </outline>
</glyph>
<glyph name="bar.beng" format="2">
  <advance width="540"/>
  <unicode hex="007C"/>
  <outline>
    <contour>
      <point x="257" y="792" type="line"/>
      <point x="257" y="-135" type="line"/>
      <point x="283" y="-135" type="line"/>
      <point x="283" y="792" type="line"/>
    </contour>
  </outline>
</glyph>
<glyph name="braceright.beng" format="2">
  <advance width="436"/>
  <unicode hex="007D"/>
  <outline>
    <contour>
      <point x="355" y="317" type="curve"/>
      <point x="355" y="341" type="line"/>
      <point x="274" y="341"/>
      <point x="244" y="371"/>
      <point x="244" y="456" type="curve" smooth="yes"/>
      <point x="244" y="660" type="line" smooth="yes"/>
      <point x="244" y="758"/>
      <point x="198" y="792"/>
      <point x="81" y="792" type="curve"/>
      <point x="81" y="767" type="line"/>
      <point x="187" y="767"/>
      <point x="219" y="741"/>
      <point x="219" y="654" type="curve" smooth="yes"/>
      <point x="219" y="452" type="line" smooth="yes"/>
      <point x="219" y="377"/>
      <point x="240" y="343"/>
      <point x="297" y="330" type="curve"/>
      <point x="297" y="328" type="line"/>
      <point x="239" y="317"/>
      <point x="219" y="271"/>
      <point x="219" y="203" type="curve" smooth="yes"/>
      <point x="219" y="6" type="line" smooth="yes"/>
      <point x="219" y="-75"/>
      <point x="177" y="-110"/>
      <point x="81" y="-110" type="curve"/>
      <point x="81" y="-135" type="line"/>
      <point x="189" y="-135"/>
      <point x="244" y="-87"/>
      <point x="244" y="0" type="curve" smooth="yes"/>
      <point x="244" y="199" type="line" smooth="yes"/>
      <point x="244" y="285"/>
      <point x="274" y="317"/>
    </contour>
  </outline>
</glyph>
<glyph name="asciitilde.beng" format="2">
  <advance width="592"/>
  <unicode hex="007E"/>
  <outline>
    <contour>
      <point x="76" y="314" type="curve"/>
      <point x="76" y="283" type="line"/>
      <point x="112" y="323"/>
      <point x="151" y="338"/>
      <point x="188" y="338" type="curve" smooth="yes"/>
      <point x="233" y="338"/>
      <point x="258" y="325"/>
      <point x="293" y="307" type="curve" smooth="yes"/>
      <point x="331" y="287"/>
      <point x="360" y="274"/>
      <point x="406" y="274" type="curve" smooth="yes"/>
      <point x="453" y="274"/>
      <point x="492" y="296"/>
      <point x="516" y="323" type="curve"/>
      <point x="516" y="352" type="line"/>
      <point x="478" y="310"/>
      <point x="441" y="298"/>
      <point x="407" y="298" type="curve" smooth="yes"/>
      <point x="367" y="298"/>
      <point x="341" y="311"/>
      <point x="306" y="329" type="curve" smooth="yes"/>
      <point x="269" y="348"/>
      <point x="242" y="362"/>
      <point x="189" y="362" type="curve" smooth="yes"/>
      <point x="146" y="362"/>
      <point x="105" y="343"/>
    </contour>
  </outline>
</glyph>
<glyph name="multiply.beng" format="2">
  <advance width="592"/>
  <unicode hex="00D7"/>
  <outline>
    <contour>
      <point x="295" y="303" type="line"/>
      <point x="462" y="136" type="line"/>
      <point x="479" y="153" type="line"/>
      <point x="312" y="320" type="line"/>
      <point x="479" y="487" type="line"/>
      <point x="462" y="504" type="line"/>
      <point x="295" y="337" type="line"/>
      <point x="128" y="504" type="line"/>
      <point x="111" y="487" type="line"/>
      <point x="278" y="320" type="line"/>
      <point x="111" y="153" type="line"/>
      <point x="128" y="136" type="line"/>
    </contour>
  </outline>
</glyph>
<glyph name="divide.beng" format="2">
  <advance width="592"/>
  <unicode hex="00F7"/>
  <outline>
    <contour>
      <point x="70" y="335" type="line"/>
      <point x="70" y="309" type="line"/>
      <point x="522" y="309" type="line"/>
      <point x="522" y="335" type="line"/>
    </contour>
    <contour>
      <point x="295" y="113" type="curve" smooth="yes"/>
      <point x="319" y="113"/>
      <point x="322" y="127"/>
      <point x="322" y="144" type="curve" smooth="yes"/>
      <point x="322" y="160"/>
      <point x="319" y="175"/>
      <point x="295" y="175" type="curve" smooth="yes"/>
      <point x="275" y="175"/>
      <point x="270" y="160"/>
      <point x="270" y="144" type="curve" smooth="yes"/>
      <point x="270" y="127"/>
      <point x="275" y="113"/>
    </contour>
    <contour>
      <point x="295" y="469" type="curve" smooth="yes"/>
      <point x="319" y="469"/>
      <point x="322" y="483"/>
      <point x="322" y="500" type="curve" smooth="yes"/>
      <point x="322" y="516"/>
      <point x="319" y="531"/>
      <point x="295" y="531" type="curve" smooth="yes"/>
      <point x="275" y="531"/>
      <point x="270" y="516"/>
      <point x="270" y="500" type="curve" smooth="yes"/>
      <point x="270" y="483"/>
      <point x="275" y="469"/>
    </contour>
  </outline>
</glyph>
<glyph name="uni0951" format="2">
  <unicode hex="0951"/>
  <outline>
    <contour>
      <point x="-242" y="917" type="line"/>
      <point x="-268" y="917" type="line"/>
      <point x="-268" y="626" type="line"/>
      <point x="-242" y="626" type="line"/>
    </contour>
  </outline>
</glyph>
<glyph name="uni0952" format="2">
  <unicode hex="0952"/>
  <outline>
    <contour>
      <point x="-439" y="-165" type="line"/>
      <point x="-71" y="-165" type="line"/>
      <point x="-71" y="-139" type="line"/>
      <point x="-439" y="-139" type="line"/>
    </contour>
  </outline>
</glyph>
<glyph name="dandadeva" format="2">
  <advance width="335"/>
  <unicode hex="0964"/>
  <outline>
    <contour>
      <point x="200" y="0" type="line"/>
      <point x="226" y="0" type="line"/>
      <point x="226" y="622" type="line"/>
      <point x="200" y="622" type="line"/>
    </contour>
  </outline>
</glyph>
<glyph name="dbldandadeva" format="2">
  <advance width="527"/>
  <unicode hex="0965"/>
  <outline>
    <contour>
      <point x="392" y="0" type="line"/>
      <point x="418" y="0" type="line"/>
      <point x="418" y="622" type="line"/>
      <point x="392" y="622" type="line"/>
    </contour>
    <contour>
      <point x="200" y="0" type="line"/>
      <point x="226" y="0" type="line"/>
      <point x="226" y="622" type="line"/>
      <point x="200" y="622" type="line"/>
    </contour>
  </outline>
</glyph>
<glyph name="uni0980" format="2">
  <advance width="504"/>
  <unicode hex="0980"/>
  <outline>
    <contour>
      <point x="347" y="319" type="curve"/>
      <point x="340" y="344" type="line"/>
      <point x="306" y="333"/>
      <point x="273" y="326"/>
      <point x="231" y="326" type="curve" smooth="yes"/>
      <point x="144" y="326"/>
      <point x="84" y="352"/>
      <point x="84" y="447" type="curve" smooth="yes"/>
      <point x="84" y="548"/>
      <point x="175" y="634"/>
      <point x="264" y="634" type="curve" smooth="yes"/>
      <point x="298" y="634"/>
      <point x="323" y="625"/>
      <point x="340" y="608" type="curve" smooth="yes"/>
      <point x="363" y="585"/>
      <point x="372" y="552"/>
      <point x="372" y="487" type="curve" smooth="yes"/>
      <point x="372" y="75" type="line" smooth="yes"/>
      <point x="372" y="-11"/>
      <point x="391" y="-47"/>
      <point x="493" y="-49" type="curve"/>
      <point x="496" y="-23" type="line"/>
      <point x="412" y="-22"/>
      <point x="398" y="-5"/>
      <point x="398" y="78" type="curve" smooth="yes"/>
      <point x="398" y="498" type="line" smooth="yes"/>
      <point x="398" y="569"/>
      <point x="383" y="605"/>
      <point x="353" y="631" type="curve" smooth="yes"/>
      <point x="331" y="650"/>
      <point x="301" y="660"/>
      <point x="264" y="660" type="curve" smooth="yes"/>
      <point x="162" y="660"/>
      <point x="57" y="562"/>
      <point x="57" y="448" type="curve" smooth="yes"/>
      <point x="57" y="345"/>
      <point x="120" y="300"/>
      <point x="230" y="300" type="curve" smooth="yes"/>
      <point x="275" y="300"/>
      <point x="308" y="307"/>
    </contour>
  </outline>
</glyph>
<glyph name="candrabindubeng" format="2">
  <unicode hex="0981"/>
  <outline>
    <contour>
      <point x="31" y="858" type="curve"/>
      <point x="5" y="860" type="line"/>
      <point x="-3" y="772"/>
      <point x="-45" y="728"/>
      <point x="-118" y="728" type="curve" smooth="yes"/>
      <point x="-196" y="728"/>
      <point x="-233" y="775"/>
      <point x="-241" y="860" type="curve"/>
      <point x="-267" y="857" type="line"/>
      <point x="-257" y="768"/>
      <point x="-214" y="703"/>
      <point x="-118" y="703" type="curve" smooth="yes"/>
      <point x="-30" y="703"/>
      <point x="22" y="760"/>
    </contour>
    <contour>
      <point x="-92" y="831" type="curve" smooth="yes"/>
      <point x="-92" y="850"/>
      <point x="-99" y="864"/>
      <point x="-118" y="864" type="curve" smooth="yes"/>
      <point x="-137" y="864"/>
      <point x="-144" y="850"/>
      <point x="-144" y="831" type="curve" smooth="yes"/>
      <point x="-144" y="812"/>
      <point x="-137" y="798"/>
      <point x="-118" y="798" type="curve" smooth="yes"/>
      <point x="-99" y="798"/>
      <point x="-92" y="812"/>
    </contour>
  </outline>
</glyph>
<glyph name="anusvarabeng" format="2">
  <advance width="423"/>
  <unicode hex="0982"/>
  <outline>
    <contour>
      <point x="87" y="310" type="curve"/>
      <point x="72" y="288" type="line"/>
      <point x="209" y="201"/>
      <point x="288" y="113"/>
      <point x="384" y="-34" type="curve"/>
      <point x="407" y="-22" type="line"/>
      <point x="323" y="117"/>
      <point x="209" y="237"/>
    </contour>
    <contour>
      <point x="83" y="496" type="curve" smooth="yes"/>
      <point x="83" y="419"/>
      <point x="135" y="370"/>
      <point x="211" y="370" type="curve" smooth="yes"/>
      <point x="287" y="370"/>
      <point x="340" y="418"/>
      <point x="340" y="497" type="curve" smooth="yes"/>
      <point x="340" y="571"/>
      <point x="285" y="622"/>
      <point x="211" y="622" type="curve" smooth="yes"/>
      <point x="136" y="622"/>
      <point x="83" y="569"/>
    </contour>
    <contour>
      <point x="110" y="495" type="curve" smooth="yes"/>
      <point x="110" y="556"/>
      <point x="150" y="596"/>
      <point x="211" y="596" type="curve" smooth="yes"/>
      <point x="271" y="596"/>
      <point x="313" y="557"/>
      <point x="313" y="496" type="curve" smooth="yes"/>
      <point x="313" y="435"/>
      <point x="272" y="396"/>
      <point x="211" y="396" type="curve" smooth="yes"/>
      <point x="151" y="396"/>
      <point x="110" y="432"/>
    </contour>
  </outline>
</glyph>
<glyph name="visargabeng" format="2">
  <advance width="423"/>
  <unicode hex="0983"/>
  <outline>
    <contour>
      <point x="83" y="496" type="curve" smooth="yes"/>
      <point x="83" y="419"/>
      <point x="135" y="370"/>
      <point x="211" y="370" type="curve" smooth="yes"/>
      <point x="287" y="370"/>
      <point x="340" y="418"/>
      <point x="340" y="497" type="curve" smooth="yes"/>
      <point x="340" y="571"/>
      <point x="285" y="622"/>
      <point x="211" y="622" type="curve" smooth="yes"/>
      <point x="136" y="622"/>
      <point x="83" y="569"/>
    </contour>
    <contour>
      <point x="110" y="495" type="curve" smooth="yes"/>
      <point x="110" y="556"/>
      <point x="150" y="596"/>
      <point x="211" y="596" type="curve" smooth="yes"/>
      <point x="271" y="596"/>
      <point x="313" y="557"/>
      <point x="313" y="496" type="curve" smooth="yes"/>
      <point x="313" y="435"/>
      <point x="272" y="396"/>
      <point x="211" y="396" type="curve" smooth="yes"/>
      <point x="151" y="396"/>
      <point x="110" y="432"/>
    </contour>
    <contour>
      <point x="83" y="126" type="curve" smooth="yes"/>
      <point x="83" y="49"/>
      <point x="135" y="0"/>
      <point x="211" y="0" type="curve" smooth="yes"/>
      <point x="287" y="0"/>
      <point x="340" y="48"/>
      <point x="340" y="127" type="curve" smooth="yes"/>
      <point x="340" y="201"/>
      <point x="285" y="252"/>
      <point x="211" y="252" type="curve" smooth="yes"/>
      <point x="136" y="252"/>
      <point x="83" y="199"/>
    </contour>
    <contour>
      <point x="110" y="125" type="curve" smooth="yes"/>
      <point x="110" y="186"/>
      <point x="150" y="226"/>
      <point x="211" y="226" type="curve" smooth="yes"/>
      <point x="271" y="226"/>
      <point x="313" y="187"/>
      <point x="313" y="126" type="curve" smooth="yes"/>
      <point x="313" y="65"/>
      <point x="272" y="26"/>
      <point x="211" y="26" type="curve" smooth="yes"/>
      <point x="151" y="26"/>
      <point x="110" y="62"/>
    </contour>
  </outline>
</glyph>
<glyph name="abeng" format="2">
  <advance width="838"/>
  <unicode hex="0985"/>
  <outline>
    <contour>
      <point x="848" y="622" type="line"/>
      <point x="-10" y="622" type="line"/>
      <point x="-10" y="596" type="line"/>
      <point x="707" y="596" type="line"/>
      <point x="707" y="168" type="line" smooth="yes"/>
      <point x="707" y="100"/>
      <point x="709" y="79"/>
      <point x="711" y="43" type="curve"/>
      <point x="674" y="128"/>
      <point x="610" y="199"/>
      <point x="542" y="242" type="curve"/>
      <point x="530" y="220" type="line"/>
      <point x="607" y="169"/>
      <point x="667" y="89"/>
      <point x="707" y="0" type="curve"/>
      <point x="733" y="0" type="line"/>
      <point x="733" y="596" type="line"/>
      <point x="848" y="596" type="line"/>
    </contour>
    <contour>
      <point x="368" y="123" type="curve" smooth="yes"/>
      <point x="498" y="123"/>
      <point x="576" y="195"/>
      <point x="576" y="319" type="curve" smooth="yes"/>
      <point x="576" y="433"/>
      <point x="501" y="514"/>
      <point x="395" y="514" type="curve" smooth="yes"/>
      <point x="329" y="514"/>
      <point x="273" y="473"/>
      <point x="273" y="406" type="curve" smooth="yes"/>
      <point x="273" y="384"/>
      <point x="278" y="357"/>
      <point x="287" y="336" type="curve"/>
      <point x="313" y="343" type="line"/>
      <point x="302" y="368"/>
      <point x="300" y="385"/>
      <point x="300" y="405" type="curve" smooth="yes"/>
      <point x="300" y="460"/>
      <point x="339" y="488"/>
      <point x="396" y="488" type="curve" smooth="yes"/>
      <point x="486" y="488"/>
      <point x="549" y="420"/>
      <point x="549" y="318" type="curve" smooth="yes"/>
      <point x="549" y="224"/>
      <point x="501" y="149"/>
      <point x="368" y="149" type="curve" smooth="yes"/>
      <point x="243" y="149"/>
      <point x="141" y="245"/>
      <point x="61" y="478" type="curve"/>
      <point x="35" y="470" type="line"/>
      <point x="127" y="205"/>
      <point x="245" y="123"/>
    </contour>
    <contour>
      <point x="372" y="504" type="curve"/>
      <point x="398" y="507" type="line"/>
      <point x="390" y="557"/>
      <point x="356" y="592"/>
      <point x="291" y="613" type="curve"/>
      <point x="270" y="612" type="line"/>
      <point x="265" y="598" type="line"/>
      <point x="325" y="584"/>
      <point x="362" y="551"/>
    </contour>
  </outline>
</glyph>
<glyph name="ibeng" format="2">
  <advance width="502"/>
  <unicode hex="0987"/>
  <outline>
    <contour>
      <point x="367" y="622" type="curve"/>
      <point x="393" y="622" type="line"/>
      <point x="390" y="679"/>
      <point x="374" y="713"/>
      <point x="342" y="733" type="curve" smooth="yes"/>
      <point x="321" y="746"/>
      <point x="296" y="752"/>
      <point x="253" y="752" type="curve" smooth="yes"/>
      <point x="180" y="752" type="line" smooth="yes"/>
      <point x="106" y="752"/>
      <point x="69" y="759"/>
      <point x="46" y="785" type="curve" smooth="yes"/>
      <point x="31" y="802"/>
      <point x="23" y="828"/>
      <point x="23" y="863" type="curve" smooth="yes"/>
      <point x="23" y="877"/>
      <point x="24" y="893"/>
      <point x="27" y="910" type="curve"/>
      <point x="0" y="912" type="line"/>
      <point x="-3" y="895"/>
      <point x="-4" y="878"/>
      <point x="-4" y="862" type="curve" smooth="yes"/>
      <point x="-4" y="825"/>
      <point x="5" y="795"/>
      <point x="21" y="774" type="curve" smooth="yes"/>
      <point x="52" y="734"/>
      <point x="107" y="726"/>
      <point x="182" y="726" type="curve" smooth="yes"/>
      <point x="254" y="726" type="line" smooth="yes"/>
      <point x="343" y="726"/>
      <point x="363" y="690"/>
    </contour>
    <component base="habeng"/>
  </outline>
</glyph>
<glyph name="iibeng" format="2">
  <advance width="645"/>
  <unicode hex="0988"/>
  <outline>
    <contour>
      <point x="200" y="123" type="curve" smooth="yes"/>
      <point x="241" y="123"/>
      <point x="276" y="145"/>
      <point x="321" y="214" type="curve" smooth="yes"/>
      <point x="417" y="359"/>
      <point x="488" y="424"/>
      <point x="566" y="473" type="curve"/>
      <point x="559" y="475" type="line"/>
      <point x="518" y="397"/>
      <point x="502" y="311"/>
      <point x="502" y="230" type="curve" smooth="yes"/>
      <point x="502" y="145"/>
      <point x="518" y="76"/>
      <point x="541" y="-3" type="curve"/>
      <point x="567" y="3" type="line"/>
      <point x="543" y="84"/>
      <point x="528" y="149"/>
      <point x="528" y="230" type="curve" smooth="yes"/>
      <point x="528" y="304"/>
      <point x="544" y="389"/>
      <point x="584" y="473" type="curve"/>
      <point x="557" y="495" type="line"/>
      <point x="467" y="442"/>
      <point x="382" y="355"/>
      <point x="345" y="282" type="curve"/>
      <point x="351" y="285" type="line"/>
      <point x="356" y="303"/>
      <point x="358" y="325"/>
      <point x="358" y="341" type="curve" smooth="yes"/>
      <point x="358" y="436"/>
      <point x="293" y="514"/>
      <point x="191" y="514" type="curve" smooth="yes"/>
      <point x="122" y="514"/>
      <point x="68" y="475"/>
      <point x="68" y="411" type="curve" smooth="yes"/>
      <point x="68" y="387"/>
      <point x="75" y="362"/>
      <point x="86" y="340" type="curve"/>
      <point x="111" y="347" type="line"/>
      <point x="100" y="370"/>
      <point x="95" y="388"/>
      <point x="95" y="410" type="curve" smooth="yes"/>
      <point x="95" y="465"/>
      <point x="137" y="488"/>
      <point x="191" y="488" type="curve" smooth="yes"/>
      <point x="288" y="488"/>
      <point x="333" y="410"/>
      <point x="333" y="339" type="curve" smooth="yes"/>
      <point x="333" y="287"/>
      <point x="323" y="260"/>
      <point x="293" y="217" type="curve" smooth="yes"/>
      <point x="252" y="160"/>
      <point x="230" y="149"/>
      <point x="199" y="149" type="curve" smooth="yes"/>
      <point x="173" y="149"/>
      <point x="143" y="164"/>
      <point x="113" y="221" type="curve"/>
      <point x="90" y="208" type="line"/>
      <point x="126" y="143"/>
      <point x="161" y="123"/>
    </contour>
    <contour>
      <point x="655" y="622" type="line"/>
      <point x="-10" y="622" type="line"/>
      <point x="-10" y="596" type="line"/>
      <point x="655" y="596" type="line"/>
    </contour>
    <contour>
      <point x="172" y="504" type="curve"/>
      <point x="198" y="507" type="line"/>
      <point x="190" y="557"/>
      <point x="156" y="592"/>
      <point x="91" y="613" type="curve"/>
      <point x="70" y="612" type="line"/>
      <point x="65" y="598" type="line"/>
      <point x="125" y="584"/>
      <point x="162" y="551"/>
    </contour>
    <contour>
      <point x="492" y="622" type="curve"/>
      <point x="518" y="622" type="line"/>
      <point x="515" y="679"/>
      <point x="499" y="713"/>
      <point x="467" y="733" type="curve" smooth="yes"/>
      <point x="446" y="746"/>
      <point x="421" y="752"/>
      <point x="378" y="752" type="curve" smooth="yes"/>
      <point x="246" y="752" type="line" smooth="yes"/>
      <point x="172" y="752"/>
      <point x="135" y="759"/>
      <point x="112" y="785" type="curve" smooth="yes"/>
      <point x="97" y="802"/>
      <point x="89" y="828"/>
      <point x="89" y="863" type="curve" smooth="yes"/>
      <point x="89" y="877"/>
      <point x="90" y="893"/>
      <point x="93" y="910" type="curve"/>
      <point x="66" y="912" type="line"/>
      <point x="63" y="895"/>
      <point x="62" y="878"/>
      <point x="62" y="862" type="curve" smooth="yes"/>
      <point x="62" y="825"/>
      <point x="71" y="795"/>
      <point x="87" y="774" type="curve" smooth="yes"/>
      <point x="118" y="734"/>
      <point x="173" y="726"/>
      <point x="248" y="726" type="curve" smooth="yes"/>
      <point x="379" y="726" type="line" smooth="yes"/>
      <point x="468" y="726"/>
      <point x="488" y="690"/>
    </contour>
  </outline>
</glyph>
<glyph name="ubeng" format="2">
  <advance width="679"/>
  <unicode hex="0989"/>
  <outline>
    <contour>
      <point x="522" y="622" type="curve"/>
      <point x="548" y="622" type="line"/>
      <point x="545" y="679"/>
      <point x="529" y="713"/>
      <point x="497" y="733" type="curve" smooth="yes"/>
      <point x="476" y="746"/>
      <point x="451" y="752"/>
      <point x="408" y="752" type="curve" smooth="yes"/>
      <point x="261" y="752" type="line" smooth="yes"/>
      <point x="187" y="752"/>
      <point x="150" y="759"/>
      <point x="127" y="785" type="curve" smooth="yes"/>
      <point x="112" y="802"/>
      <point x="104" y="828"/>
      <point x="104" y="863" type="curve" smooth="yes"/>
      <point x="104" y="877"/>
      <point x="105" y="893"/>
      <point x="108" y="910" type="curve"/>
      <point x="81" y="912" type="line"/>
      <point x="78" y="895"/>
      <point x="77" y="878"/>
      <point x="77" y="862" type="curve" smooth="yes"/>
      <point x="77" y="825"/>
      <point x="86" y="795"/>
      <point x="102" y="774" type="curve" smooth="yes"/>
      <point x="133" y="734"/>
      <point x="188" y="726"/>
      <point x="263" y="726" type="curve" smooth="yes"/>
      <point x="409" y="726" type="line" smooth="yes"/>
      <point x="498" y="726"/>
      <point x="518" y="690"/>
    </contour>
    <component base="ddabeng"/>
  </outline>
</glyph>
<glyph name="uubeng" format="2">
  <advance width="754"/>
  <unicode hex="098A"/>
  <outline>
    <contour>
      <point x="764" y="622" type="line"/>
      <point x="-10" y="622" type="line"/>
      <point x="-10" y="596" type="line"/>
      <point x="363" y="596" type="line"/>
      <point x="363" y="390" type="line" smooth="yes"/>
      <point x="363" y="343"/>
      <point x="370" y="315"/>
      <point x="388" y="298" type="curve" smooth="yes"/>
      <point x="401" y="285"/>
      <point x="421" y="279"/>
      <point x="443" y="279" type="curve" smooth="yes"/>
      <point x="495" y="279"/>
      <point x="558" y="311"/>
      <point x="619" y="429" type="curve"/>
      <point x="605" y="433" type="line"/>
      <point x="641" y="381"/>
      <point x="657" y="319"/>
      <point x="657" y="260" type="curve" smooth="yes"/>
      <point x="657" y="152"/>
      <point x="595" y="79"/>
      <point x="479" y="79" type="curve" smooth="yes"/>
      <point x="322" y="79"/>
      <point x="241" y="235"/>
      <point x="175" y="475" type="curve"/>
      <point x="149" y="468" type="line"/>
      <point x="208" y="253"/>
      <point x="271" y="140"/>
      <point x="370" y="86" type="curve"/>
      <point x="369" y="84" type="line"/>
      <point x="230" y="138"/>
      <point x="126" y="257"/>
      <point x="58" y="470" type="curve"/>
      <point x="32" y="463" type="line"/>
      <point x="112" y="211"/>
      <point x="256" y="53"/>
      <point x="473" y="53" type="curve" smooth="yes"/>
      <point x="611" y="53"/>
      <point x="684" y="140"/>
      <point x="684" y="262" type="curve" smooth="yes"/>
      <point x="684" y="332"/>
      <point x="663" y="395"/>
      <point x="625" y="449" type="curve"/>
      <point x="599" y="445" type="line"/>
      <point x="540" y="333"/>
      <point x="489" y="305"/>
      <point x="443" y="305" type="curve" smooth="yes"/>
      <point x="400" y="305"/>
      <point x="389" y="329"/>
      <point x="389" y="391" type="curve" smooth="yes"/>
      <point x="389" y="596" type="line"/>
      <point x="764" y="596" type="line"/>
    </contour>
    <contour>
      <point x="597" y="622" type="curve"/>
      <point x="623" y="622" type="line"/>
      <point x="620" y="679"/>
      <point x="604" y="713"/>
      <point x="572" y="733" type="curve" smooth="yes"/>
      <point x="551" y="746"/>
      <point x="526" y="752"/>
      <point x="483" y="752" type="curve" smooth="yes"/>
      <point x="316" y="752" type="line" smooth="yes"/>
      <point x="242" y="752"/>
      <point x="205" y="759"/>
      <point x="182" y="785" type="curve" smooth="yes"/>
      <point x="167" y="802"/>
      <point x="159" y="828"/>
      <point x="159" y="863" type="curve" smooth="yes"/>
      <point x="159" y="877"/>
      <point x="160" y="893"/>
      <point x="163" y="910" type="curve"/>
      <point x="136" y="912" type="line"/>
      <point x="133" y="895"/>
      <point x="132" y="878"/>
      <point x="132" y="862" type="curve" smooth="yes"/>
      <point x="132" y="825"/>
      <point x="141" y="795"/>
      <point x="157" y="774" type="curve" smooth="yes"/>
      <point x="188" y="734"/>
      <point x="243" y="726"/>
      <point x="318" y="726" type="curve" smooth="yes"/>
      <point x="484" y="726" type="line" smooth="yes"/>
      <point x="573" y="726"/>
      <point x="593" y="690"/>
    </contour>
  </outline>
</glyph>
<glyph name="rvocalicbeng" format="2">
  <advance width="781"/>
  <unicode hex="098B"/>
  <outline>
    <contour>
      <point x="484" y="676" type="line"/>
      <point x="463" y="676" type="line"/>
      <point x="463" y="494" type="line"/>
      <point x="344" y="451"/>
      <point x="225" y="390"/>
      <point x="105" y="316" type="curve"/>
      <point x="119" y="282" type="line"/>
      <point x="279" y="244"/>
      <point x="404" y="136"/>
      <point x="463" y="0" type="curve"/>
      <point x="489" y="0" type="line"/>
      <point x="489" y="622" type="line"/>
    </contour>
    <contour>
      <point x="463" y="468" type="curve"/>
      <point x="463" y="168" type="line"/>
      <point x="463" y="108"/>
      <point x="465" y="74"/>
      <point x="467" y="42" type="curve"/>
      <point x="414" y="171"/>
      <point x="274" y="268"/>
      <point x="134" y="305" type="curve"/>
      <point x="227" y="362"/>
      <point x="368" y="433"/>
    </contour>
    <contour>
      <point x="438" y="477" type="curve"/>
      <point x="468" y="475" type="line"/>
      <point x="439" y="531"/>
      <point x="384" y="589"/>
      <point x="341" y="625" type="curve"/>
      <point x="325" y="604" type="line"/>
      <point x="363" y="575"/>
      <point x="415" y="517"/>
    </contour>
    <contour>
      <point x="157" y="446" type="curve" smooth="yes"/>
      <point x="241" y="446"/>
      <point x="301" y="506"/>
      <point x="339" y="601" type="curve"/>
      <point x="341" y="625" type="line"/>
      <point x="319" y="620" type="line"/>
      <point x="273" y="502"/>
      <point x="213" y="472"/>
      <point x="157" y="472" type="curve" smooth="yes"/>
      <point x="117" y="472"/>
      <point x="82" y="495"/>
      <point x="82" y="549" type="curve" smooth="yes"/>
      <point x="82" y="573"/>
      <point x="89" y="599"/>
      <point x="100" y="620" type="curve"/>
      <point x="75" y="628" type="line"/>
      <point x="64" y="607"/>
      <point x="55" y="580"/>
      <point x="55" y="549" type="curve" smooth="yes"/>
      <point x="55" y="485"/>
      <point x="98" y="446"/>
    </contour>
    <contour>
      <point x="677" y="676" type="line"/>
      <point x="656" y="676" type="line"/>
      <point x="656" y="240" type="line" smooth="yes"/>
      <point x="656" y="180"/>
      <point x="658" y="133"/>
      <point x="662" y="95" type="curve"/>
      <point x="668" y="95" type="line"/>
      <point x="621" y="215"/>
      <point x="537" y="287"/>
      <point x="483" y="322" type="curve"/>
      <point x="481" y="293" type="line"/>
      <point x="553" y="241"/>
      <point x="614" y="167"/>
      <point x="656" y="72" type="curve"/>
      <point x="682" y="72" type="line"/>
      <point x="682" y="622" type="line"/>
    </contour>
  </outline>
</glyph>
<glyph name="lvocalicbeng" format="2">
  <advance width="596"/>
  <unicode hex="098C"/>
  <outline>
    <contour>
      <point x="188" y="301" type="curve" smooth="yes"/>
      <point x="106" y="301"/>
      <point x="66" y="253"/>
      <point x="66" y="195" type="curve" smooth="yes"/>
      <point x="66" y="178"/>
      <point x="70" y="151"/>
      <point x="79" y="131" type="curve"/>
      <point x="105" y="137" type="line"/>
      <point x="97" y="154"/>
      <point x="93" y="178"/>
      <point x="93" y="196" type="curve" smooth="yes"/>
      <point x="93" y="238"/>
      <point x="117" y="275"/>
      <point x="189" y="275" type="curve" smooth="yes"/>
      <point x="266" y="275"/>
      <point x="301" y="227"/>
      <point x="301" y="167" type="curve" smooth="yes"/>
      <point x="301" y="101"/>
      <point x="253" y="55"/>
      <point x="185" y="20" type="curve"/>
      <point x="192" y="0" type="line"/>
      <point x="201" y="0" type="line" smooth="yes"/>
      <point x="387" y="0"/>
      <point x="547" y="63"/>
      <point x="547" y="223" type="curve" smooth="yes"/>
      <point x="547" y="325"/>
      <point x="494" y="378"/>
      <point x="316" y="439" type="curve" smooth="yes"/>
      <point x="112" y="509"/>
      <point x="101" y="534"/>
      <point x="101" y="580" type="curve" smooth="yes"/>
      <point x="101" y="614"/>
      <point x="120" y="645"/>
      <point x="165" y="683" type="curve"/>
      <point x="146" y="701" type="line"/>
      <point x="96" y="656"/>
      <point x="74" y="621"/>
      <point x="74" y="582" type="curve" smooth="yes"/>
      <point x="74" y="509"/>
      <point x="120" y="477"/>
      <point x="298" y="418" type="curve" smooth="yes"/>
      <point x="484" y="356"/>
      <point x="520" y="308"/>
      <point x="520" y="220" type="curve" smooth="yes"/>
      <point x="520" y="102"/>
      <point x="412" y="28"/>
      <point x="209" y="25" type="curve"/>
      <point x="213" y="11" type="line"/>
      <point x="277" y="44"/>
      <point x="328" y="89"/>
      <point x="328" y="168" type="curve" smooth="yes"/>
      <point x="328" y="247"/>
      <point x="274" y="301"/>
    </contour>
  </outline>
</glyph>
<glyph name="ebeng" format="2">
  <advance width="720"/>
  <unicode hex="098F"/>
  <outline>
    <contour>
      <point x="498" y="628" type="curve" smooth="yes"/>
      <point x="376" y="628"/>
      <point x="253" y="504"/>
      <point x="253" y="398" type="curve" smooth="yes"/>
      <point x="253" y="319"/>
      <point x="299" y="285"/>
      <point x="364" y="285" type="curve" smooth="yes"/>
      <point x="386" y="285"/>
      <point x="401" y="287"/>
      <point x="415" y="291" type="curve"/>
      <point x="411" y="316" type="line"/>
      <point x="396" y="312"/>
      <point x="380" y="311"/>
      <point x="365" y="311" type="curve" smooth="yes"/>
      <point x="292" y="311"/>
      <point x="280" y="353"/>
      <point x="280" y="398" type="curve" smooth="yes"/>
      <point x="280" y="484"/>
      <point x="383" y="602"/>
      <point x="498" y="602" type="curve" smooth="yes"/>
      <point x="527" y="602"/>
      <point x="550" y="595"/>
      <point x="566" y="582" type="curve" smooth="yes"/>
      <point x="587" y="564"/>
      <point x="595" y="534"/>
      <point x="595" y="484" type="curve" smooth="yes"/>
      <point x="595" y="55" type="line"/>
      <point x="574" y="108"/>
      <point x="536" y="139"/>
      <point x="470" y="139" type="curve" smooth="yes"/>
      <point x="402" y="139"/>
      <point x="334" y="118"/>
      <point x="254" y="118" type="curve" smooth="yes"/>
      <point x="169" y="118"/>
      <point x="79" y="141"/>
      <point x="79" y="281" type="curve" smooth="yes"/>
      <point x="79" y="314"/>
      <point x="85" y="345"/>
      <point x="91" y="371" type="curve"/>
      <point x="65" y="375" type="line"/>
      <point x="58" y="348"/>
      <point x="52" y="314"/>
      <point x="52" y="281" type="curve" smooth="yes"/>
      <point x="52" y="124"/>
      <point x="159" y="92"/>
      <point x="255" y="92" type="curve" smooth="yes"/>
      <point x="352" y="92"/>
      <point x="396" y="113"/>
      <point x="471" y="113" type="curve" smooth="yes"/>
      <point x="550" y="113"/>
      <point x="573" y="66"/>
      <point x="595" y="0" type="curve"/>
      <point x="621" y="0" type="line"/>
      <point x="621" y="494" type="line" smooth="yes"/>
      <point x="621" y="553"/>
      <point x="607" y="582"/>
      <point x="581" y="603" type="curve" smooth="yes"/>
      <point x="558" y="622"/>
      <point x="526" y="628"/>
    </contour>
  </outline>
</glyph>
<glyph name="aibeng" format="2">
  <advance width="834"/>
  <unicode hex="0990"/>
  <outline>
    <contour>
      <point x="498" y="628" type="curve" smooth="yes"/>
      <point x="376" y="628"/>
      <point x="253" y="504"/>
      <point x="253" y="398" type="curve" smooth="yes"/>
      <point x="253" y="319"/>
      <point x="299" y="285"/>
      <point x="364" y="285" type="curve" smooth="yes"/>
      <point x="386" y="285"/>
      <point x="401" y="287"/>
      <point x="415" y="291" type="curve"/>
      <point x="411" y="316" type="line"/>
      <point x="396" y="312"/>
      <point x="380" y="311"/>
      <point x="365" y="311" type="curve" smooth="yes"/>
      <point x="292" y="311"/>
      <point x="280" y="353"/>
      <point x="280" y="398" type="curve" smooth="yes"/>
      <point x="280" y="484"/>
      <point x="383" y="602"/>
      <point x="498" y="602" type="curve" smooth="yes"/>
      <point x="527" y="602"/>
      <point x="550" y="595"/>
      <point x="566" y="582" type="curve" smooth="yes"/>
      <point x="587" y="564"/>
      <point x="595" y="534"/>
      <point x="595" y="484" type="curve" smooth="yes"/>
      <point x="595" y="55" type="line"/>
      <point x="574" y="108"/>
      <point x="536" y="139"/>
      <point x="470" y="139" type="curve" smooth="yes"/>
      <point x="402" y="139"/>
      <point x="334" y="118"/>
      <point x="254" y="118" type="curve" smooth="yes"/>
      <point x="169" y="118"/>
      <point x="79" y="141"/>
      <point x="79" y="281" type="curve" smooth="yes"/>
      <point x="79" y="314"/>
      <point x="85" y="345"/>
      <point x="91" y="371" type="curve"/>
      <point x="65" y="375" type="line"/>
      <point x="58" y="348"/>
      <point x="52" y="314"/>
      <point x="52" y="281" type="curve" smooth="yes"/>
      <point x="52" y="124"/>
      <point x="159" y="92"/>
      <point x="255" y="92" type="curve" smooth="yes"/>
      <point x="352" y="92"/>
      <point x="396" y="113"/>
      <point x="471" y="113" type="curve" smooth="yes"/>
      <point x="550" y="113"/>
      <point x="573" y="66"/>
      <point x="595" y="0" type="curve"/>
      <point x="621" y="0" type="line"/>
      <point x="621" y="494" type="line" smooth="yes"/>
      <point x="621" y="553"/>
      <point x="607" y="582"/>
      <point x="581" y="603" type="curve" smooth="yes"/>
      <point x="558" y="622"/>
      <point x="526" y="628"/>
    </contour>
    <contour>
      <point x="783" y="579" type="curve" smooth="yes"/>
      <point x="783" y="633"/>
      <point x="763" y="670"/>
      <point x="733" y="695" type="curve" smooth="yes"/>
      <point x="697" y="724"/>
      <point x="650" y="738"/>
      <point x="577" y="748" type="curve" smooth="yes"/>
      <point x="446" y="767" type="line" smooth="yes"/>
      <point x="401" y="773"/>
      <point x="375" y="783"/>
      <point x="357" y="802" type="curve" smooth="yes"/>
      <point x="341" y="819"/>
      <point x="334" y="841"/>
      <point x="334" y="879" type="curve" smooth="yes"/>
      <point x="334" y="889"/>
      <point x="335" y="906"/>
      <point x="337" y="915" type="curve"/>
      <point x="310" y="917" type="line"/>
      <point x="308" y="905"/>
      <point x="307" y="889"/>
      <point x="307" y="880" type="curve" smooth="yes"/>
      <point x="307" y="781"/>
      <point x="363" y="753"/>
      <point x="443" y="741" type="curve" smooth="yes"/>
      <point x="575" y="722" type="line" smooth="yes"/>
      <point x="651" y="711"/>
      <point x="689" y="697"/>
      <point x="716" y="675" type="curve" smooth="yes"/>
      <point x="744" y="652"/>
      <point x="756" y="621"/>
      <point x="756" y="581" type="curve" smooth="yes"/>
      <point x="756" y="493"/>
      <point x="682" y="448"/>
      <point x="615" y="421" type="curve"/>
      <point x="615" y="395" type="line"/>
      <point x="695" y="427"/>
      <point x="783" y="476"/>
    </contour>
  </outline>
</glyph>
<glyph name="obeng" format="2">
  <advance width="699"/>
  <unicode hex="0993"/>
  <outline>
    <contour>
      <point x="492" y="629" type="curve" smooth="yes"/>
      <point x="372" y="629"/>
      <point x="262" y="528"/>
      <point x="262" y="443" type="curve" smooth="yes"/>
      <point x="262" y="389"/>
      <point x="292" y="358"/>
      <point x="353" y="348" type="curve"/>
      <point x="360" y="373" type="line"/>
      <point x="301" y="383"/>
      <point x="289" y="407"/>
      <point x="289" y="443" type="curve" smooth="yes"/>
      <point x="289" y="511"/>
      <point x="381" y="603"/>
      <point x="492" y="603" type="curve" smooth="yes"/>
      <point x="563" y="603"/>
      <point x="597" y="563"/>
      <point x="597" y="499" type="curve" smooth="yes"/>
      <point x="597" y="427"/>
      <point x="549" y="375"/>
      <point x="439" y="338" type="curve"/>
      <point x="448" y="314" type="line"/>
      <point x="565" y="356"/>
      <point x="624" y="413"/>
      <point x="624" y="499" type="curve" smooth="yes"/>
      <point x="624" y="577"/>
      <point x="577" y="629"/>
    </contour>
    <contour>
      <point x="632" y="226" type="curve" smooth="yes"/>
      <point x="632" y="295"/>
      <point x="592" y="340"/>
      <point x="535" y="369" type="curve"/>
      <point x="511" y="353" type="line"/>
      <point x="571" y="325"/>
      <point x="605" y="285"/>
      <point x="605" y="226" type="curve" smooth="yes"/>
      <point x="605" y="135"/>
      <point x="542" y="88"/>
      <point x="441" y="88" type="curve" smooth="yes"/>
      <point x="257" y="88"/>
      <point x="151" y="251"/>
      <point x="61" y="548" type="curve"/>
      <point x="35" y="541" type="line"/>
      <point x="135" y="211"/>
      <point x="254" y="62"/>
      <point x="442" y="62" type="curve" smooth="yes"/>
      <point x="557" y="62"/>
      <point x="632" y="124"/>
    </contour>
  </outline>
</glyph>
<glyph name="aubeng" format="2">
  <advance width="833"/>
  <unicode hex="0994"/>
  <outline>
    <contour>
      <point x="492" y="629" type="curve" smooth="yes"/>
      <point x="372" y="629"/>
      <point x="262" y="528"/>
      <point x="262" y="443" type="curve" smooth="yes"/>
      <point x="262" y="389"/>
      <point x="292" y="358"/>
      <point x="353" y="348" type="curve"/>
      <point x="360" y="373" type="line"/>
      <point x="301" y="383"/>
      <point x="289" y="407"/>
      <point x="289" y="443" type="curve" smooth="yes"/>
      <point x="289" y="511"/>
      <point x="381" y="603"/>
      <point x="492" y="603" type="curve" smooth="yes"/>
      <point x="563" y="603"/>
      <point x="597" y="563"/>
      <point x="597" y="499" type="curve" smooth="yes"/>
      <point x="597" y="427"/>
      <point x="549" y="375"/>
      <point x="439" y="338" type="curve"/>
      <point x="448" y="314" type="line"/>
      <point x="503" y="334"/>
      <point x="546" y="357"/>
      <point x="575" y="385" type="curve"/>
      <point x="567" y="386" type="line"/>
      <point x="601" y="417"/>
      <point x="624" y="450"/>
      <point x="624" y="499" type="curve" smooth="yes"/>
      <point x="624" y="577"/>
      <point x="577" y="629"/>
    </contour>
    <contour>
      <point x="632" y="226" type="curve" smooth="yes"/>
      <point x="632" y="295"/>
      <point x="592" y="340"/>
      <point x="535" y="369" type="curve"/>
      <point x="511" y="353" type="line"/>
      <point x="571" y="325"/>
      <point x="605" y="285"/>
      <point x="605" y="226" type="curve" smooth="yes"/>
      <point x="605" y="135"/>
      <point x="542" y="88"/>
      <point x="441" y="88" type="curve" smooth="yes"/>
      <point x="257" y="88"/>
      <point x="151" y="251"/>
      <point x="61" y="548" type="curve"/>
      <point x="35" y="541" type="line"/>
      <point x="135" y="211"/>
      <point x="254" y="62"/>
      <point x="442" y="62" type="curve" smooth="yes"/>
      <point x="557" y="62"/>
      <point x="632" y="124"/>
    </contour>
    <contour>
      <point x="782" y="579" type="curve" smooth="yes"/>
      <point x="782" y="633"/>
      <point x="762" y="670"/>
      <point x="732" y="695" type="curve" smooth="yes"/>
      <point x="696" y="724"/>
      <point x="649" y="738"/>
      <point x="576" y="748" type="curve" smooth="yes"/>
      <point x="445" y="767" type="line" smooth="yes"/>
      <point x="400" y="773"/>
      <point x="374" y="783"/>
      <point x="356" y="802" type="curve" smooth="yes"/>
      <point x="340" y="819"/>
      <point x="333" y="841"/>
      <point x="333" y="879" type="curve" smooth="yes"/>
      <point x="333" y="889"/>
      <point x="334" y="906"/>
      <point x="336" y="915" type="curve"/>
      <point x="309" y="917" type="line"/>
      <point x="307" y="905"/>
      <point x="306" y="889"/>
      <point x="306" y="880" type="curve" smooth="yes"/>
      <point x="306" y="781"/>
      <point x="362" y="753"/>
      <point x="442" y="741" type="curve" smooth="yes"/>
      <point x="574" y="722" type="line" smooth="yes"/>
      <point x="650" y="711"/>
      <point x="688" y="697"/>
      <point x="715" y="675" type="curve" smooth="yes"/>
      <point x="743" y="652"/>
      <point x="755" y="621"/>
      <point x="755" y="581" type="curve" smooth="yes"/>
      <point x="755" y="496"/>
      <point x="691" y="451"/>
      <point x="559" y="385" type="curve"/>
      <point x="536" y="355" type="line"/>
      <point x="700" y="421"/>
      <point x="782" y="478"/>
    </contour>
  </outline>
</glyph>
<glyph name="kabeng" format="2">
  <advance width="759"/>
  <unicode hex="0995"/>
  <outline>
    <contour>
      <point x="769" y="622" type="line"/>
      <point x="-10" y="622" type="line"/>
      <point x="-10" y="596" type="line"/>
      <point x="414" y="596" type="line"/>
      <point x="414" y="520" type="line"/>
      <point x="421" y="527" type="line"/>
      <point x="290" y="479"/>
      <point x="165" y="416"/>
      <point x="41" y="336" type="curve"/>
      <point x="55" y="302" type="line"/>
      <point x="215" y="264"/>
      <point x="341" y="164"/>
      <point x="414" y="0" type="curve"/>
      <point x="440" y="0" type="line"/>
      <point x="440" y="511" type="line"/>
      <point x="440" y="519" type="line"/>
      <point x="440" y="596" type="line"/>
      <point x="769" y="596" type="line"/>
    </contour>
    <contour>
      <point x="414" y="511" type="line"/>
      <point x="414" y="168" type="line" smooth="yes"/>
      <point x="414" y="112"/>
      <point x="416" y="55"/>
      <point x="420" y="23" type="curve"/>
      <point x="426" y="23" type="line"/>
      <point x="357" y="198"/>
      <point x="210" y="288"/>
      <point x="70" y="325" type="curve"/>
      <point x="183" y="395"/>
      <point x="318" y="465"/>
      <point x="426" y="503" type="curve"/>
    </contour>
    <contour>
      <point x="704" y="312" type="curve" smooth="yes"/>
      <point x="704" y="419"/>
      <point x="601" y="506"/>
      <point x="429" y="527" type="curve"/>
      <point x="429" y="501" type="line"/>
      <point x="584" y="482"/>
      <point x="677" y="406"/>
      <point x="677" y="312" type="curve" smooth="yes"/>
      <point x="677" y="262"/>
      <point x="658" y="225"/>
      <point x="577" y="225" type="curve" smooth="yes"/>
      <point x="562" y="225"/>
      <point x="549" y="227"/>
      <point x="537" y="229" type="curve"/>
      <point x="535" y="203" type="line"/>
      <point x="549" y="200"/>
      <point x="559" y="199"/>
      <point x="577" y="199" type="curve" smooth="yes"/>
      <point x="667" y="199"/>
      <point x="704" y="245"/>
    </contour>
  </outline>
</glyph>
<glyph name="khabeng" format="2">
  <advance width="649"/>
  <unicode hex="0996"/>
  <outline>
    <contour>
      <point x="659" y="622" type="line"/>
      <point x="544" y="622" type="line"/>
      <point x="539" y="676" type="line"/>
      <point x="518" y="676" type="line"/>
      <point x="518" y="136" type="line" smooth="yes"/>
      <point x="518" y="99"/>
      <point x="518" y="70"/>
      <point x="520" y="40" type="curve"/>
      <point x="473" y="138"/>
      <point x="361" y="250"/>
      <point x="184" y="292" type="curve"/>
      <point x="159" y="312" type="line"/>
      <point x="166" y="270" type="line"/>
      <point x="346" y="232"/>
      <point x="459" y="114"/>
      <point x="518" y="0" type="curve"/>
      <point x="544" y="0" type="line"/>
      <point x="544" y="596" type="line"/>
      <point x="659" y="596" type="line"/>
    </contour>
    <contour>
      <point x="417" y="465" type="curve" smooth="yes"/>
      <point x="417" y="530"/>
      <point x="384" y="577"/>
      <point x="337" y="625" type="curve"/>
      <point x="318" y="605" type="line"/>
      <point x="357" y="567"/>
      <point x="390" y="528"/>
      <point x="390" y="464" type="curve" smooth="yes"/>
      <point x="390" y="383"/>
      <point x="332" y="330"/>
      <point x="159" y="312" type="curve"/>
      <point x="171" y="284" type="line"/>
      <point x="178" y="290" type="line"/>
      <point x="330" y="309"/>
      <point x="417" y="355"/>
    </contour>
    <contour>
      <point x="157" y="446" type="curve" smooth="yes"/>
      <point x="241" y="446"/>
      <point x="301" y="506"/>
      <point x="339" y="601" type="curve"/>
      <point x="337" y="625" type="line"/>
      <point x="319" y="620" type="line"/>
      <point x="273" y="502"/>
      <point x="213" y="472"/>
      <point x="157" y="472" type="curve" smooth="yes"/>
      <point x="117" y="472"/>
      <point x="82" y="495"/>
      <point x="82" y="549" type="curve" smooth="yes"/>
      <point x="82" y="573"/>
      <point x="89" y="599"/>
      <point x="100" y="620" type="curve"/>
      <point x="75" y="628" type="line"/>
      <point x="64" y="607"/>
      <point x="55" y="580"/>
      <point x="55" y="549" type="curve" smooth="yes"/>
      <point x="55" y="485"/>
      <point x="98" y="446"/>
    </contour>
  </outline>
</glyph>
<glyph name="gabeng" format="2">
  <advance width="600"/>
  <unicode hex="0997"/>
  <outline>
    <contour>
      <point x="469" y="0" type="line"/>
      <point x="495" y="0" type="line"/>
      <point x="495" y="596" type="line"/>
      <point x="610" y="596" type="line"/>
      <point x="610" y="622" type="line"/>
      <point x="495" y="622" type="line"/>
      <point x="490" y="676" type="line"/>
      <point x="469" y="676" type="line"/>
      <point x="469" y="546" type="line" smooth="yes"/>
      <point x="469" y="510"/>
      <point x="470" y="473"/>
      <point x="472" y="451" type="curve"/>
      <point x="494" y="441" type="line"/>
      <point x="415" y="561"/>
      <point x="355" y="629"/>
      <point x="248" y="629" type="curve" smooth="yes"/>
      <point x="155" y="629"/>
      <point x="87" y="559"/>
      <point x="23" y="453" type="curve"/>
      <point x="54" y="428" type="line"/>
      <point x="92" y="451"/>
      <point x="130" y="467"/>
      <point x="179" y="467" type="curve" smooth="yes"/>
      <point x="236" y="467"/>
      <point x="268" y="438"/>
      <point x="268" y="389" type="curve" smooth="yes"/>
      <point x="268" y="322"/>
      <point x="220" y="280"/>
      <point x="118" y="241" type="curve"/>
      <point x="129" y="217" type="line"/>
      <point x="243" y="264"/>
      <point x="295" y="311"/>
      <point x="295" y="390" type="curve" smooth="yes"/>
      <point x="295" y="433"/>
      <point x="267" y="493"/>
      <point x="181" y="493" type="curve" smooth="yes"/>
      <point x="121" y="493"/>
      <point x="81" y="472"/>
      <point x="43" y="448" type="curve"/>
      <point x="49" y="448" type="line"/>
      <point x="106" y="537"/>
      <point x="163" y="603"/>
      <point x="247" y="603" type="curve" smooth="yes"/>
      <point x="326" y="603"/>
      <point x="378" y="572"/>
      <point x="490" y="410" type="curve"/>
      <point x="469" y="446" type="line"/>
    </contour>
  </outline>
</glyph>
<glyph name="ghabeng" format="2">
  <advance width="595"/>
  <unicode hex="0998"/>
  <outline>
    <contour>
      <point x="605" y="622" type="line"/>
      <point x="-10" y="622" type="line"/>
      <point x="-10" y="596" type="line"/>
      <point x="464" y="596" type="line"/>
      <point x="464" y="111" type="line" smooth="yes"/>
      <point x="464" y="84"/>
      <point x="464" y="56"/>
      <point x="466" y="33" type="curve"/>
      <point x="396" y="147"/>
      <point x="280" y="233"/>
      <point x="101" y="260" type="curve"/>
      <point x="105" y="251" type="line"/>
      <point x="164" y="299"/>
      <point x="265" y="374"/>
      <point x="344" y="426" type="curve"/>
      <point x="328" y="447" type="line"/>
      <point x="282" y="413"/>
      <point x="245" y="404"/>
      <point x="203" y="404" type="curve" smooth="yes"/>
      <point x="129" y="404"/>
      <point x="90" y="432"/>
      <point x="90" y="494" type="curve" smooth="yes"/>
      <point x="90" y="528"/>
      <point x="106" y="571"/>
      <point x="176" y="609" type="curve"/>
      <point x="150" y="619" type="line"/>
      <point x="89" y="586"/>
      <point x="63" y="541"/>
      <point x="63" y="494" type="curve" smooth="yes"/>
      <point x="63" y="428"/>
      <point x="103" y="379"/>
      <point x="202" y="379" type="curve" smooth="yes"/>
      <point x="231" y="379"/>
      <point x="252" y="386"/>
      <point x="273" y="397" type="curve"/>
      <point x="281" y="402" type="line"/>
      <point x="211" y="369"/>
      <point x="137" y="310"/>
      <point x="86" y="267" type="curve"/>
      <point x="99" y="235" type="line"/>
      <point x="276" y="209"/>
      <point x="383" y="119"/>
      <point x="464" y="0" type="curve"/>
      <point x="490" y="0" type="line"/>
      <point x="490" y="596" type="line"/>
      <point x="605" y="596" type="line"/>
    </contour>
  </outline>
</glyph>
<glyph name="ngabeng" format="2">
  <advance width="682"/>
  <unicode hex="0999"/>
  <outline>
    <contour>
      <point x="400" y="38" type="curve" smooth="yes"/>
      <point x="535" y="38"/>
      <point x="614" y="116"/>
      <point x="614" y="227" type="curve" smooth="yes"/>
      <point x="614" y="295"/>
      <point x="593" y="344"/>
      <point x="567" y="385" type="curve"/>
      <point x="540" y="383" type="line"/>
      <point x="472" y="284"/>
      <point x="415" y="271"/>
      <point x="369" y="271" type="curve" smooth="yes"/>
      <point x="325" y="271"/>
      <point x="315" y="295"/>
      <point x="315" y="357" type="curve" smooth="yes"/>
      <point x="315" y="423" type="line" smooth="yes"/>
      <point x="315" y="544"/>
      <point x="366" y="601"/>
      <point x="437" y="601" type="curve" smooth="yes"/>
      <point x="484" y="601"/>
      <point x="516" y="578"/>
      <point x="516" y="532" type="curve" smooth="yes"/>
      <point x="516" y="490"/>
      <point x="488" y="456"/>
      <point x="415" y="456" type="curve" smooth="yes"/>
      <point x="284" y="456"/>
      <point x="211" y="530"/>
      <point x="144" y="623" type="curve"/>
      <point x="123" y="607" type="line"/>
      <point x="200" y="498"/>
      <point x="290" y="430"/>
      <point x="415" y="430" type="curve" smooth="yes"/>
      <point x="487" y="430"/>
      <point x="543" y="465"/>
      <point x="543" y="533" type="curve" smooth="yes"/>
      <point x="543" y="588"/>
      <point x="503" y="627"/>
      <point x="436" y="627" type="curve" smooth="yes"/>
      <point x="361" y="627"/>
      <point x="289" y="573"/>
      <point x="289" y="433" type="curve" smooth="yes"/>
      <point x="289" y="356" type="line" smooth="yes"/>
      <point x="289" y="309"/>
      <point x="296" y="281"/>
      <point x="314" y="264" type="curve" smooth="yes"/>
      <point x="327" y="251"/>
      <point x="347" y="245"/>
      <point x="369" y="245" type="curve" smooth="yes"/>
      <point x="417" y="245"/>
      <point x="492" y="263"/>
      <point x="561" y="368" type="curve"/>
      <point x="545" y="372" type="line"/>
      <point x="574" y="325"/>
      <point x="587" y="280"/>
      <point x="587" y="229" type="curve" smooth="yes"/>
      <point x="587" y="126"/>
      <point x="521" y="64"/>
      <point x="399" y="64" type="curve" smooth="yes"/>
      <point x="239" y="64"/>
      <point x="151" y="160"/>
      <point x="61" y="466" type="curve"/>
      <point x="35" y="459" type="line"/>
      <point x="130" y="140"/>
      <point x="226" y="38"/>
    </contour>
  </outline>
</glyph>
<glyph name="cabeng" format="2">
  <advance width="534"/>
  <unicode hex="099A"/>
  <outline>
    <contour>
      <point x="544" y="622" type="line"/>
      <point x="-10" y="622" type="line"/>
      <point x="-10" y="596" type="line"/>
      <point x="105" y="596" type="line"/>
      <point x="105" y="188" type="line" smooth="yes"/>
      <point x="105" y="117"/>
      <point x="114" y="84"/>
      <point x="144" y="60" type="curve" smooth="yes"/>
      <point x="161" y="47"/>
      <point x="185" y="40"/>
      <point x="214" y="40" type="curve" smooth="yes"/>
      <point x="280" y="40"/>
      <point x="338" y="71"/>
      <point x="383" y="118" type="curve" smooth="yes"/>
      <point x="437" y="175"/>
      <point x="471" y="247"/>
      <point x="471" y="329" type="curve" smooth="yes"/>
      <point x="471" y="366"/>
      <point x="461" y="390"/>
      <point x="442" y="406" type="curve" smooth="yes"/>
      <point x="420" y="425"/>
      <point x="391" y="433"/>
      <point x="341" y="433" type="curve" smooth="yes"/>
      <point x="334" y="433" type="line" smooth="yes"/>
      <point x="209" y="433"/>
      <point x="170" y="492"/>
      <point x="124" y="580" type="curve"/>
      <point x="115" y="547" type="line"/>
      <point x="136" y="508"/>
      <point x="156" y="477"/>
      <point x="182" y="454" type="curve" smooth="yes"/>
      <point x="218" y="422"/>
      <point x="263" y="407"/>
      <point x="343" y="407" type="curve" smooth="yes"/>
      <point x="349" y="407" type="line" smooth="yes"/>
      <point x="421" y="407"/>
      <point x="444" y="380"/>
      <point x="444" y="329" type="curve" smooth="yes"/>
      <point x="444" y="258"/>
      <point x="414" y="186"/>
      <point x="364" y="135" type="curve" smooth="yes"/>
      <point x="324" y="94"/>
      <point x="276" y="66"/>
      <point x="214" y="66" type="curve" smooth="yes"/>
      <point x="187" y="66"/>
      <point x="168" y="72"/>
      <point x="156" y="84" type="curve" smooth="yes"/>
      <point x="135" y="104"/>
      <point x="131" y="136"/>
      <point x="131" y="199" type="curve" smooth="yes"/>
      <point x="131" y="443" type="line" smooth="yes"/>
      <point x="131" y="488"/>
      <point x="130" y="526"/>
      <point x="127" y="544" type="curve"/>
      <point x="131" y="551" type="line"/>
      <point x="131" y="596" type="line"/>
      <point x="544" y="596" type="line"/>
    </contour>
  </outline>
</glyph>
<glyph name="chabeng" format="2">
  <advance width="643"/>
  <unicode hex="099B"/>
  <outline>
    <contour>
      <point x="568" y="323" type="curve" smooth="yes"/>
      <point x="568" y="402"/>
      <point x="523" y="483"/>
      <point x="390" y="483" type="curve" smooth="yes"/>
      <point x="373" y="483"/>
      <point x="348" y="483"/>
      <point x="325" y="481" type="curve"/>
      <point x="350" y="456" type="line"/>
      <point x="361" y="457"/>
      <point x="372" y="458"/>
      <point x="392" y="458" type="curve" smooth="yes"/>
      <point x="477" y="458"/>
      <point x="541" y="416"/>
      <point x="541" y="323" type="curve" smooth="yes"/>
      <point x="541" y="228"/>
      <point x="467" y="136"/>
      <point x="270" y="136" type="curve" smooth="yes"/>
      <point x="240" y="136"/>
      <point x="198" y="140"/>
      <point x="149" y="149" type="curve"/>
      <point x="146" y="123" type="line"/>
      <point x="336" y="100"/>
      <point x="476" y="63"/>
      <point x="628" y="-24" type="curve"/>
      <point x="642" y="-1" type="line"/>
      <point x="519" y="69"/>
      <point x="396" y="110"/>
      <point x="281" y="120" type="curve"/>
      <point x="289" y="116" type="line"/>
      <point x="464" y="116"/>
      <point x="568" y="200"/>
    </contour>
    <contour>
      <point x="211" y="245" type="curve" smooth="yes"/>
      <point x="322" y="245"/>
      <point x="403" y="329"/>
      <point x="403" y="403" type="curve" smooth="yes"/>
      <point x="403" y="435"/>
      <point x="389" y="458"/>
      <point x="355" y="469" type="curve"/>
      <point x="352" y="478"/>
      <point x="348" y="481"/>
      <point x="346" y="481" type="curve"/>
      <point x="314" y="481" type="line" smooth="yes"/>
      <point x="221" y="481"/>
      <point x="170" y="511"/>
      <point x="123" y="585" type="curve"/>
      <point x="117" y="557" type="line"/>
      <point x="150" y="495"/>
      <point x="213" y="455"/>
      <point x="316" y="455" type="curve" smooth="yes"/>
      <point x="321" y="455" type="line" smooth="yes"/>
      <point x="360" y="455"/>
      <point x="377" y="434"/>
      <point x="377" y="403" type="curve" smooth="yes"/>
      <point x="377" y="344"/>
      <point x="312" y="271"/>
      <point x="211" y="271" type="curve" smooth="yes"/>
      <point x="181" y="271"/>
      <point x="163" y="276"/>
      <point x="150" y="287" type="curve" smooth="yes"/>
      <point x="133" y="301"/>
      <point x="126" y="322"/>
      <point x="126" y="371" type="curve" smooth="yes"/>
      <point x="126" y="482" type="line" smooth="yes"/>
      <point x="126" y="514"/>
      <point x="125" y="532"/>
      <point x="123" y="550" type="curve"/>
      <point x="126" y="564" type="line"/>
      <point x="126" y="599" type="line"/>
      <point x="100" y="599" type="line"/>
      <point x="100" y="371" type="line" smooth="yes"/>
      <point x="100" y="311"/>
      <point x="112" y="285"/>
      <point x="133" y="267" type="curve" smooth="yes"/>
      <point x="152" y="251"/>
      <point x="179" y="245"/>
    </contour>
    <contour>
      <point x="-10" y="596" type="line"/>
      <point x="653" y="596" type="line"/>
      <point x="653" y="622" type="line"/>
      <point x="-10" y="622" type="line"/>
    </contour>
  </outline>
</glyph>
<glyph name="jabeng" format="2">
  <advance width="824"/>
  <unicode hex="099C"/>
  <outline>
    <contour>
      <point x="379" y="99" type="curve" smooth="yes"/>
      <point x="499" y="99"/>
      <point x="572" y="162"/>
      <point x="572" y="279" type="curve" smooth="yes"/>
      <point x="572" y="320"/>
      <point x="560" y="371"/>
      <point x="545" y="400" type="curve"/>
      <point x="516" y="409" type="line"/>
      <point x="460" y="348"/>
      <point x="415" y="327"/>
      <point x="364" y="327" type="curve" smooth="yes"/>
      <point x="304" y="327"/>
      <point x="285" y="363"/>
      <point x="285" y="406" type="curve" smooth="yes"/>
      <point x="285" y="466"/>
      <point x="333" y="521"/>
      <point x="488" y="597" type="curve"/>
      <point x="507" y="596"/>
      <point x="547" y="596"/>
      <point x="583" y="596" type="curve" smooth="yes"/>
      <point x="834" y="596" type="line"/>
      <point x="834" y="622" type="line"/>
      <point x="-10" y="622" type="line"/>
      <point x="-10" y="596" type="line"/>
      <point x="330" y="596" type="line" smooth="yes"/>
      <point x="382" y="596"/>
      <point x="415" y="596"/>
      <point x="440" y="597" type="curve"/>
      <point x="321" y="539"/>
      <point x="258" y="480"/>
      <point x="258" y="407" type="curve" smooth="yes"/>
      <point x="258" y="342"/>
      <point x="297" y="301"/>
      <point x="363" y="301" type="curve" smooth="yes"/>
      <point x="431" y="301"/>
      <point x="482" y="334"/>
      <point x="536" y="394" type="curve"/>
      <point x="521" y="390" type="line"/>
      <point x="534" y="363"/>
      <point x="545" y="323"/>
      <point x="545" y="278" type="curve" smooth="yes"/>
      <point x="545" y="171"/>
      <point x="481" y="125"/>
      <point x="378" y="125" type="curve" smooth="yes"/>
      <point x="238" y="125"/>
      <point x="141" y="219"/>
      <point x="61" y="484" type="curve"/>
      <point x="35" y="477" type="line"/>
      <point x="115" y="210"/>
      <point x="220" y="99"/>
    </contour>
    <contour>
      <point x="709" y="234" type="curve" smooth="yes"/>
      <point x="709" y="313"/>
      <point x="726" y="388"/>
      <point x="752" y="444" type="curve"/>
      <point x="739" y="464" type="line"/>
      <point x="730" y="463"/>
      <point x="722" y="463"/>
      <point x="714" y="463" type="curve" smooth="yes"/>
      <point x="563" y="463"/>
      <point x="521" y="529"/>
      <point x="488" y="600" type="curve"/>
      <point x="465" y="590" type="line"/>
      <point x="512" y="483"/>
      <point x="579" y="437"/>
      <point x="720" y="437" type="curve"/>
      <point x="700" y="393"/>
      <point x="683" y="314"/>
      <point x="683" y="235" type="curve" smooth="yes"/>
      <point x="683" y="142"/>
      <point x="699" y="76"/>
      <point x="722" y="-3" type="curve"/>
      <point x="748" y="3" type="line"/>
      <point x="724" y="84"/>
      <point x="709" y="149"/>
    </contour>
  </outline>
</glyph>
<glyph name="jhabeng" format="2">
  <advance width="738"/>
  <unicode hex="099D"/>
  <outline>
    <contour>
      <point x="440" y="622" type="line"/>
      <point x="-10" y="622" type="line"/>
      <point x="-10" y="596" type="line"/>
      <point x="414" y="596" type="line"/>
      <point x="414" y="531" type="line"/>
      <point x="433" y="543" type="line"/>
      <point x="296" y="492"/>
      <point x="165" y="418"/>
      <point x="41" y="336" type="curve"/>
      <point x="55" y="302" type="line"/>
      <point x="215" y="264"/>
      <point x="341" y="164"/>
      <point x="414" y="0" type="curve"/>
      <point x="440" y="0" type="line"/>
    </contour>
    <contour>
      <point x="414" y="513" type="line"/>
      <point x="414" y="168" type="line"/>
      <point x="414" y="108"/>
      <point x="416" y="55"/>
      <point x="420" y="23" type="curve"/>
      <point x="426" y="23" type="line"/>
      <point x="357" y="198"/>
      <point x="210" y="288"/>
      <point x="70" y="325" type="curve"/>
      <point x="183" y="398"/>
      <point x="326" y="477"/>
      <point x="436" y="517" type="curve"/>
    </contour>
    <contour>
      <point x="748" y="622" type="line"/>
      <point x="633" y="622" type="line"/>
      <point x="628" y="676" type="line"/>
      <point x="607" y="676" type="line"/>
      <point x="607" y="240" type="line" smooth="yes"/>
      <point x="607" y="180"/>
      <point x="609" y="133"/>
      <point x="613" y="95" type="curve"/>
      <point x="619" y="95" type="line"/>
      <point x="572" y="215"/>
      <point x="488" y="287"/>
      <point x="434" y="322" type="curve"/>
      <point x="432" y="293" type="line"/>
      <point x="504" y="241"/>
      <point x="565" y="167"/>
      <point x="607" y="72" type="curve"/>
      <point x="633" y="72" type="line"/>
      <point x="633" y="596" type="line"/>
      <point x="748" y="596" type="line"/>
    </contour>
  </outline>
</glyph>
<glyph name="nyabeng" format="2">
  <advance width="962"/>
  <unicode hex="099E"/>
  <outline>
    <contour>
      <point x="498" y="628" type="curve" smooth="yes"/>
      <point x="376" y="628"/>
      <point x="253" y="504"/>
      <point x="253" y="398" type="curve" smooth="yes"/>
      <point x="253" y="319"/>
      <point x="299" y="285"/>
      <point x="364" y="285" type="curve" smooth="yes"/>
      <point x="386" y="285"/>
      <point x="401" y="287"/>
      <point x="415" y="291" type="curve"/>
      <point x="411" y="316" type="line"/>
      <point x="396" y="312"/>
      <point x="380" y="311"/>
      <point x="365" y="311" type="curve" smooth="yes"/>
      <point x="292" y="311"/>
      <point x="280" y="353"/>
      <point x="280" y="398" type="curve" smooth="yes"/>
      <point x="280" y="484"/>
      <point x="383" y="602"/>
      <point x="498" y="602" type="curve" smooth="yes"/>
      <point x="527" y="602"/>
      <point x="550" y="595"/>
      <point x="566" y="582" type="curve" smooth="yes"/>
      <point x="587" y="564"/>
      <point x="595" y="534"/>
      <point x="595" y="484" type="curve" smooth="yes"/>
      <point x="595" y="55" type="line"/>
      <point x="574" y="108"/>
      <point x="536" y="139"/>
      <point x="470" y="139" type="curve" smooth="yes"/>
      <point x="402" y="139"/>
      <point x="334" y="118"/>
      <point x="254" y="118" type="curve" smooth="yes"/>
      <point x="169" y="118"/>
      <point x="79" y="141"/>
      <point x="79" y="281" type="curve" smooth="yes"/>
      <point x="79" y="314"/>
      <point x="85" y="345"/>
      <point x="91" y="371" type="curve"/>
      <point x="65" y="375" type="line"/>
      <point x="58" y="348"/>
      <point x="52" y="314"/>
      <point x="52" y="281" type="curve" smooth="yes"/>
      <point x="52" y="124"/>
      <point x="159" y="92"/>
      <point x="255" y="92" type="curve" smooth="yes"/>
      <point x="352" y="92"/>
      <point x="396" y="113"/>
      <point x="471" y="113" type="curve" smooth="yes"/>
      <point x="550" y="113"/>
      <point x="573" y="66"/>
      <point x="595" y="0" type="curve"/>
      <point x="621" y="0" type="line"/>
      <point x="621" y="255" type="line" smooth="yes"/>
      <point x="621" y="294"/>
      <point x="620" y="328"/>
      <point x="618" y="355" type="curve"/>
      <point x="621" y="362" type="line"/>
      <point x="621" y="462" type="line"/>
      <point x="621" y="494" type="line" smooth="yes"/>
      <point x="621" y="553"/>
      <point x="607" y="582"/>
      <point x="581" y="603" type="curve" smooth="yes"/>
      <point x="558" y="622"/>
      <point x="526" y="628"/>
    </contour>
    <contour>
      <point x="792" y="606" type="curve" smooth="yes"/>
      <point x="721" y="606"/>
      <point x="647" y="549"/>
      <point x="603" y="457" type="curve"/>
      <point x="608" y="424" type="line"/>
      <point x="656" y="517"/>
      <point x="720" y="580"/>
      <point x="792" y="580" type="curve" smooth="yes"/>
      <point x="847" y="580"/>
      <point x="875" y="551"/>
      <point x="875" y="506" type="curve" smooth="yes"/>
      <point x="875" y="454"/>
      <point x="839" y="414"/>
      <point x="753" y="401" type="curve"/>
      <point x="758" y="375" type="line"/>
      <point x="879" y="399"/>
      <point x="902" y="458"/>
      <point x="902" y="509" type="curve" smooth="yes"/>
      <point x="902" y="561"/>
      <point x="864" y="606"/>
    </contour>
    <contour>
      <point x="792" y="186" type="curve" smooth="yes"/>
      <point x="864" y="186"/>
      <point x="908" y="232"/>
      <point x="908" y="293" type="curve" smooth="yes"/>
      <point x="908" y="361"/>
      <point x="855" y="396"/>
      <point x="813" y="412" type="curve"/>
      <point x="793" y="395" type="line"/>
      <point x="847" y="373"/>
      <point x="879" y="345"/>
      <point x="879" y="293" type="curve" smooth="yes"/>
      <point x="879" y="241"/>
      <point x="849" y="212"/>
      <point x="792" y="212" type="curve" smooth="yes"/>
      <point x="699" y="212"/>
      <point x="637" y="296"/>
      <point x="610" y="404" type="curve"/>
      <point x="599" y="385" type="line"/>
      <point x="603" y="365" type="line"/>
      <point x="630" y="258"/>
      <point x="697" y="186"/>
    </contour>
  </outline>
</glyph>
<glyph name="ttabeng" format="2">
  <advance width="534"/>
  <unicode hex="099F"/>
  <outline>
    <contour>
      <point x="544" y="622" type="line"/>
      <point x="-10" y="622" type="line"/>
      <point x="-10" y="596" type="line"/>
      <point x="105" y="596" type="line"/>
      <point x="105" y="188" type="line" smooth="yes"/>
      <point x="105" y="117"/>
      <point x="114" y="84"/>
      <point x="144" y="60" type="curve" smooth="yes"/>
      <point x="161" y="47"/>
      <point x="185" y="40"/>
      <point x="214" y="40" type="curve" smooth="yes"/>
      <point x="280" y="40"/>
      <point x="338" y="71"/>
      <point x="383" y="118" type="curve" smooth="yes"/>
      <point x="437" y="175"/>
      <point x="471" y="255"/>
      <point x="471" y="329" type="curve" smooth="yes"/>
      <point x="471" y="421"/>
      <point x="409" y="450"/>
      <point x="358" y="450" type="curve" smooth="yes"/>
      <point x="338" y="450"/>
      <point x="311" y="447"/>
      <point x="289" y="440" type="curve"/>
      <point x="295" y="415" type="line"/>
      <point x="315" y="421"/>
      <point x="337" y="424"/>
      <point x="357" y="424" type="curve" smooth="yes"/>
      <point x="418" y="424"/>
      <point x="444" y="385"/>
      <point x="444" y="329" type="curve" smooth="yes"/>
      <point x="444" y="257"/>
      <point x="414" y="186"/>
      <point x="364" y="135" type="curve" smooth="yes"/>
      <point x="324" y="94"/>
      <point x="275" y="66"/>
      <point x="214" y="66" type="curve" smooth="yes"/>
      <point x="187" y="66"/>
      <point x="168" y="72"/>
      <point x="156" y="84" type="curve" smooth="yes"/>
      <point x="135" y="104"/>
      <point x="131" y="136"/>
      <point x="131" y="198" type="curve" smooth="yes"/>
      <point x="131" y="596" type="line"/>
      <point x="544" y="596" type="line"/>
    </contour>
    <contour>
      <point x="399" y="622" type="curve"/>
      <point x="425" y="622" type="line"/>
      <point x="422" y="679"/>
      <point x="406" y="713"/>
      <point x="374" y="733" type="curve" smooth="yes"/>
      <point x="353" y="746"/>
      <point x="328" y="752"/>
      <point x="285" y="752" type="curve" smooth="yes"/>
      <point x="194" y="752" type="line" smooth="yes"/>
      <point x="120" y="752"/>
      <point x="83" y="759"/>
      <point x="60" y="785" type="curve" smooth="yes"/>
      <point x="45" y="802"/>
      <point x="37" y="828"/>
      <point x="37" y="863" type="curve" smooth="yes"/>
      <point x="37" y="877"/>
      <point x="38" y="893"/>
      <point x="41" y="910" type="curve"/>
      <point x="14" y="912" type="line"/>
      <point x="11" y="895"/>
      <point x="10" y="878"/>
      <point x="10" y="862" type="curve" smooth="yes"/>
      <point x="10" y="825"/>
      <point x="19" y="795"/>
      <point x="35" y="774" type="curve" smooth="yes"/>
      <point x="66" y="734"/>
      <point x="121" y="726"/>
      <point x="196" y="726" type="curve" smooth="yes"/>
      <point x="286" y="726" type="line" smooth="yes"/>
      <point x="375" y="726"/>
      <point x="395" y="690"/>
    </contour>
  </outline>
</glyph>
<glyph name="tthabeng" format="2">
  <advance width="544"/>
  <unicode hex="09A0"/>
  <outline>
    <contour>
      <point x="259" y="0" type="curve" smooth="yes"/>
      <point x="408" y="0"/>
      <point x="477" y="103"/>
      <point x="477" y="232" type="curve" smooth="yes"/>
      <point x="477" y="364"/>
      <point x="393" y="476"/>
      <point x="264" y="598" type="curve"/>
      <point x="284" y="596"/>
      <point x="301" y="596"/>
      <point x="327" y="596" type="curve" smooth="yes"/>
      <point x="554" y="596" type="line"/>
      <point x="554" y="622" type="line"/>
      <point x="238" y="622" type="line"/>
      <point x="177" y="697"/>
      <point x="156" y="732"/>
      <point x="156" y="776" type="curve" smooth="yes"/>
      <point x="156" y="822"/>
      <point x="174" y="849"/>
      <point x="236" y="898" type="curve"/>
      <point x="220" y="917" type="line"/>
      <point x="157" y="867"/>
      <point x="129" y="832"/>
      <point x="129" y="777" type="curve" smooth="yes"/>
      <point x="129" y="729"/>
      <point x="153" y="686"/>
      <point x="207" y="622" type="curve"/>
      <point x="-10" y="622" type="line"/>
      <point x="-10" y="596" type="line"/>
      <point x="221" y="596" type="line"/>
      <point x="242" y="560"/>
      <point x="263" y="496"/>
      <point x="263" y="421" type="curve" smooth="yes"/>
      <point x="263" y="324"/>
      <point x="222" y="224"/>
      <point x="49" y="210" type="curve"/>
      <point x="42" y="180" type="line"/>
      <point x="72" y="71"/>
      <point x="142" y="0"/>
    </contour>
    <contour>
      <point x="259" y="26" type="curve" smooth="yes"/>
      <point x="173" y="26"/>
      <point x="94" y="73"/>
      <point x="65" y="194" type="curve"/>
      <point x="51" y="185" type="line"/>
      <point x="239" y="200"/>
      <point x="289" y="312"/>
      <point x="289" y="421" type="curve" smooth="yes"/>
      <point x="289" y="480"/>
      <point x="270" y="551"/>
      <point x="245" y="597" type="curve"/>
      <point x="251" y="583" type="line"/>
      <point x="387" y="438"/>
      <point x="450" y="350"/>
      <point x="450" y="231" type="curve" smooth="yes"/>
      <point x="450" y="125"/>
      <point x="401" y="26"/>
    </contour>
  </outline>
</glyph>
<glyph name="ddhabeng" format="2">
  <advance width="534"/>
  <unicode hex="09A2"/>
  <outline>
    <contour>
      <point x="544" y="622" type="line"/>
      <point x="-10" y="622" type="line"/>
      <point x="-10" y="596" type="line"/>
      <point x="105" y="596" type="line"/>
      <point x="105" y="188" type="line" smooth="yes"/>
      <point x="105" y="117"/>
      <point x="114" y="84"/>
      <point x="144" y="60" type="curve" smooth="yes"/>
      <point x="161" y="47"/>
      <point x="185" y="40"/>
      <point x="214" y="40" type="curve" smooth="yes"/>
      <point x="280" y="40"/>
      <point x="338" y="71"/>
      <point x="383" y="118" type="curve" smooth="yes"/>
      <point x="437" y="175"/>
      <point x="471" y="255"/>
      <point x="471" y="329" type="curve" smooth="yes"/>
      <point x="471" y="421"/>
      <point x="409" y="450"/>
      <point x="358" y="450" type="curve" smooth="yes"/>
      <point x="338" y="450"/>
      <point x="311" y="447"/>
      <point x="289" y="440" type="curve"/>
      <point x="295" y="415" type="line"/>
      <point x="315" y="421"/>
      <point x="337" y="424"/>
      <point x="357" y="424" type="curve" smooth="yes"/>
      <point x="418" y="424"/>
      <point x="444" y="385"/>
      <point x="444" y="329" type="curve" smooth="yes"/>
      <point x="444" y="257"/>
      <point x="414" y="186"/>
      <point x="364" y="135" type="curve" smooth="yes"/>
      <point x="324" y="94"/>
      <point x="275" y="66"/>
      <point x="214" y="66" type="curve" smooth="yes"/>
      <point x="187" y="66"/>
      <point x="168" y="72"/>
      <point x="156" y="84" type="curve" smooth="yes"/>
      <point x="135" y="104"/>
      <point x="131" y="136"/>
      <point x="131" y="198" type="curve" smooth="yes"/>
      <point x="131" y="596" type="line"/>
      <point x="544" y="596" type="line"/>
    </contour>
  </outline>
</glyph>
<glyph name="nnabeng" format="2">
  <advance width="574"/>
  <unicode hex="09A3"/>
  <outline>
    <contour>
      <point x="584" y="622" type="line"/>
      <point x="469" y="622" type="line"/>
      <point x="464" y="676" type="line"/>
      <point x="443" y="676" type="line"/>
      <point x="443" y="546" type="line" smooth="yes"/>
      <point x="443" y="510"/>
      <point x="444" y="479"/>
      <point x="446" y="449" type="curve"/>
      <point x="464" y="441" type="line"/>
      <point x="385" y="561"/>
      <point x="314" y="629"/>
      <point x="203" y="629" type="curve" smooth="yes"/>
      <point x="106" y="629"/>
      <point x="43" y="561"/>
      <point x="43" y="478" type="curve" smooth="yes"/>
      <point x="43" y="364"/>
      <point x="136" y="313"/>
      <point x="250" y="300" type="curve"/>
      <point x="252" y="326" type="line"/>
      <point x="135" y="343"/>
      <point x="70" y="386"/>
      <point x="70" y="478" type="curve" smooth="yes"/>
      <point x="70" y="542"/>
      <point x="112" y="603"/>
      <point x="205" y="603" type="curve" smooth="yes"/>
      <point x="285" y="603"/>
      <point x="351" y="566"/>
      <point x="455" y="417" type="curve"/>
      <point x="443" y="445" type="line"/>
      <point x="443" y="0" type="line"/>
      <point x="469" y="0" type="line"/>
      <point x="469" y="596" type="line"/>
      <point x="584" y="596" type="line"/>
    </contour>
  </outline>
</glyph>
<glyph name="tabeng" format="2">
  <advance width="683"/>
  <unicode hex="09A4"/>
  <outline>
    <contour>
      <point x="399" y="85" type="curve" smooth="yes"/>
      <point x="559" y="85"/>
      <point x="616" y="192"/>
      <point x="616" y="302" type="curve" smooth="yes"/>
      <point x="616" y="434"/>
      <point x="534" y="514"/>
      <point x="424" y="514" type="curve" smooth="yes"/>
      <point x="354" y="514"/>
      <point x="293" y="473"/>
      <point x="293" y="398" type="curve" smooth="yes"/>
      <point x="293" y="373"/>
      <point x="300" y="344"/>
      <point x="310" y="321" type="curve"/>
      <point x="335" y="328" type="line"/>
      <point x="323" y="357"/>
      <point x="320" y="376"/>
      <point x="320" y="397" type="curve" smooth="yes"/>
      <point x="320" y="452"/>
      <point x="356" y="488"/>
      <point x="423" y="488" type="curve" smooth="yes"/>
      <point x="525" y="488"/>
      <point x="589" y="416"/>
      <point x="589" y="301" type="curve" smooth="yes"/>
      <point x="589" y="212"/>
      <point x="551" y="111"/>
      <point x="399" y="111" type="curve" smooth="yes"/>
      <point x="241" y="111"/>
      <point x="139" y="223"/>
      <point x="61" y="484" type="curve"/>
      <point x="35" y="477" type="line"/>
      <point x="121" y="189"/>
      <point x="239" y="85"/>
    </contour>
    <contour>
      <point x="693" y="622" type="line"/>
      <point x="-10" y="622" type="line"/>
      <point x="-10" y="596" type="line"/>
      <point x="693" y="596" type="line"/>
    </contour>
  </outline>
</glyph>
<glyph name="thabeng" format="2">
  <advance width="580"/>
  <unicode hex="09A5"/>
  <outline>
    <contour>
      <point x="590" y="622" type="line"/>
      <point x="475" y="622" type="line"/>
      <point x="470" y="676" type="line"/>
      <point x="449" y="676" type="line"/>
      <point x="449" y="136" type="line" smooth="yes"/>
      <point x="449" y="99"/>
      <point x="449" y="70"/>
      <point x="451" y="40" type="curve"/>
      <point x="404" y="138"/>
      <point x="292" y="250"/>
      <point x="115" y="292" type="curve"/>
      <point x="88" y="312" type="line"/>
      <point x="98" y="270" type="line"/>
      <point x="278" y="232"/>
      <point x="390" y="114"/>
      <point x="449" y="0" type="curve"/>
      <point x="475" y="0" type="line"/>
      <point x="475" y="596" type="line"/>
      <point x="590" y="596" type="line"/>
    </contour>
    <contour>
      <point x="184" y="625" type="curve" smooth="yes"/>
      <point x="95" y="625"/>
      <point x="41" y="570"/>
      <point x="41" y="506" type="curve" smooth="yes"/>
      <point x="41" y="462"/>
      <point x="58" y="435"/>
      <point x="100" y="406" type="curve"/>
      <point x="116" y="427" type="line"/>
      <point x="86" y="446"/>
      <point x="68" y="468"/>
      <point x="68" y="505" type="curve" smooth="yes"/>
      <point x="68" y="552"/>
      <point x="103" y="599"/>
      <point x="183" y="599" type="curve" smooth="yes"/>
      <point x="278" y="599"/>
      <point x="321" y="542"/>
      <point x="321" y="473" type="curve" smooth="yes"/>
      <point x="321" y="383"/>
      <point x="264" y="330"/>
      <point x="88" y="312" type="curve"/>
      <point x="102" y="284" type="line"/>
      <point x="109" y="290" type="line"/>
      <point x="261" y="309"/>
      <point x="348" y="355"/>
      <point x="348" y="474" type="curve" smooth="yes"/>
      <point x="348" y="550"/>
      <point x="297" y="625"/>
    </contour>
  </outline>
</glyph>
<glyph name="dabeng" format="2">
  <advance width="559"/>
  <unicode hex="09A6"/>
  <outline>
    <contour>
      <point x="569" y="622" type="line"/>
      <point x="-10" y="622" type="line"/>
      <point x="-10" y="596" type="line"/>
      <point x="88" y="596" type="line"/>
      <point x="88" y="205" type="line"/>
      <point x="113" y="189" type="line"/>
      <point x="227" y="307"/>
      <point x="343" y="407"/>
      <point x="480" y="472" type="curve"/>
      <point x="471" y="475" type="line"/>
      <point x="432" y="398"/>
      <point x="418" y="310"/>
      <point x="418" y="235" type="curve" smooth="yes"/>
      <point x="418" y="145"/>
      <point x="434" y="76"/>
      <point x="457" y="-3" type="curve"/>
      <point x="483" y="3" type="line"/>
      <point x="459" y="84"/>
      <point x="444" y="149"/>
      <point x="444" y="234" type="curve" smooth="yes"/>
      <point x="444" y="306"/>
      <point x="459" y="388"/>
      <point x="497" y="473" type="curve"/>
      <point x="472" y="495" type="line"/>
      <point x="329" y="426"/>
      <point x="206" y="325"/>
      <point x="101" y="211" type="curve"/>
      <point x="114" y="203" type="line"/>
      <point x="114" y="596" type="line"/>
      <point x="569" y="596" type="line"/>
    </contour>
  </outline>
</glyph>
<glyph name="dhabeng" format="2">
  <advance width="555"/>
  <unicode hex="09A7"/>
  <outline>
    <contour>
      <point x="565" y="622" type="line"/>
      <point x="424" y="622" type="line"/>
      <point x="424" y="526" type="line"/>
      <point x="443" y="543" type="line"/>
      <point x="294" y="488"/>
      <point x="167" y="419"/>
      <point x="41" y="336" type="curve"/>
      <point x="55" y="302" type="line"/>
      <point x="224" y="265"/>
      <point x="355" y="159"/>
      <point x="424" y="0" type="curve"/>
      <point x="450" y="0" type="line"/>
      <point x="450" y="596" type="line"/>
      <point x="565" y="596" type="line"/>
    </contour>
    <contour>
      <point x="424" y="520" type="line"/>
      <point x="424" y="167" type="line" smooth="yes"/>
      <point x="424" y="112"/>
      <point x="426" y="55"/>
      <point x="430" y="23" type="curve"/>
      <point x="436" y="21" type="line"/>
      <point x="371" y="197"/>
      <point x="211" y="291"/>
      <point x="70" y="325" type="curve"/>
      <point x="184" y="399"/>
      <point x="317" y="470"/>
      <point x="446" y="517" type="curve"/>
    </contour>
    <contour>
      <point x="245" y="629" type="curve" smooth="yes"/>
      <point x="174" y="629"/>
      <point x="133" y="586"/>
      <point x="133" y="536" type="curve" smooth="yes"/>
      <point x="133" y="488"/>
      <point x="161" y="455"/>
      <point x="227" y="422" type="curve"/>
      <point x="245" y="439" type="line"/>
      <point x="186" y="470"/>
      <point x="160" y="494"/>
      <point x="160" y="535" type="curve" smooth="yes"/>
      <point x="160" y="571"/>
      <point x="184" y="603"/>
      <point x="245" y="603" type="curve" smooth="yes"/>
      <point x="261" y="603"/>
      <point x="275" y="601"/>
      <point x="285" y="599" type="curve"/>
      <point x="287" y="625" type="line"/>
      <point x="273" y="628"/>
      <point x="261" y="629"/>
    </contour>
  </outline>
</glyph>
<glyph name="nabeng" format="2">
  <advance width="560"/>
  <unicode hex="09A8"/>
  <outline>
    <contour>
      <point x="570" y="622" type="line"/>
      <point x="-10" y="622" type="line"/>
      <point x="-10" y="596" type="line"/>
      <point x="429" y="596" type="line"/>
      <point x="429" y="344" type="line" smooth="yes"/>
      <point x="429" y="323"/>
      <point x="429" y="295"/>
      <point x="431" y="267" type="curve"/>
      <point x="451" y="258" type="line"/>
      <point x="385" y="340"/>
      <point x="307" y="424"/>
      <point x="187" y="424" type="curve" smooth="yes"/>
      <point x="109" y="424"/>
      <point x="53" y="376"/>
      <point x="53" y="299" type="curve" smooth="yes"/>
      <point x="53" y="228"/>
      <point x="99" y="187"/>
      <point x="175" y="154" type="curve"/>
      <point x="186" y="178" type="line"/>
      <point x="112" y="210"/>
      <point x="80" y="239"/>
      <point x="80" y="300" type="curve" smooth="yes"/>
      <point x="80" y="360"/>
      <point x="120" y="398"/>
      <point x="188" y="398" type="curve" smooth="yes"/>
      <point x="295" y="398"/>
      <point x="375" y="319"/>
      <point x="449" y="221" type="curve"/>
      <point x="429" y="255" type="line"/>
      <point x="429" y="0" type="line"/>
      <point x="455" y="0" type="line"/>
      <point x="455" y="596" type="line"/>
      <point x="570" y="596" type="line"/>
    </contour>
  </outline>
</glyph>
<glyph name="pabeng" format="2">
  <advance width="658"/>
  <unicode hex="09AA"/>
  <outline>
    <contour>
      <point x="668" y="622" type="line"/>
      <point x="553" y="622" type="line"/>
      <point x="548" y="676" type="line"/>
      <point x="527" y="676" type="line"/>
      <point x="527" y="528" type="line" smooth="yes"/>
      <point x="527" y="484"/>
      <point x="528" y="450"/>
      <point x="529" y="417" type="curve"/>
      <point x="542" y="411" type="line"/>
      <point x="444" y="555"/>
      <point x="379" y="629"/>
      <point x="269" y="629" type="curve" smooth="yes"/>
      <point x="178" y="629"/>
      <point x="92" y="559"/>
      <point x="22" y="462" type="curve"/>
      <point x="47" y="438" type="line"/>
      <point x="69" y="450"/>
      <point x="93" y="460"/>
      <point x="127" y="460" type="curve" smooth="yes"/>
      <point x="191" y="460"/>
      <point x="209" y="418"/>
      <point x="209" y="375" type="curve" smooth="yes"/>
      <point x="209" y="326"/>
      <point x="192" y="289"/>
      <point x="168" y="269" type="curve"/>
      <point x="186" y="279" type="line"/>
      <point x="210" y="307" type="line"/>
      <point x="164" y="267" type="line"/>
      <point x="183" y="248" type="line"/>
      <point x="463" y="507" type="line"/>
      <point x="447" y="527" type="line"/>
      <point x="281" y="373" type="line" smooth="yes"/>
      <point x="248" y="343"/>
      <point x="227" y="321"/>
      <point x="199" y="288" type="curve"/>
      <point x="202" y="287" type="line"/>
      <point x="229" y="316"/>
      <point x="235" y="346"/>
      <point x="235" y="377" type="curve" smooth="yes"/>
      <point x="235" y="437"/>
      <point x="199" y="486"/>
      <point x="128" y="486" type="curve" smooth="yes"/>
      <point x="96" y="486"/>
      <point x="66" y="475"/>
      <point x="40" y="457" type="curve"/>
      <point x="45" y="452" type="line"/>
      <point x="108" y="536"/>
      <point x="186" y="603"/>
      <point x="268" y="603" type="curve" smooth="yes"/>
      <point x="352" y="603"/>
      <point x="398" y="572"/>
      <point x="534" y="384" type="curve"/>
      <point x="527" y="412" type="line"/>
      <point x="527" y="0" type="line"/>
      <point x="553" y="0" type="line"/>
      <point x="553" y="596" type="line"/>
      <point x="668" y="596" type="line"/>
    </contour>
  </outline>
</glyph>
<glyph name="phabeng" format="2">
  <advance width="793"/>
  <unicode hex="09AB"/>
  <outline>
    <contour>
      <point x="803" y="622" type="line"/>
      <point x="-10" y="622" type="line"/>
      <point x="-10" y="596" type="line"/>
      <point x="59" y="596" type="line"/>
      <point x="58" y="597" type="line"/>
      <point x="48" y="574" type="line"/>
      <point x="159" y="537"/>
      <point x="236" y="496"/>
      <point x="313" y="443" type="curve"/>
      <point x="230" y="409"/>
      <point x="120" y="352"/>
      <point x="51" y="305" type="curve"/>
      <point x="66" y="274" type="line"/>
      <point x="262" y="225"/>
      <point x="365" y="124"/>
      <point x="448" y="0" type="curve"/>
      <point x="474" y="0" type="line"/>
      <point x="474" y="497" type="line"/>
      <point x="622" y="479"/>
      <point x="711" y="404"/>
      <point x="711" y="312" type="curve" smooth="yes"/>
      <point x="711" y="262"/>
      <point x="692" y="225"/>
      <point x="611" y="225" type="curve" smooth="yes"/>
      <point x="596" y="225"/>
      <point x="583" y="227"/>
      <point x="571" y="229" type="curve"/>
      <point x="569" y="203" type="line"/>
      <point x="583" y="200"/>
      <point x="593" y="199"/>
      <point x="611" y="199" type="curve" smooth="yes"/>
      <point x="701" y="199"/>
      <point x="738" y="245"/>
      <point x="738" y="312" type="curve" smooth="yes"/>
      <point x="738" y="360"/>
      <point x="716" y="403"/>
      <point x="685" y="434" type="curve" smooth="yes"/>
      <point x="624" y="496"/>
      <point x="518" y="523"/>
      <point x="451" y="523" type="curve" smooth="yes"/>
      <point x="448" y="523" type="line"/>
      <point x="448" y="120" type="line" smooth="yes"/>
      <point x="448" y="94"/>
      <point x="450" y="57"/>
      <point x="451" y="36" type="curve"/>
      <point x="392" y="129"/>
      <point x="282" y="247"/>
      <point x="76" y="297" type="curve"/>
      <point x="71" y="288" type="line"/>
      <point x="133" y="332"/>
      <point x="243" y="388"/>
      <point x="337" y="427" type="curve"/>
      <point x="334" y="458" type="line"/>
      <point x="262" y="510"/>
      <point x="166" y="565"/>
      <point x="59" y="597" type="curve"/>
      <point x="60" y="596" type="line"/>
      <point x="803" y="596" type="line"/>
    </contour>
  </outline>
</glyph>
<glyph name="bhabeng" format="2">
  <advance width="690"/>
  <unicode hex="09AD"/>
  <outline>
    <contour>
      <point x="401" y="78" type="curve" smooth="yes"/>
      <point x="557" y="78"/>
      <point x="620" y="177"/>
      <point x="620" y="288" type="curve" smooth="yes"/>
      <point x="620" y="359"/>
      <point x="594" y="429"/>
      <point x="539" y="493" type="curve"/>
      <point x="520" y="476" type="line"/>
      <point x="546" y="444"/>
      <point x="593" y="383"/>
      <point x="593" y="287" type="curve" smooth="yes"/>
      <point x="593" y="191"/>
      <point x="545" y="104"/>
      <point x="401" y="104" type="curve" smooth="yes"/>
      <point x="239" y="104"/>
      <point x="141" y="219"/>
      <point x="61" y="484" type="curve"/>
      <point x="35" y="477" type="line"/>
      <point x="124" y="186"/>
      <point x="234" y="78"/>
    </contour>
    <contour>
      <point x="347" y="314" type="curve" smooth="yes"/>
      <point x="436" y="314"/>
      <point x="496" y="374"/>
      <point x="534" y="469" type="curve"/>
      <point x="539" y="493" type="line"/>
      <point x="514" y="488" type="line"/>
      <point x="467" y="371"/>
      <point x="410" y="340"/>
      <point x="347" y="340" type="curve" smooth="yes"/>
      <point x="302" y="340"/>
      <point x="267" y="363"/>
      <point x="267" y="417" type="curve" smooth="yes"/>
      <point x="267" y="441"/>
      <point x="275" y="469"/>
      <point x="287" y="492" type="curve"/>
      <point x="262" y="500" type="line"/>
      <point x="250" y="477"/>
      <point x="240" y="448"/>
      <point x="240" y="417" type="curve" smooth="yes"/>
      <point x="240" y="353"/>
      <point x="285" y="314"/>
    </contour>
    <contour>
      <point x="700" y="622" type="line"/>
      <point x="-10" y="622" type="line"/>
      <point x="-10" y="596" type="line"/>
      <point x="700" y="596" type="line"/>
    </contour>
  </outline>
</glyph>
<glyph name="mabeng" format="2">
  <advance width="580"/>
  <unicode hex="09AE"/>
  <outline>
    <contour>
      <point x="590" y="622" type="line"/>
      <point x="-10" y="622" type="line"/>
      <point x="-10" y="596" type="line"/>
      <point x="449" y="596" type="line"/>
      <point x="449" y="267" type="line" smooth="yes"/>
      <point x="449" y="246"/>
      <point x="449" y="218"/>
      <point x="451" y="190" type="curve"/>
      <point x="472" y="180" type="line"/>
      <point x="404" y="266"/>
      <point x="327" y="365"/>
      <point x="207" y="365" type="curve" smooth="yes"/>
      <point x="126" y="365"/>
      <point x="73" y="314"/>
      <point x="73" y="238" type="curve" smooth="yes"/>
      <point x="73" y="159"/>
      <point x="126" y="116"/>
      <point x="211" y="82" type="curve"/>
      <point x="221" y="106" type="line"/>
      <point x="139" y="139"/>
      <point x="100" y="171"/>
      <point x="100" y="239" type="curve" smooth="yes"/>
      <point x="100" y="301"/>
      <point x="139" y="339"/>
      <point x="208" y="339" type="curve" smooth="yes"/>
      <point x="315" y="339"/>
      <point x="391" y="248"/>
      <point x="469" y="144" type="curve"/>
      <point x="449" y="178" type="line"/>
      <point x="449" y="0" type="line"/>
      <point x="475" y="0" type="line"/>
      <point x="475" y="596" type="line"/>
      <point x="590" y="596" type="line"/>
    </contour>
    <contour>
      <point x="252" y="347" type="curve" smooth="yes"/>
      <point x="252" y="465"/>
      <point x="228" y="569"/>
      <point x="45" y="597" type="curve"/>
      <point x="44" y="597" type="line"/>
      <point x="40" y="574" type="line"/>
      <point x="203" y="545"/>
      <point x="224" y="463"/>
      <point x="226" y="350" type="curve"/>
      <point x="251" y="335" type="line"/>
      <point x="252" y="340"/>
      <point x="252" y="342"/>
    </contour>
  </outline>
</glyph>
<glyph name="yabeng" format="2">
  <advance width="593"/>
  <unicode hex="09AF"/>
  <outline>
    <contour>
      <point x="603" y="622" type="line"/>
      <point x="-10" y="622" type="line"/>
      <point x="-10" y="596" type="line"/>
      <point x="59" y="596" type="line"/>
      <point x="58" y="597" type="line"/>
      <point x="48" y="574" type="line"/>
      <point x="159" y="537"/>
      <point x="236" y="496"/>
      <point x="313" y="443" type="curve"/>
      <point x="230" y="409"/>
      <point x="120" y="352"/>
      <point x="51" y="305" type="curve"/>
      <point x="66" y="274" type="line"/>
      <point x="269" y="227"/>
      <point x="375" y="129"/>
      <point x="462" y="0" type="curve"/>
      <point x="488" y="0" type="line"/>
      <point x="488" y="596" type="line"/>
      <point x="603" y="596" type="line"/>
    </contour>
    <contour>
      <point x="462" y="596" type="line"/>
      <point x="462" y="142" type="line" smooth="yes"/>
      <point x="462" y="108"/>
      <point x="463" y="60"/>
      <point x="467" y="25" type="curve"/>
      <point x="470" y="29" type="line"/>
      <point x="400" y="139"/>
      <point x="282" y="252"/>
      <point x="76" y="297" type="curve"/>
      <point x="71" y="288" type="line"/>
      <point x="133" y="332"/>
      <point x="243" y="388"/>
      <point x="337" y="427" type="curve"/>
      <point x="334" y="458" type="line"/>
      <point x="262" y="510"/>
      <point x="166" y="565"/>
      <point x="59" y="597" type="curve"/>
      <point x="60" y="596" type="line"/>
    </contour>
  </outline>
</glyph>
<glyph name="labeng" format="2">
  <advance width="682"/>
  <unicode hex="09B2"/>
  <outline>
    <contour>
      <point x="692" y="622" type="line"/>
      <point x="-10" y="622" type="line"/>
      <point x="-10" y="596" type="line"/>
      <point x="551" y="596" type="line"/>
      <point x="551" y="470" type="line" smooth="yes"/>
      <point x="551" y="439"/>
      <point x="551" y="409"/>
      <point x="553" y="385" type="curve"/>
      <point x="567" y="380" type="line"/>
      <point x="536" y="422"/>
      <point x="498" y="456"/>
      <point x="440" y="456" type="curve" smooth="yes"/>
      <point x="391" y="456"/>
      <point x="344" y="423"/>
      <point x="339" y="356" type="curve"/>
      <point x="345" y="359" type="line"/>
      <point x="325" y="422"/>
      <point x="270" y="477"/>
      <point x="188" y="477" type="curve" smooth="yes"/>
      <point x="103" y="477"/>
      <point x="53" y="423"/>
      <point x="53" y="349" type="curve" smooth="yes"/>
      <point x="53" y="254"/>
      <point x="128" y="204"/>
      <point x="201" y="178" type="curve"/>
      <point x="211" y="202" type="line"/>
      <point x="124" y="234"/>
      <point x="80" y="277"/>
      <point x="80" y="349" type="curve" smooth="yes"/>
      <point x="80" y="394"/>
      <point x="102" y="451"/>
      <point x="188" y="451" type="curve" smooth="yes"/>
      <point x="266" y="451"/>
      <point x="329" y="388"/>
      <point x="336" y="298" type="curve"/>
      <point x="362" y="299" type="line"/>
      <point x="361" y="311"/>
      <point x="360" y="326"/>
      <point x="360" y="340" type="curve" smooth="yes"/>
      <point x="360" y="404"/>
      <point x="402" y="430"/>
      <point x="441" y="430" type="curve" smooth="yes"/>
      <point x="490" y="430"/>
      <point x="527" y="399"/>
      <point x="561" y="348" type="curve"/>
      <point x="551" y="377" type="line"/>
      <point x="551" y="0" type="line"/>
      <point x="577" y="0" type="line"/>
      <point x="577" y="596" type="line"/>
      <point x="692" y="596" type="line"/>
    </contour>
  </outline>
</glyph>
<glyph name="ssabeng" format="2">
  <advance width="593"/>
  <unicode hex="09B7"/>
  <outline>
    <contour>
      <point x="603" y="622" type="line"/>
      <point x="-10" y="622" type="line"/>
      <point x="-10" y="596" type="line"/>
      <point x="462" y="596" type="line"/>
      <point x="462" y="412" type="line" smooth="yes"/>
      <point x="462" y="382"/>
      <point x="463" y="352"/>
      <point x="464" y="337" type="curve"/>
      <point x="462" y="330" type="line"/>
      <point x="462" y="142" type="line" smooth="yes"/>
      <point x="462" y="117"/>
      <point x="463" y="72"/>
      <point x="464" y="39" type="curve"/>
      <point x="394" y="148"/>
      <point x="267" y="256"/>
      <point x="83" y="296" type="curve"/>
      <point x="150" y="341"/>
      <point x="241" y="392"/>
      <point x="337" y="435" type="curve"/>
      <point x="333" y="445" type="line"/>
      <point x="320" y="453" type="line"/>
      <point x="227" y="414"/>
      <point x="139" y="363"/>
      <point x="51" y="305" type="curve"/>
      <point x="66" y="274" type="line"/>
      <point x="263" y="229"/>
      <point x="376" y="130"/>
      <point x="463" y="0" type="curve"/>
      <point x="488" y="0" type="line"/>
      <point x="488" y="596" type="line"/>
      <point x="603" y="596" type="line"/>
    </contour>
    <contour>
      <point x="58" y="597" type="line"/>
      <point x="48" y="574" type="line"/>
      <point x="226" y="514"/>
      <point x="364" y="424"/>
      <point x="479" y="299" type="curve"/>
      <point x="479" y="335" type="line"/>
      <point x="364" y="456"/>
      <point x="216" y="546"/>
      <point x="59" y="597" type="curve"/>
    </contour>
  </outline>
</glyph>
<glyph name="sabeng" format="2">
  <advance width="648"/>
  <unicode hex="09B8"/>
  <outline>
    <contour>
      <point x="658" y="622" type="line"/>
      <point x="-10" y="622" type="line"/>
      <point x="-10" y="596" type="line"/>
      <point x="517" y="596" type="line"/>
      <point x="517" y="448" type="line" smooth="yes"/>
      <point x="517" y="428"/>
      <point x="517" y="399"/>
      <point x="520" y="368" type="curve"/>
      <point x="538" y="365" type="line"/>
      <point x="496" y="433"/>
      <point x="463" y="463"/>
      <point x="421" y="463" type="curve" smooth="yes"/>
      <point x="371" y="463"/>
      <point x="341" y="425"/>
      <point x="298" y="330" type="curve"/>
      <point x="292" y="322" type="line"/>
      <point x="240" y="228"/>
      <point x="219" y="191"/>
      <point x="171" y="191" type="curve" smooth="yes"/>
      <point x="130" y="191"/>
      <point x="103" y="213"/>
      <point x="61" y="294" type="curve"/>
      <point x="38" y="281" type="line"/>
      <point x="88" y="186"/>
      <point x="128" y="165"/>
      <point x="170" y="165" type="curve" smooth="yes"/>
      <point x="229" y="165"/>
      <point x="257" y="204"/>
      <point x="313" y="309" type="curve" smooth="yes"/>
      <point x="367" y="411"/>
      <point x="383" y="437"/>
      <point x="422" y="437" type="curve" smooth="yes"/>
      <point x="461" y="437"/>
      <point x="501" y="387"/>
      <point x="539" y="317" type="curve"/>
      <point x="517" y="358" type="line"/>
      <point x="517" y="0" type="line"/>
      <point x="543" y="0" type="line"/>
      <point x="543" y="596" type="line"/>
      <point x="658" y="596" type="line"/>
    </contour>
    <contour>
      <point x="279" y="279" type="curve"/>
      <point x="303" y="300" type="line"/>
      <point x="300" y="506"/>
      <point x="240" y="556"/>
      <point x="44" y="596" type="curve"/>
      <point x="43" y="597" type="line"/>
      <point x="38" y="572" type="line"/>
      <point x="138" y="550"/>
      <point x="196" y="529"/>
      <point x="231" y="487" type="curve" smooth="yes"/>
      <point x="267" y="444"/>
      <point x="276" y="381"/>
    </contour>
  </outline>
</glyph>
<glyph name="nuktabeng" format="2">
  <unicode hex="09BC"/>
  <outline>
    <contour>
      <point x="-324" y="-156" type="curve" smooth="yes"/>
      <point x="-307" y="-156"/>
      <point x="-294" y="-144"/>
      <point x="-294" y="-118" type="curve" smooth="yes"/>
      <point x="-294" y="-95"/>
      <point x="-305" y="-80"/>
      <point x="-324" y="-80" type="curve" smooth="yes"/>
      <point x="-342" y="-80"/>
      <point x="-355" y="-94"/>
      <point x="-355" y="-118" type="curve" smooth="yes"/>
      <point x="-355" y="-143"/>
      <point x="-340" y="-156"/>
    </contour>
  </outline>
</glyph>
<glyph name="avagrahabeng" format="2">
  <advance width="502"/>
  <unicode hex="09BD"/>
  <outline>
    <contour>
      <point x="226" y="514" type="curve" smooth="yes"/>
      <point x="124" y="514"/>
      <point x="78" y="462"/>
      <point x="78" y="404" type="curve" smooth="yes"/>
      <point x="78" y="386"/>
      <point x="81" y="367"/>
      <point x="88" y="347" type="curve"/>
      <point x="114" y="353" type="line"/>
      <point x="109" y="363"/>
      <point x="105" y="385"/>
      <point x="105" y="402" type="curve" smooth="yes"/>
      <point x="105" y="445"/>
      <point x="131" y="488"/>
      <point x="227" y="488" type="curve" smooth="yes"/>
      <point x="332" y="488"/>
      <point x="400" y="438"/>
      <point x="400" y="353" type="curve" smooth="yes"/>
      <point x="400" y="264"/>
      <point x="348" y="205"/>
      <point x="197" y="205" type="curve" smooth="yes"/>
      <point x="153" y="205"/>
      <point x="105" y="214"/>
      <point x="62" y="228" type="curve"/>
      <point x="56" y="203" type="line"/>
      <point x="205" y="173"/>
      <point x="331" y="95"/>
      <point x="488" y="-34" type="curve"/>
      <point x="504" y="-14" type="line"/>
      <point x="403" y="71"/>
      <point x="272" y="162"/>
      <point x="175" y="188" type="curve"/>
      <point x="193" y="181" type="line"/>
      <point x="350" y="181"/>
      <point x="427" y="240"/>
      <point x="427" y="353" type="curve" smooth="yes"/>
      <point x="427" y="445"/>
      <point x="355" y="514"/>
    </contour>
    <contour>
      <point x="235" y="622" type="line"/>
      <point x="-10" y="622" type="line"/>
      <point x="-10" y="596" type="line"/>
      <point x="207" y="596" type="line"/>
      <point x="207" y="497" type="line"/>
      <point x="235" y="499" type="line"/>
    </contour>
  </outline>
</glyph>
<glyph name="aavowelsignbeng" format="2">
  <advance width="236"/>
  <unicode hex="09BE"/>
  <outline>
    <contour>
      <point x="246" y="622" type="line"/>
      <point x="131" y="622" type="line"/>
      <point x="126" y="676" type="line"/>
      <point x="105" y="676" type="line"/>
      <point x="105" y="613" type="line" smooth="yes"/>
      <point x="105" y="588"/>
      <point x="105" y="563"/>
      <point x="107" y="549" type="curve"/>
      <point x="77" y="608"/>
      <point x="43" y="622"/>
      <point x="7" y="622" type="curve" smooth="yes"/>
      <point x="-10" y="622" type="line"/>
      <point x="-10" y="596" type="line"/>
      <point x="2" y="596" type="line" smooth="yes"/>
      <point x="50" y="596"/>
      <point x="73" y="570"/>
      <point x="105" y="513" type="curve"/>
      <point x="105" y="0" type="line"/>
      <point x="131" y="0" type="line"/>
      <point x="131" y="596" type="line"/>
      <point x="246" y="596" type="line"/>
    </contour>
  </outline>
</glyph>
<glyph name="ivowelsignbeng" format="2">
  <advance width="236"/>
  <unicode hex="09BF"/>
  <outline>
    <contour>
      <point x="246" y="622" type="line"/>
      <point x="130" y="622" type="line"/>
      <point x="95" y="656"/>
      <point x="76" y="677"/>
      <point x="55" y="705" type="curve"/>
      <point x="111" y="805"/>
      <point x="192" y="891"/>
      <point x="295" y="891" type="curve" smooth="yes"/>
      <point x="414" y="891"/>
      <point x="519" y="810"/>
      <point x="645" y="693" type="curve"/>
      <point x="663" y="712" type="line"/>
      <point x="552" y="815"/>
      <point x="434" y="917"/>
      <point x="296" y="917" type="curve" smooth="yes"/>
      <point x="170" y="917"/>
      <point x="80" y="807"/>
      <point x="24" y="704" type="curve"/>
      <point x="46" y="672"/>
      <point x="70" y="647"/>
      <point x="97" y="622" type="curve"/>
      <point x="-10" y="622" type="line"/>
      <point x="-10" y="596" type="line"/>
      <point x="105" y="596" type="line"/>
      <point x="105" y="0" type="line"/>
      <point x="131" y="0" type="line"/>
      <point x="131" y="596" type="line"/>
      <point x="246" y="596" type="line"/>
    </contour>
  </outline>
</glyph>
<glyph name="iivowelsignbeng" format="2">
  <advance width="236"/>
  <unicode hex="09C0"/>
  <outline>
    <contour>
      <point x="246" y="596" type="line"/>
      <point x="246" y="622" type="line"/>
      <point x="131" y="622" type="line"/>
      <point x="127" y="814"/>
      <point x="-10" y="917"/>
      <point x="-261" y="917" type="curve" smooth="yes"/>
      <point x="-430" y="917"/>
      <point x="-502" y="869"/>
      <point x="-502" y="808" type="curve" smooth="yes"/>
      <point x="-502" y="790"/>
      <point x="-496" y="774"/>
      <point x="-485" y="762" type="curve" smooth="yes"/>
      <point x="-466" y="741"/>
      <point x="-432" y="735"/>
      <point x="-386" y="735" type="curve" smooth="yes"/>
      <point x="-264" y="735" type="line" smooth="yes"/>
      <point x="-199" y="735"/>
      <point x="-173" y="724"/>
      <point x="-155" y="704" type="curve" smooth="yes"/>
      <point x="-137" y="684"/>
      <point x="-132" y="652"/>
      <point x="-130" y="615" type="curve"/>
      <point x="-104" y="615" type="line"/>
      <point x="-104" y="662"/>
      <point x="-115" y="700"/>
      <point x="-136" y="722" type="curve" smooth="yes"/>
      <point x="-163" y="751"/>
      <point x="-200" y="761"/>
      <point x="-265" y="761" type="curve" smooth="yes"/>
      <point x="-391" y="761" type="line" smooth="yes"/>
      <point x="-447" y="761"/>
      <point x="-475" y="770"/>
      <point x="-475" y="808" type="curve" smooth="yes"/>
      <point x="-475" y="856"/>
      <point x="-410" y="891"/>
      <point x="-261" y="891" type="curve" smooth="yes"/>
      <point x="-51" y="891"/>
      <point x="100" y="819"/>
      <point x="105" y="622" type="curve"/>
      <point x="-10" y="622" type="line"/>
      <point x="-10" y="596" type="line"/>
      <point x="105" y="596" type="line"/>
      <point x="105" y="0" type="line"/>
      <point x="131" y="0" type="line"/>
      <point x="131" y="596" type="line"/>
    </contour>
  </outline>
</glyph>
<glyph name="uvowelsignbeng" format="2">
  <unicode hex="09C1"/>
  <outline>
    <contour>
      <point x="-270" y="-258" type="curve" smooth="yes"/>
      <point x="-127" y="-258"/>
      <point x="-105" y="-116"/>
      <point x="-105" y="-51" type="curve" smooth="yes"/>
      <point x="-105" y="8" type="line"/>
      <point x="-131" y="8" type="line"/>
      <point x="-131" y="-53" type="line" smooth="yes"/>
      <point x="-131" y="-102"/>
      <point x="-143" y="-232"/>
      <point x="-270" y="-232" type="curve" smooth="yes"/>
      <point x="-323" y="-232"/>
      <point x="-359" y="-209"/>
      <point x="-359" y="-157" type="curve" smooth="yes"/>
      <point x="-359" y="-120"/>
      <point x="-335" y="-82"/>
      <point x="-258" y="-82" type="curve" smooth="yes"/>
      <point x="-149" y="-82"/>
      <point x="-73" y="-141"/>
      <point x="65" y="-266" type="curve"/>
      <point x="83" y="-247" type="line"/>
      <point x="-55" y="-122"/>
      <point x="-153" y="-56"/>
      <point x="-258" y="-56" type="curve" smooth="yes"/>
      <point x="-342" y="-56"/>
      <point x="-386" y="-101"/>
      <point x="-386" y="-157" type="curve" smooth="yes"/>
      <point x="-386" y="-228"/>
      <point x="-332" y="-258"/>
    </contour>
  </outline>
</glyph>
<glyph name="uuvowelsignbeng" format="2">
  <unicode hex="09C2"/>
  <outline>
    <contour>
      <point x="-164" y="-232" type="curve" smooth="yes"/>
      <point x="-97" y="-232"/>
      <point x="-52" y="-195"/>
      <point x="-14" y="-157" type="curve"/>
      <point x="31" y="-182"/>
      <point x="94" y="-225"/>
      <point x="144" y="-266" type="curve"/>
      <point x="161" y="-246" type="line"/>
      <point x="106" y="-201"/>
      <point x="33" y="-152"/>
      <point x="-20" y="-125" type="curve"/>
      <point x="-67" y="-180"/>
      <point x="-110" y="-206"/>
      <point x="-164" y="-206" type="curve" smooth="yes"/>
      <point x="-212" y="-206"/>
      <point x="-242" y="-189"/>
      <point x="-242" y="-142" type="curve" smooth="yes"/>
      <point x="-242" y="-97"/>
      <point x="-204" y="-72"/>
      <point x="-136" y="-72" type="curve" smooth="yes"/>
      <point x="-131" y="-72"/>
      <point x="-126" y="-72"/>
      <point x="-120" y="-72" type="curve"/>
      <point x="-105" y="-54" type="line"/>
      <point x="-105" y="8" type="line"/>
      <point x="-131" y="8" type="line"/>
      <point x="-131" y="-46" type="line"/>
      <point x="-223" y="-46"/>
      <point x="-268" y="-86"/>
      <point x="-268" y="-142" type="curve" smooth="yes"/>
      <point x="-268" y="-208"/>
      <point x="-222" y="-232"/>
    </contour>
  </outline>
</glyph>
<glyph name="rrvocalicvowelsignbeng" format="2">
  <unicode hex="09C4"/>
  <outline>
    <contour>
      <point x="-336" y="-98" type="curve"/>
      <point x="-322" y="-131" type="line"/>
      <point x="-253" y="-140"/>
      <point x="-198" y="-153"/>
      <point x="-142" y="-176" type="curve" smooth="yes"/>
      <point x="-93" y="-196"/>
      <point x="-44" y="-224"/>
      <point x="16" y="-262" type="curve"/>
      <point x="29" y="-240" type="line"/>
      <point x="-80" y="-171"/>
      <point x="-174" y="-123"/>
      <point x="-323" y="-106" type="curve"/>
      <point x="-323" y="-118" type="line"/>
      <point x="-260" y="-84"/>
      <point x="-185" y="-48"/>
      <point x="-98" y="-13" type="curve"/>
      <point x="-108" y="10" type="line"/>
      <point x="-197" y="-27"/>
      <point x="-266" y="-60"/>
    </contour>
    <contour>
      <point x="-336" y="-256" type="curve"/>
      <point x="-322" y="-289" type="line"/>
      <point x="-213" y="-303"/>
      <point x="-138" y="-331"/>
      <point x="-41" y="-386" type="curve"/>
      <point x="-28" y="-364" type="line"/>
      <point x="-115" y="-314"/>
      <point x="-201" y="-278"/>
      <point x="-323" y="-264" type="curve"/>
      <point x="-323" y="-276" type="line"/>
      <point x="-264" y="-244"/>
      <point x="-196" y="-208"/>
      <point x="-115" y="-178" type="curve"/>
      <point x="-135" y="-161" type="line"/>
      <point x="-211" y="-192"/>
      <point x="-273" y="-222"/>
    </contour>
  </outline>
</glyph>
<glyph name="evowelsignbeng" format="2">
  <advance width="309"/>
  <unicode hex="09C7"/>
  <outline>
    <contour>
      <point x="319" y="622" type="line"/>
      <point x="-10" y="622" type="line"/>
      <point x="-10" y="596" type="line"/>
      <point x="174" y="596" type="line" smooth="yes"/>
      <point x="198" y="596"/>
      <point x="244" y="596"/>
      <point x="280" y="600" type="curve"/>
      <point x="282" y="611" type="line"/>
      <point x="160" y="555"/>
      <point x="59" y="429"/>
      <point x="59" y="257" type="curve" smooth="yes"/>
      <point x="59" y="87"/>
      <point x="136" y="-5"/>
      <point x="249" y="-5" type="curve" smooth="yes"/>
      <point x="288" y="-5"/>
      <point x="312" y="0"/>
      <point x="344" y="16" type="curve"/>
      <point x="331" y="39" type="line"/>
      <point x="306" y="27"/>
      <point x="286" y="21"/>
      <point x="250" y="21" type="curve" smooth="yes"/>
      <point x="151" y="21"/>
      <point x="86" y="100"/>
      <point x="86" y="257" type="curve" smooth="yes"/>
      <point x="86" y="425"/>
      <point x="185" y="540"/>
      <point x="299" y="596" type="curve"/>
      <point x="319" y="596" type="line"/>
    </contour>
  </outline>
</glyph>
<glyph name="aivowelsignbeng" format="2">
  <advance width="309"/>
  <unicode hex="09C8"/>
  <outline>
    <contour>
      <point x="293" y="622" type="curve"/>
      <point x="319" y="622" type="line"/>
      <point x="316" y="679"/>
      <point x="300" y="713"/>
      <point x="268" y="733" type="curve" smooth="yes"/>
      <point x="247" y="746"/>
      <point x="222" y="752"/>
      <point x="179" y="752" type="curve" smooth="yes"/>
      <point x="174" y="752" type="line" smooth="yes"/>
      <point x="100" y="752"/>
      <point x="63" y="759"/>
      <point x="40" y="785" type="curve" smooth="yes"/>
      <point x="25" y="802"/>
      <point x="17" y="828"/>
      <point x="17" y="863" type="curve" smooth="yes"/>
      <point x="17" y="877"/>
      <point x="18" y="893"/>
      <point x="21" y="910" type="curve"/>
      <point x="-6" y="912" type="line"/>
      <point x="-9" y="895"/>
      <point x="-10" y="878"/>
      <point x="-10" y="862" type="curve" smooth="yes"/>
      <point x="-10" y="825"/>
      <point x="-1" y="795"/>
      <point x="15" y="774" type="curve" smooth="yes"/>
      <point x="46" y="734"/>
      <point x="101" y="726"/>
      <point x="176" y="726" type="curve" smooth="yes"/>
      <point x="180" y="726" type="line" smooth="yes"/>
      <point x="269" y="726"/>
      <point x="289" y="690"/>
    </contour>
    <component base="evowelsignbeng"/>
  </outline>
</glyph>
<glyph name="viramabeng" format="2">
  <unicode hex="09CD"/>
  <outline>
    <contour>
      <point x="-114" y="-21" type="line"/>
      <point x="-131" y="-41" type="line"/>
      <point x="98" y="-234" type="line"/>
      <point x="115" y="-215" type="line"/>
    </contour>
  </outline>
</glyph>
<glyph name="khandatabeng" format="2">
  <advance width="480"/>
  <unicode hex="09CE"/>
  <outline>
    <contour>
      <point x="258" y="628" type="curve" smooth="yes"/>
      <point x="132" y="628"/>
      <point x="60" y="531"/>
      <point x="60" y="436" type="curve" smooth="yes"/>
      <point x="60" y="312"/>
      <point x="132" y="256"/>
      <point x="281" y="189" type="curve" smooth="yes"/>
      <point x="441" y="117"/>
      <point x="455" y="76"/>
      <point x="481" y="-12" type="curve"/>
      <point x="506" y="-6" type="line"/>
      <point x="481" y="88"/>
      <point x="470" y="132"/>
      <point x="291" y="213" type="curve" smooth="yes"/>
      <point x="135" y="283"/>
      <point x="87" y="334"/>
      <point x="87" y="436" type="curve" smooth="yes"/>
      <point x="87" y="523"/>
      <point x="149" y="602"/>
      <point x="258" y="602" type="curve" smooth="yes"/>
      <point x="331" y="602"/>
      <point x="376" y="564"/>
      <point x="376" y="494" type="curve" smooth="yes"/>
      <point x="376" y="416"/>
      <point x="319" y="395"/>
      <point x="263" y="395" type="curve" smooth="yes"/>
      <point x="216" y="395"/>
      <point x="172" y="408"/>
      <point x="126" y="438" type="curve"/>
      <point x="116" y="414" type="line"/>
      <point x="160" y="387"/>
      <point x="208" y="369"/>
      <point x="260" y="369" type="curve" smooth="yes"/>
      <point x="340" y="369"/>
      <point x="403" y="406"/>
      <point x="403" y="496" type="curve" smooth="yes"/>
      <point x="403" y="569"/>
      <point x="353" y="628"/>
    </contour>
  </outline>
</glyph>
<glyph name="lvocalicvowelsignbeng" format="2">
  <unicode hex="09E2"/>
  <outline>
    <contour>
      <point x="-227" y="-136" type="curve" smooth="yes"/>
      <point x="-284" y="-136"/>
      <point x="-311" y="-167"/>
      <point x="-311" y="-201" type="curve" smooth="yes"/>
      <point x="-311" y="-215"/>
      <point x="-308" y="-230"/>
      <point x="-304" y="-240" type="curve"/>
      <point x="-279" y="-235" type="line"/>
      <point x="-283" y="-225"/>
      <point x="-285" y="-215"/>
      <point x="-285" y="-204" type="curve" smooth="yes"/>
      <point x="-285" y="-175"/>
      <point x="-265" y="-161"/>
      <point x="-227" y="-161" type="curve" smooth="yes"/>
      <point x="-188" y="-161"/>
      <point x="-167" y="-182"/>
      <point x="-167" y="-212" type="curve" smooth="yes"/>
      <point x="-167" y="-245"/>
      <point x="-180" y="-266"/>
      <point x="-222" y="-285" type="curve"/>
      <point x="-216" y="-309" type="line"/>
      <point x="-204" y="-309" type="line" smooth="yes"/>
      <point x="-85" y="-309"/>
      <point x="3" y="-273"/>
      <point x="3" y="-185" type="curve" smooth="yes"/>
      <point x="3" y="-134"/>
      <point x="-23" y="-98"/>
      <point x="-125" y="-67" type="curve" smooth="yes"/>
      <point x="-208" y="-42"/>
      <point x="-213" y="-39"/>
      <point x="-213" y="-18" type="curve" smooth="yes"/>
      <point x="-213" y="-12"/>
      <point x="-211" y="-4"/>
      <point x="-206" y="7" type="curve"/>
      <point x="-231" y="12" type="line"/>
      <point x="-236" y="-1"/>
      <point x="-239" y="-12"/>
      <point x="-239" y="-23" type="curve" smooth="yes"/>
      <point x="-239" y="-58"/>
      <point x="-218" y="-64"/>
      <point x="-133" y="-90" type="curve" smooth="yes"/>
      <point x="-37" y="-120"/>
      <point x="-23" y="-150"/>
      <point x="-23" y="-187" type="curve" smooth="yes"/>
      <point x="-23" y="-246"/>
      <point x="-70" y="-280"/>
      <point x="-199" y="-287" type="curve"/>
      <point x="-200" y="-295" type="line"/>
      <point x="-158" y="-277"/>
      <point x="-141" y="-248"/>
      <point x="-141" y="-210" type="curve" smooth="yes"/>
      <point x="-141" y="-174"/>
      <point x="-166" y="-136"/>
    </contour>
  </outline>
</glyph>
<glyph name="zerobeng" format="2">
  <advance width="592"/>
  <unicode hex="09E6"/>
  <outline>
    <contour>
      <point x="296" y="101" type="curve" smooth="yes"/>
      <point x="430" y="101"/>
      <point x="510" y="199"/>
      <point x="510" y="318" type="curve" smooth="yes"/>
      <point x="510" y="436"/>
      <point x="432" y="534"/>
      <point x="296" y="534" type="curve" smooth="yes"/>
      <point x="162" y="534"/>
      <point x="82" y="436"/>
      <point x="82" y="317" type="curve" smooth="yes"/>
      <point x="82" y="199"/>
      <point x="160" y="101"/>
    </contour>
    <contour>
      <point x="296" y="508" type="curve" smooth="yes"/>
      <point x="416" y="508"/>
      <point x="483" y="425"/>
      <point x="483" y="317" type="curve" smooth="yes"/>
      <point x="483" y="211"/>
      <point x="416" y="127"/>
      <point x="296" y="127" type="curve" smooth="yes"/>
      <point x="176" y="127"/>
      <point x="109" y="210"/>
      <point x="109" y="317" type="curve" smooth="yes"/>
      <point x="109" y="424"/>
      <point x="176" y="508"/>
    </contour>
  </outline>
</glyph>
<glyph name="onebeng" format="2">
  <advance width="592"/>
  <unicode hex="09E7"/>
  <outline>
    <contour>
      <point x="281" y="0" type="curve" smooth="yes"/>
      <point x="388" y="0"/>
      <point x="469" y="67"/>
      <point x="469" y="171" type="curve" smooth="yes"/>
      <point x="469" y="265"/>
      <point x="423" y="310"/>
      <point x="311" y="391" type="curve" smooth="yes"/>
      <point x="183" y="484"/>
      <point x="168" y="500"/>
      <point x="168" y="542" type="curve" smooth="yes"/>
      <point x="168" y="567"/>
      <point x="179" y="586"/>
      <point x="205" y="617" type="curve"/>
      <point x="183" y="631" type="line"/>
      <point x="154" y="596"/>
      <point x="141" y="571"/>
      <point x="141" y="543" type="curve" smooth="yes"/>
      <point x="141" y="486"/>
      <point x="181" y="451"/>
      <point x="297" y="369" type="curve" smooth="yes"/>
      <point x="415" y="286"/>
      <point x="442" y="242"/>
      <point x="442" y="172" type="curve" smooth="yes"/>
      <point x="442" y="85"/>
      <point x="380" y="26"/>
      <point x="281" y="26" type="curve" smooth="yes"/>
      <point x="201" y="26"/>
      <point x="155" y="59"/>
      <point x="155" y="112" type="curve" smooth="yes"/>
      <point x="155" y="162"/>
      <point x="183" y="186"/>
      <point x="244" y="206" type="curve"/>
      <point x="235" y="230" type="line"/>
      <point x="162" y="205"/>
      <point x="128" y="172"/>
      <point x="128" y="112" type="curve" smooth="yes"/>
      <point x="128" y="45"/>
      <point x="186" y="0"/>
    </contour>
  </outline>
</glyph>
<glyph name="twobeng" format="2">
  <advance width="592"/>
  <unicode hex="09E8"/>
  <outline>
    <contour>
      <point x="150" y="550" type="curve" smooth="yes"/>
      <point x="150" y="498"/>
      <point x="195" y="475"/>
      <point x="307" y="452" type="curve" smooth="yes"/>
      <point x="413" y="430"/>
      <point x="449" y="401"/>
      <point x="449" y="335" type="curve" smooth="yes"/>
      <point x="449" y="261"/>
      <point x="394" y="212"/>
      <point x="250" y="212" type="curve" smooth="yes"/>
      <point x="190" y="212"/>
      <point x="135" y="222"/>
      <point x="92" y="237" type="curve"/>
      <point x="86" y="212" type="line"/>
      <point x="252" y="175"/>
      <point x="370" y="99"/>
      <point x="513" y="-21" type="curve"/>
      <point x="529" y="-1" type="line"/>
      <point x="443" y="73"/>
      <point x="332" y="154"/>
      <point x="222" y="192" type="curve"/>
      <point x="205" y="193" type="line"/>
      <point x="217" y="191"/>
      <point x="229" y="187"/>
      <point x="252" y="187" type="curve" smooth="yes"/>
      <point x="411" y="187"/>
      <point x="476" y="248"/>
      <point x="476" y="336" type="curve" smooth="yes"/>
      <point x="476" y="411"/>
      <point x="433" y="452"/>
      <point x="314" y="477" type="curve" smooth="yes"/>
      <point x="210" y="499"/>
      <point x="177" y="514"/>
      <point x="177" y="550" type="curve" smooth="yes"/>
      <point x="177" y="571"/>
      <point x="188" y="589"/>
      <point x="211" y="616" type="curve"/>
      <point x="189" y="631" type="line"/>
      <point x="161" y="596"/>
      <point x="150" y="575"/>
    </contour>
  </outline>
</glyph>
<glyph name="threebeng" format="2">
  <advance width="592"/>
  <unicode hex="09E9"/>
  <outline>
    <contour>
      <point x="539" y="296" type="curve" smooth="yes"/>
      <point x="539" y="460"/>
      <point x="443" y="570"/>
      <point x="340" y="570" type="curve" smooth="yes"/>
      <point x="283" y="570"/>
      <point x="231" y="533"/>
      <point x="231" y="465" type="curve" smooth="yes"/>
      <point x="231" y="437"/>
      <point x="238" y="409"/>
      <point x="252" y="379" type="curve"/>
      <point x="278" y="386" type="line"/>
      <point x="263" y="415"/>
      <point x="258" y="441"/>
      <point x="258" y="465" type="curve" smooth="yes"/>
      <point x="258" y="514"/>
      <point x="288" y="544"/>
      <point x="342" y="544" type="curve" smooth="yes"/>
      <point x="427" y="544"/>
      <point x="512" y="446"/>
      <point x="512" y="296" type="curve" smooth="yes"/>
      <point x="512" y="185"/>
      <point x="470" y="74"/>
      <point x="343" y="74" type="curve" smooth="yes"/>
      <point x="208" y="74"/>
      <point x="127" y="192"/>
      <point x="67" y="512" type="curve"/>
      <point x="41" y="506" type="line"/>
      <point x="106" y="155"/>
      <point x="202" y="48"/>
      <point x="344" y="48" type="curve" smooth="yes"/>
      <point x="483" y="48"/>
      <point x="539" y="169"/>
    </contour>
  </outline>
</glyph>
<glyph name="fourbeng" format="2">
  <advance width="592"/>
  <unicode hex="09EA"/>
  <outline>
    <contour>
      <point x="296" y="0" type="curve" smooth="yes"/>
      <point x="433" y="0"/>
      <point x="510" y="61"/>
      <point x="510" y="164" type="curve" smooth="yes"/>
      <point x="510" y="251"/>
      <point x="446" y="300"/>
      <point x="307" y="334" type="curve"/>
      <point x="307" y="320" type="line"/>
      <point x="423" y="348"/>
      <point x="499" y="386"/>
      <point x="499" y="478" type="curve" smooth="yes"/>
      <point x="499" y="559"/>
      <point x="436" y="622"/>
      <point x="295" y="622" type="curve" smooth="yes"/>
      <point x="172" y="622"/>
      <point x="95" y="566"/>
      <point x="95" y="479" type="curve" smooth="yes"/>
      <point x="95" y="397"/>
      <point x="166" y="349"/>
      <point x="288" y="321" type="curve"/>
      <point x="289" y="333" type="line"/>
      <point x="135" y="301"/>
      <point x="82" y="243"/>
      <point x="82" y="162" type="curve" smooth="yes"/>
      <point x="82" y="68"/>
      <point x="164" y="0"/>
    </contour>
    <contour>
      <point x="296" y="26" type="curve" smooth="yes"/>
      <point x="174" y="26"/>
      <point x="109" y="86"/>
      <point x="109" y="164" type="curve" smooth="yes"/>
      <point x="109" y="239"/>
      <point x="167" y="282"/>
      <point x="297" y="315" type="curve"/>
      <point x="407" y="285"/>
      <point x="483" y="244"/>
      <point x="483" y="165" type="curve" smooth="yes"/>
      <point x="483" y="78"/>
      <point x="425" y="26"/>
    </contour>
    <contour>
      <point x="297" y="340" type="curve"/>
      <point x="170" y="375"/>
      <point x="122" y="418"/>
      <point x="122" y="479" type="curve" smooth="yes"/>
      <point x="122" y="552"/>
      <point x="185" y="596"/>
      <point x="295" y="596" type="curve" smooth="yes"/>
      <point x="420" y="596"/>
      <point x="472" y="546"/>
      <point x="472" y="479" type="curve" smooth="yes"/>
      <point x="472" y="412"/>
      <point x="417" y="369"/>
    </contour>
  </outline>
</glyph>
<glyph name="fivebeng" format="2">
  <advance width="592"/>
  <unicode hex="09EB"/>
  <outline>
    <contour>
      <point x="310" y="0" type="curve" smooth="yes"/>
      <point x="408" y="0"/>
      <point x="477" y="31"/>
      <point x="535" y="75" type="curve"/>
      <point x="524" y="105" type="line"/>
      <point x="515" y="104"/>
      <point x="505" y="103"/>
      <point x="494" y="103" type="curve" smooth="yes"/>
      <point x="387" y="103"/>
      <point x="353" y="150"/>
      <point x="353" y="208" type="curve" smooth="yes"/>
      <point x="353" y="299"/>
      <point x="458" y="378"/>
      <point x="557" y="431" type="curve"/>
      <point x="544" y="454" type="line"/>
      <point x="539" y="453"/>
      <point x="525" y="451"/>
      <point x="515" y="451" type="curve" smooth="yes"/>
      <point x="455" y="451"/>
      <point x="415" y="478"/>
      <point x="415" y="527" type="curve" smooth="yes"/>
      <point x="415" y="558"/>
      <point x="425" y="581"/>
      <point x="443" y="604" type="curve"/>
      <point x="423" y="629" type="line"/>
      <point x="213" y="526"/>
      <point x="60" y="408"/>
      <point x="60" y="242" type="curve" smooth="yes"/>
      <point x="60" y="87"/>
      <point x="173" y="0"/>
    </contour>
    <contour>
      <point x="311" y="26" type="curve" smooth="yes"/>
      <point x="197" y="26"/>
      <point x="87" y="91"/>
      <point x="87" y="243" type="curve" smooth="yes"/>
      <point x="87" y="382"/>
      <point x="203" y="489"/>
      <point x="424" y="602" type="curve"/>
      <point x="422" y="612" type="line"/>
      <point x="401" y="587"/>
      <point x="388" y="561"/>
      <point x="388" y="527" type="curve" smooth="yes"/>
      <point x="388" y="473"/>
      <point x="423" y="426"/>
      <point x="529" y="428" type="curve"/>
      <point x="531" y="442" type="line"/>
      <point x="407" y="379"/>
      <point x="326" y="296"/>
      <point x="326" y="208" type="curve" smooth="yes"/>
      <point x="326" y="134"/>
      <point x="372" y="78"/>
      <point x="499" y="78" type="curve"/>
      <point x="517" y="89" type="line"/>
      <point x="443" y="45"/>
      <point x="393" y="26"/>
    </contour>
  </outline>
</glyph>
<glyph name="sixbeng" format="2">
  <advance width="592"/>
  <unicode hex="09EC"/>
  <outline>
    <contour>
      <point x="345" y="48" type="curve" smooth="yes"/>
      <point x="462" y="48"/>
      <point x="544" y="129"/>
      <point x="544" y="266" type="curve" smooth="yes"/>
      <point x="544" y="335"/>
      <point x="519" y="393"/>
      <point x="484" y="448" type="curve"/>
      <point x="462" y="442" type="line"/>
      <point x="418" y="328"/>
      <point x="379" y="295"/>
      <point x="333" y="295" type="curve" smooth="yes"/>
      <point x="294" y="295"/>
      <point x="284" y="322"/>
      <point x="284" y="373" type="curve" smooth="yes"/>
      <point x="284" y="482" type="line" smooth="yes"/>
      <point x="284" y="529"/>
      <point x="278" y="550"/>
      <point x="260" y="567" type="curve" smooth="yes"/>
      <point x="244" y="583"/>
      <point x="219" y="590"/>
      <point x="186" y="592" type="curve"/>
      <point x="183" y="566" type="line"/>
      <point x="252" y="564"/>
      <point x="258" y="538"/>
      <point x="258" y="481" type="curve" smooth="yes"/>
      <point x="258" y="369" type="line" smooth="yes"/>
      <point x="258" y="331"/>
      <point x="264" y="300"/>
      <point x="289" y="282" type="curve" smooth="yes"/>
      <point x="300" y="274"/>
      <point x="315" y="269"/>
      <point x="335" y="269" type="curve" smooth="yes"/>
      <point x="397" y="269"/>
      <point x="446" y="323"/>
      <point x="486" y="435" type="curve"/>
      <point x="467" y="426" type="line"/>
      <point x="498" y="377"/>
      <point x="517" y="327"/>
      <point x="517" y="265" type="curve" smooth="yes"/>
      <point x="517" y="136"/>
      <point x="442" y="74"/>
      <point x="345" y="74" type="curve" smooth="yes"/>
      <point x="226" y="74"/>
      <point x="135" y="152"/>
      <point x="62" y="472" type="curve"/>
      <point x="36" y="466" type="line"/>
      <point x="112" y="131"/>
      <point x="215" y="48"/>
    </contour>
  </outline>
</glyph>
<glyph name="sevenbeng" format="2">
  <advance width="592"/>
  <unicode hex="09ED"/>
  <outline>
    <contour>
      <point x="409" y="316" type="line"/>
      <point x="409" y="106" type="line" smooth="yes"/>
      <point x="409" y="38"/>
      <point x="427" y="6"/>
      <point x="507" y="0" type="curve"/>
      <point x="510" y="26" type="line"/>
      <point x="441" y="28"/>
      <point x="435" y="54"/>
      <point x="435" y="111" type="curve" smooth="yes"/>
      <point x="435" y="462" type="line" smooth="yes"/>
      <point x="435" y="536"/>
      <point x="421" y="569"/>
      <point x="391" y="594" type="curve" smooth="yes"/>
      <point x="369" y="612"/>
      <point x="339" y="622"/>
      <point x="301" y="622" type="curve" smooth="yes"/>
      <point x="198" y="622"/>
      <point x="90" y="527"/>
      <point x="90" y="417" type="curve" smooth="yes"/>
      <point x="90" y="317"/>
      <point x="156" y="270"/>
      <point x="266" y="270" type="curve" smooth="yes"/>
      <point x="326" y="270"/>
      <point x="376" y="282"/>
      <point x="426" y="309" type="curve"/>
    </contour>
    <contour>
      <point x="266" y="296" type="curve" smooth="yes"/>
      <point x="174" y="296"/>
      <point x="117" y="328"/>
      <point x="117" y="416" type="curve" smooth="yes"/>
      <point x="117" y="520"/>
      <point x="218" y="596"/>
      <point x="301" y="596" type="curve" smooth="yes"/>
      <point x="336" y="596"/>
      <point x="361" y="587"/>
      <point x="378" y="571" type="curve" smooth="yes"/>
      <point x="401" y="549"/>
      <point x="409" y="515"/>
      <point x="409" y="456" type="curve" smooth="yes"/>
      <point x="409" y="323" type="line"/>
      <point x="424" y="336" type="line"/>
      <point x="373" y="309"/>
      <point x="331" y="296"/>
    </contour>
  </outline>
</glyph>
<glyph name="eightbeng" format="2">
  <advance width="592"/>
  <unicode hex="09EE"/>
  <outline>
    <contour>
      <point x="237" y="0" type="curve" smooth="yes"/>
      <point x="353" y="0"/>
      <point x="414" y="102"/>
      <point x="414" y="205" type="curve" smooth="yes"/>
      <point x="414" y="246"/>
      <point x="404" y="298"/>
      <point x="351" y="326" type="curve"/>
      <point x="348" y="322" type="line"/>
      <point x="374" y="310"/>
      <point x="401" y="308"/>
      <point x="425" y="308" type="curve" smooth="yes"/>
      <point x="501" y="308"/>
      <point x="545" y="338"/>
      <point x="572" y="388" type="curve"/>
      <point x="549" y="400" type="line"/>
      <point x="519" y="348"/>
      <point x="481" y="334"/>
      <point x="427" y="334" type="curve" smooth="yes"/>
      <point x="394" y="334"/>
      <point x="363" y="337"/>
      <point x="320" y="345" type="curve"/>
      <point x="307" y="348"/>
      <point x="285" y="352"/>
      <point x="262" y="352" type="curve" smooth="yes"/>
      <point x="216" y="352"/>
      <point x="176" y="341"/>
      <point x="130" y="320" type="curve"/>
      <point x="130" y="514" type="line" smooth="yes"/>
      <point x="130" y="561"/>
      <point x="124" y="582"/>
      <point x="106" y="599" type="curve" smooth="yes"/>
      <point x="90" y="615"/>
      <point x="65" y="622"/>
      <point x="32" y="624" type="curve"/>
      <point x="29" y="598" type="line"/>
      <point x="98" y="596"/>
      <point x="104" y="570"/>
      <point x="104" y="513" type="curve" smooth="yes"/>
      <point x="104" y="164" type="line" smooth="yes"/>
      <point x="104" y="97"/>
      <point x="116" y="60"/>
      <point x="145" y="32" type="curve" smooth="yes"/>
      <point x="166" y="12"/>
      <point x="197" y="0"/>
    </contour>
    <contour>
      <point x="239" y="26" type="curve" smooth="yes"/>
      <point x="204" y="26"/>
      <point x="179" y="35"/>
      <point x="162" y="52" type="curve" smooth="yes"/>
      <point x="139" y="75"/>
      <point x="130" y="108"/>
      <point x="130" y="173" type="curve" smooth="yes"/>
      <point x="130" y="292" type="line"/>
      <point x="169" y="312"/>
      <point x="210" y="326"/>
      <point x="262" y="326" type="curve" smooth="yes"/>
      <point x="333" y="326"/>
      <point x="387" y="294"/>
      <point x="387" y="203" type="curve" smooth="yes"/>
      <point x="387" y="132"/>
      <point x="349" y="26"/>
    </contour>
  </outline>
</glyph>
<glyph name="ninebeng" format="2">
  <advance width="592"/>
  <unicode hex="09EF"/>
  <outline>
    <contour>
      <point x="186" y="301" type="curve" smooth="yes"/>
      <point x="104" y="301"/>
      <point x="64" y="253"/>
      <point x="64" y="195" type="curve" smooth="yes"/>
      <point x="64" y="178"/>
      <point x="68" y="151"/>
      <point x="77" y="131" type="curve"/>
      <point x="103" y="137" type="line"/>
      <point x="95" y="154"/>
      <point x="91" y="178"/>
      <point x="91" y="196" type="curve" smooth="yes"/>
      <point x="91" y="238"/>
      <point x="115" y="275"/>
      <point x="187" y="275" type="curve" smooth="yes"/>
      <point x="264" y="275"/>
      <point x="299" y="227"/>
      <point x="299" y="167" type="curve" smooth="yes"/>
      <point x="299" y="101"/>
      <point x="251" y="55"/>
      <point x="183" y="20" type="curve"/>
      <point x="190" y="0" type="line"/>
      <point x="199" y="0" type="line" smooth="yes"/>
      <point x="385" y="0"/>
      <point x="545" y="61"/>
      <point x="545" y="204" type="curve" smooth="yes"/>
      <point x="545" y="321"/>
      <point x="479" y="365"/>
      <point x="293" y="423" type="curve" smooth="yes"/>
      <point x="119" y="477"/>
      <point x="99" y="500"/>
      <point x="99" y="542" type="curve" smooth="yes"/>
      <point x="99" y="568"/>
      <point x="115" y="592"/>
      <point x="139" y="616" type="curve"/>
      <point x="118" y="631" type="line"/>
      <point x="88" y="601"/>
      <point x="72" y="574"/>
      <point x="72" y="543" type="curve" smooth="yes"/>
      <point x="72" y="480"/>
      <point x="109" y="454"/>
      <point x="287" y="399" type="curve" smooth="yes"/>
      <point x="468" y="343"/>
      <point x="518" y="304"/>
      <point x="518" y="209" type="curve" smooth="yes"/>
      <point x="518" y="99"/>
      <point x="410" y="28"/>
      <point x="207" y="25" type="curve"/>
      <point x="211" y="11" type="line"/>
      <point x="275" y="44"/>
      <point x="326" y="89"/>
      <point x="326" y="168" type="curve" smooth="yes"/>
      <point x="326" y="247"/>
      <point x="272" y="301"/>
    </contour>
  </outline>
</glyph>
<glyph name="ra1beng" format="2">
  <advance width="555"/>
  <unicode hex="09F0"/>
  <outline>
    <contour>
      <point x="565" y="622" type="line"/>
      <point x="-10" y="622" type="line"/>
      <point x="-10" y="596" type="line"/>
      <point x="424" y="596" type="line"/>
      <point x="424" y="526" type="line"/>
      <point x="443" y="543" type="line"/>
      <point x="294" y="488"/>
      <point x="167" y="419"/>
      <point x="41" y="336" type="curve"/>
      <point x="55" y="302" type="line"/>
      <point x="224" y="265"/>
      <point x="355" y="159"/>
      <point x="424" y="0" type="curve"/>
      <point x="450" y="0" type="line"/>
      <point x="450" y="596" type="line"/>
      <point x="565" y="596" type="line"/>
    </contour>
    <contour>
      <point x="424" y="520" type="line"/>
      <point x="424" y="167" type="line" smooth="yes"/>
      <point x="424" y="112"/>
      <point x="426" y="55"/>
      <point x="430" y="23" type="curve"/>
      <point x="436" y="21" type="line"/>
      <point x="371" y="197"/>
      <point x="211" y="291"/>
      <point x="70" y="325" type="curve"/>
      <point x="184" y="399"/>
      <point x="317" y="470"/>
      <point x="446" y="517" type="curve"/>
    </contour>
    <contour>
      <point x="431" y="223" type="curve"/>
      <point x="444" y="245" type="line"/>
      <point x="381" y="333"/>
      <point x="293" y="389"/>
      <point x="198" y="423" type="curve"/>
      <point x="179" y="404" type="line"/>
      <point x="278" y="371"/>
      <point x="367" y="308"/>
    </contour>
  </outline>
</glyph>
<glyph name="wabeng" format="2">
  <advance width="555"/>
  <unicode hex="09F1"/>
  <outline>
    <contour>
      <point x="565" y="622" type="line"/>
      <point x="-10" y="622" type="line"/>
      <point x="-10" y="596" type="line"/>
      <point x="424" y="596" type="line"/>
      <point x="424" y="526" type="line"/>
      <point x="443" y="543" type="line"/>
      <point x="294" y="488"/>
      <point x="167" y="419"/>
      <point x="41" y="336" type="curve"/>
      <point x="55" y="302" type="line"/>
      <point x="224" y="265"/>
      <point x="355" y="159"/>
      <point x="424" y="0" type="curve"/>
      <point x="450" y="0" type="line"/>
      <point x="450" y="596" type="line"/>
      <point x="565" y="596" type="line"/>
    </contour>
    <contour>
      <point x="424" y="520" type="line"/>
      <point x="424" y="167" type="line" smooth="yes"/>
      <point x="424" y="112"/>
      <point x="426" y="55"/>
      <point x="430" y="23" type="curve"/>
      <point x="436" y="21" type="line"/>
      <point x="371" y="197"/>
      <point x="211" y="291"/>
      <point x="70" y="325" type="curve"/>
      <point x="184" y="399"/>
      <point x="317" y="470"/>
      <point x="446" y="517" type="curve"/>
    </contour>
    <contour>
      <point x="86" y="235" type="curve"/>
      <point x="76" y="212" type="line"/>
      <point x="177" y="175"/>
      <point x="260" y="109"/>
      <point x="320" y="21" type="curve"/>
      <point x="341" y="34" type="line"/>
      <point x="278" y="132"/>
      <point x="187" y="198"/>
    </contour>
  </outline>
</glyph>
<glyph name="rupeemarkbeng" format="2">
  <advance width="571"/>
  <unicode hex="09F2"/>
  <outline>
    <contour>
      <point x="470" y="102" type="curve"/>
      <point x="495" y="111" type="line"/>
      <point x="388" y="378"/>
      <point x="252" y="439"/>
      <point x="86" y="490" type="curve"/>
      <point x="77" y="464" type="line"/>
      <point x="281" y="409"/>
      <point x="379" y="320"/>
    </contour>
  </outline>
</glyph>
<glyph name="rupeesignbeng" format="2">
  <advance width="624"/>
  <unicode hex="09F3"/>
  <outline>
    <contour>
      <point x="582" y="494" type="line"/>
      <point x="84" y="494" type="line"/>
      <point x="84" y="468" type="line"/>
      <point x="192" y="468" type="line"/>
      <point x="192" y="132" type="line" smooth="yes"/>
      <point x="192" y="71"/>
      <point x="202" y="43"/>
      <point x="225" y="23" type="curve" smooth="yes"/>
      <point x="242" y="7"/>
      <point x="268" y="0"/>
      <point x="299" y="0" type="curve" smooth="yes"/>
      <point x="427" y="0"/>
      <point x="531" y="122"/>
      <point x="531" y="231" type="curve" smooth="yes"/>
      <point x="531" y="314"/>
      <point x="479" y="346"/>
      <point x="421" y="346" type="curve" smooth="yes"/>
      <point x="401" y="346"/>
      <point x="376" y="343"/>
      <point x="354" y="337" type="curve"/>
      <point x="359" y="312" type="line"/>
      <point x="378" y="317"/>
      <point x="398" y="320"/>
      <point x="418" y="320" type="curve" smooth="yes"/>
      <point x="473" y="320"/>
      <point x="504" y="292"/>
      <point x="504" y="229" type="curve" smooth="yes"/>
      <point x="504" y="135"/>
      <point x="414" y="26"/>
      <point x="298" y="26" type="curve" smooth="yes"/>
      <point x="233" y="26"/>
      <point x="220" y="57"/>
      <point x="220" y="129" type="curve" smooth="yes"/>
      <point x="220" y="468" type="line"/>
      <point x="582" y="468" type="line"/>
    </contour>
    <contour>
      <point x="105" y="742" type="curve" smooth="yes"/>
      <point x="71" y="742"/>
      <point x="42" y="734"/>
      <point x="11" y="721" type="curve"/>
      <point x="21" y="697" type="line"/>
      <point x="45" y="708"/>
      <point x="71" y="716"/>
      <point x="105" y="716" type="curve" smooth="yes"/>
      <point x="187" y="716"/>
      <point x="192" y="652"/>
      <point x="192" y="579" type="curve" smooth="yes"/>
      <point x="192" y="483" type="line"/>
      <point x="220" y="483" type="line"/>
      <point x="220" y="587" type="line" smooth="yes"/>
      <point x="220" y="665"/>
      <point x="207" y="700"/>
      <point x="170" y="725" type="curve" smooth="yes"/>
      <point x="153" y="736"/>
      <point x="131" y="742"/>
    </contour>
  </outline>
</glyph>
<glyph name="uni09F4" format="2">
  <advance width="571"/>
  <unicode hex="09F4"/>
  <outline>
    <contour>
      <point x="77" y="128" type="curve"/>
      <point x="86" y="102" type="line"/>
      <point x="252" y="153"/>
      <point x="388" y="214"/>
      <point x="495" y="481" type="curve"/>
      <point x="470" y="490" type="line"/>
      <point x="379" y="272"/>
      <point x="281" y="183"/>
    </contour>
  </outline>
</glyph>
<glyph name="uni09F5" format="2">
  <advance width="676"/>
  <unicode hex="09F5"/>
  <outline>
    <contour>
      <point x="190" y="414" type="curve" smooth="yes"/>
      <point x="110" y="414"/>
      <point x="70" y="366"/>
      <point x="70" y="308" type="curve" smooth="yes"/>
      <point x="70" y="291"/>
      <point x="74" y="264"/>
      <point x="83" y="244" type="curve"/>
      <point x="109" y="250" type="line"/>
      <point x="101" y="267"/>
      <point x="97" y="291"/>
      <point x="97" y="309" type="curve" smooth="yes"/>
      <point x="97" y="351"/>
      <point x="121" y="388"/>
      <point x="190" y="388" type="curve" smooth="yes"/>
      <point x="263" y="388"/>
      <point x="298" y="340"/>
      <point x="298" y="282" type="curve" smooth="yes"/>
      <point x="298" y="217"/>
      <point x="262" y="161"/>
      <point x="193" y="126" type="curve"/>
      <point x="203" y="102" type="line"/>
      <point x="369" y="153"/>
      <point x="505" y="214"/>
      <point x="612" y="481" type="curve"/>
      <point x="587" y="490" type="line"/>
      <point x="496" y="272"/>
      <point x="395" y="190"/>
      <point x="231" y="136" type="curve"/>
      <point x="236" y="130" type="line"/>
      <point x="290" y="164"/>
      <point x="325" y="211"/>
      <point x="325" y="283" type="curve" smooth="yes"/>
      <point x="325" y="360"/>
      <point x="271" y="414"/>
    </contour>
  </outline>
</glyph>
<glyph name="uni09F6" format="2">
  <advance width="690"/>
  <unicode hex="09F6"/>
  <outline>
    <contour>
      <point x="210" y="0" type="curve" smooth="yes"/>
      <point x="465" y="0"/>
      <point x="583" y="289"/>
      <point x="623" y="624" type="curve"/>
      <point x="596" y="627" type="line"/>
      <point x="552" y="269"/>
      <point x="434" y="26"/>
      <point x="211" y="26" type="curve" smooth="yes"/>
      <point x="123" y="26"/>
      <point x="86" y="56"/>
      <point x="86" y="105" type="curve" smooth="yes"/>
      <point x="86" y="138"/>
      <point x="101" y="164"/>
      <point x="185" y="178" type="curve" smooth="yes"/>
      <point x="246" y="188"/>
      <point x="287" y="198"/>
      <point x="314" y="227" type="curve" smooth="yes"/>
      <point x="330" y="245"/>
      <point x="339" y="269"/>
      <point x="339" y="302" type="curve" smooth="yes"/>
      <point x="339" y="371"/>
      <point x="288" y="426"/>
      <point x="203" y="426" type="curve" smooth="yes"/>
      <point x="122" y="426"/>
      <point x="82" y="378"/>
      <point x="82" y="320" type="curve" smooth="yes"/>
      <point x="82" y="303"/>
      <point x="86" y="276"/>
      <point x="95" y="256" type="curve"/>
      <point x="121" y="262" type="line"/>
      <point x="113" y="279"/>
      <point x="109" y="303"/>
      <point x="109" y="321" type="curve" smooth="yes"/>
      <point x="109" y="363"/>
      <point x="133" y="400"/>
      <point x="206" y="400" type="curve" smooth="yes"/>
      <point x="277" y="400"/>
      <point x="312" y="352"/>
      <point x="312" y="301" type="curve" smooth="yes"/>
      <point x="312" y="231"/>
      <point x="265" y="216"/>
      <point x="185" y="204" type="curve" smooth="yes"/>
      <point x="113" y="193"/>
      <point x="59" y="169"/>
      <point x="59" y="105" type="curve" smooth="yes"/>
      <point x="59" y="36"/>
      <point x="117" y="0"/>
    </contour>
  </outline>
</glyph>
<glyph name="uni09F7" format="2">
  <advance width="268"/>
  <unicode hex="09F7"/>
  <outline>
    <contour>
      <point x="121" y="0" type="line"/>
      <point x="147" y="0" type="line"/>
      <point x="147" y="622" type="line"/>
      <point x="121" y="622" type="line"/>
    </contour>
  </outline>
</glyph>
<glyph name="uni09F8" format="2">
  <advance width="636"/>
  <unicode hex="09F8"/>
  <outline>
    <contour>
      <point x="43" y="626" type="curve"/>
      <point x="40" y="600" type="line"/>
      <point x="109" y="598"/>
      <point x="115" y="572"/>
      <point x="115" y="515" type="curve" smooth="yes"/>
      <point x="115" y="197" type="line"/>
      <point x="140" y="181" type="line"/>
      <point x="254" y="299"/>
      <point x="370" y="399"/>
      <point x="507" y="464" type="curve"/>
      <point x="495" y="474" type="line"/>
      <point x="495" y="104" type="line" smooth="yes"/>
      <point x="495" y="57"/>
      <point x="501" y="36"/>
      <point x="519" y="19" type="curve" smooth="yes"/>
      <point x="535" y="3"/>
      <point x="560" y="-4"/>
      <point x="593" y="-6" type="curve"/>
      <point x="596" y="20" type="line"/>
      <point x="527" y="22"/>
      <point x="521" y="48"/>
      <point x="521" y="105" type="curve" smooth="yes"/>
      <point x="521" y="468" type="line"/>
      <point x="499" y="487" type="line"/>
      <point x="356" y="418"/>
      <point x="233" y="317"/>
      <point x="128" y="203" type="curve"/>
      <point x="141" y="195" type="line"/>
      <point x="141" y="516" type="line" smooth="yes"/>
      <point x="141" y="563"/>
      <point x="135" y="584"/>
      <point x="117" y="601" type="curve" smooth="yes"/>
      <point x="101" y="617"/>
      <point x="76" y="624"/>
    </contour>
  </outline>
</glyph>
<glyph name="uni09F9" format="2">
  <advance width="470"/>
  <unicode hex="09F9"/>
  <outline>
    <contour>
      <point x="65" y="330" type="curve" smooth="yes"/>
      <point x="65" y="232"/>
      <point x="130" y="163"/>
      <point x="235" y="163" type="curve" smooth="yes"/>
      <point x="340" y="163"/>
      <point x="405" y="232"/>
      <point x="405" y="330" type="curve" smooth="yes"/>
      <point x="405" y="428"/>
      <point x="340" y="495"/>
      <point x="235" y="495" type="curve" smooth="yes"/>
      <point x="130" y="495"/>
      <point x="65" y="427"/>
    </contour>
    <contour>
      <point x="92" y="329" type="curve" smooth="yes"/>
      <point x="92" y="416"/>
      <point x="146" y="469"/>
      <point x="235" y="469" type="curve" smooth="yes"/>
      <point x="324" y="469"/>
      <point x="378" y="416"/>
      <point x="378" y="329" type="curve" smooth="yes"/>
      <point x="378" y="242"/>
      <point x="320" y="189"/>
      <point x="235" y="189" type="curve" smooth="yes"/>
      <point x="146" y="189"/>
      <point x="92" y="242"/>
    </contour>
  </outline>
</glyph>
<glyph name="issharbeng" format="2">
  <advance width="607"/>
  <unicode hex="09FA"/>
  <outline>
    <contour>
      <point x="263" y="405" type="curve" smooth="yes"/>
      <point x="426" y="405"/>
      <point x="482" y="522"/>
      <point x="542" y="744" type="curve"/>
      <point x="516" y="750" type="line"/>
      <point x="450" y="507"/>
      <point x="397" y="431"/>
      <point x="263" y="431" type="curve" smooth="yes"/>
      <point x="159" y="431"/>
      <point x="111" y="507"/>
      <point x="105" y="625" type="curve"/>
      <point x="78" y="623" type="line"/>
      <point x="87" y="476"/>
      <point x="157" y="405"/>
    </contour>
    <contour>
      <point x="278" y="546" type="curve" smooth="yes"/>
      <point x="295" y="546"/>
      <point x="308" y="558"/>
      <point x="308" y="584" type="curve" smooth="yes"/>
      <point x="308" y="607"/>
      <point x="297" y="622"/>
      <point x="278" y="622" type="curve" smooth="yes"/>
      <point x="260" y="622"/>
      <point x="247" y="608"/>
      <point x="247" y="584" type="curve" smooth="yes"/>
      <point x="247" y="559"/>
      <point x="262" y="546"/>
    </contour>
  </outline>
</glyph>
<glyph name="uni09FB" format="2">
  <advance width="273"/>
  <unicode hex="09FB"/>
  <outline>
    <contour>
      <point x="66" y="245" type="curve" smooth="yes"/>
      <point x="66" y="165"/>
      <point x="126" y="84"/>
      <point x="326" y="-131" type="curve"/>
      <point x="345" y="-113" type="line"/>
      <point x="139" y="108"/>
      <point x="93" y="178"/>
      <point x="93" y="245" type="curve" smooth="yes"/>
      <point x="93" y="284"/>
      <point x="109" y="317"/>
      <point x="194" y="359" type="curve"/>
      <point x="182" y="381" type="line"/>
      <point x="89" y="335"/>
      <point x="66" y="295"/>
    </contour>
  </outline>
</glyph>
<glyph name="uni09FC" format="2">
  <advance width="499"/>
  <unicode hex="09FC"/>
  <outline>
    <contour>
      <point x="437" y="490" type="curve"/>
      <point x="410" y="493" type="line"/>
      <point x="397" y="382"/>
      <point x="342" y="324"/>
      <point x="250" y="324" type="curve" smooth="yes"/>
      <point x="151" y="324"/>
      <point x="102" y="386"/>
      <point x="89" y="493" type="curve"/>
      <point x="62" y="489" type="line"/>
      <point x="77" y="377"/>
      <point x="131" y="298"/>
      <point x="250" y="298" type="curve" smooth="yes"/>
      <point x="356" y="298"/>
      <point x="423" y="367"/>
    </contour>
    <contour>
      <point x="279" y="460" type="curve" smooth="yes"/>
      <point x="279" y="484"/>
      <point x="268" y="498"/>
      <point x="250" y="498" type="curve" smooth="yes"/>
      <point x="233" y="498"/>
      <point x="220" y="485"/>
      <point x="220" y="460" type="curve" smooth="yes"/>
      <point x="220" y="434"/>
      <point x="235" y="422"/>
      <point x="250" y="422" type="curve" smooth="yes"/>
      <point x="266" y="422"/>
      <point x="279" y="433"/>
    </contour>
    <component base="viramabeng" xOffset="329" yOffset="199"/>
  </outline>
</glyph>
<glyph name="uni09FD" format="2">
  <advance width="357"/>
  <unicode hex="09FD"/>
  <outline>
    <contour>
      <point x="179" y="269" type="curve" smooth="yes"/>
      <point x="246" y="269"/>
      <point x="295" y="319"/>
      <point x="295" y="389" type="curve" smooth="yes"/>
      <point x="295" y="458"/>
      <point x="245" y="508"/>
      <point x="179" y="508" type="curve" smooth="yes"/>
      <point x="109" y="508"/>
      <point x="62" y="455"/>
      <point x="62" y="389" type="curve" smooth="yes"/>
      <point x="62" y="317"/>
      <point x="114" y="269"/>
    </contour>
    <contour>
      <point x="179" y="295" type="curve" smooth="yes"/>
      <point x="126" y="295"/>
      <point x="88" y="331"/>
      <point x="88" y="389" type="curve" smooth="yes"/>
      <point x="88" y="443"/>
      <point x="122" y="482"/>
      <point x="179" y="482" type="curve" smooth="yes"/>
      <point x="232" y="482"/>
      <point x="269" y="444"/>
      <point x="269" y="389" type="curve" smooth="yes"/>
      <point x="269" y="331"/>
      <point x="232" y="295"/>
    </contour>
  </outline>
</glyph>
<glyph name="uni09FE" format="2">
  <unicode hex="09FE"/>
  <outline>
    <contour>
      <point x="-13" y="860" type="curve" smooth="yes"/>
      <point x="-68" y="860"/>
      <point x="-96" y="837"/>
      <point x="-96" y="796" type="curve" smooth="yes"/>
      <point x="-96" y="787"/>
      <point x="-94" y="777"/>
      <point x="-91" y="766" type="curve"/>
      <point x="-67" y="769" type="line"/>
      <point x="-70" y="775"/>
      <point x="-72" y="786"/>
      <point x="-72" y="795" type="curve" smooth="yes"/>
      <point x="-72" y="814"/>
      <point x="-68" y="837"/>
      <point x="-12" y="837" type="curve" smooth="yes"/>
      <point x="33" y="837"/>
      <point x="74" y="821"/>
      <point x="74" y="771" type="curve" smooth="yes"/>
      <point x="74" y="730"/>
      <point x="53" y="704"/>
      <point x="-28" y="704" type="curve" smooth="yes"/>
      <point x="-51" y="704"/>
      <point x="-82" y="709"/>
      <point x="-104" y="716" type="curve"/>
      <point x="-109" y="693" type="line"/>
      <point x="-24" y="677"/>
      <point x="42" y="642"/>
      <point x="124" y="574" type="curve"/>
      <point x="137" y="590" type="line"/>
      <point x="80" y="639"/>
      <point x="11" y="682"/>
      <point x="-39" y="695" type="curve"/>
      <point x="-30" y="683" type="line"/>
      <point x="65" y="683"/>
      <point x="98" y="717"/>
      <point x="98" y="771" type="curve" smooth="yes"/>
      <point x="98" y="821"/>
      <point x="61" y="860"/>
    </contour>
    <contour>
      <point x="2" y="917" type="line"/>
      <point x="-136" y="917" type="line"/>
      <point x="-136" y="893" type="line"/>
      <point x="-23" y="893" type="line"/>
      <point x="-23" y="852" type="line"/>
      <point x="2" y="853" type="line"/>
    </contour>
  </outline>
</glyph>
<glyph name="uni1CD0" format="2">
  <unicode hex="1CD0"/>
  <outline>
    <contour>
      <point x="-395" y="654" type="line"/>
      <point x="-371" y="645" type="line"/>
      <point x="-255" y="877" type="line"/>
      <point x="-137" y="645" type="line"/>
      <point x="-114" y="654" type="line"/>
      <point x="-246" y="909" type="line"/>
      <point x="-263" y="909" type="line"/>
    </contour>
  </outline>
</glyph>
<glyph name="uni1CD2" format="2">
  <unicode hex="1CD2"/>
  <outline>
    <contour>
      <point x="-396" y="768" type="line"/>
      <point x="-396" y="742" type="line"/>
      <point x="-113" y="742" type="line"/>
      <point x="-113" y="768" type="line"/>
    </contour>
  </outline>
</glyph>
<glyph name="uni1CD5" format="2">
  <unicode hex="1CD5"/>
  <outline>
    <contour>
      <point x="-245" y="-127" type="curve"/>
      <point x="-268" y="-127" type="line"/>
      <point x="-271" y="-210"/>
      <point x="-292" y="-245"/>
      <point x="-344" y="-245" type="curve" smooth="yes"/>
      <point x="-388" y="-245"/>
      <point x="-415" y="-219"/>
      <point x="-418" y="-126" type="curve"/>
      <point x="-444" y="-127" type="line"/>
      <point x="-440" y="-234"/>
      <point x="-404" y="-271"/>
      <point x="-344" y="-271" type="curve" smooth="yes"/>
      <point x="-285" y="-271"/>
      <point x="-255" y="-234"/>
    </contour>
    <contour>
      <point x="-242" y="-127" type="curve"/>
      <point x="-265" y="-127" type="line"/>
      <point x="-256" y="-234"/>
      <point x="-224" y="-271"/>
      <point x="-165" y="-271" type="curve" smooth="yes"/>
      <point x="-106" y="-271"/>
      <point x="-70" y="-236"/>
      <point x="-67" y="-127" type="curve"/>
      <point x="-93" y="-126" type="line"/>
      <point x="-95" y="-221"/>
      <point x="-122" y="-245"/>
      <point x="-166" y="-245" type="curve" smooth="yes"/>
      <point x="-218" y="-245"/>
      <point x="-240" y="-208"/>
    </contour>
  </outline>
</glyph>
<glyph name="uni1CD6" format="2">
  <unicode hex="1CD6"/>
  <outline>
    <contour>
      <point x="-404" y="-121" type="line"/>
      <point x="-404" y="-271" type="line"/>
      <point x="-103" y="-271" type="line"/>
      <point x="-103" y="-245" type="line"/>
      <point x="-378" y="-245" type="line"/>
      <point x="-378" y="-121" type="line"/>
    </contour>
  </outline>
</glyph>
<glyph name="uni1CD8" format="2">
  <unicode hex="1CD8"/>
  <outline>
    <contour>
      <point x="-78" y="-107" type="curve"/>
      <point x="-103" y="-99" type="line"/>
      <point x="-129" y="-199"/>
      <point x="-171" y="-245"/>
      <point x="-250" y="-245" type="curve" smooth="yes"/>
      <point x="-332" y="-245"/>
      <point x="-379" y="-191"/>
      <point x="-409" y="-99" type="curve"/>
      <point x="-434" y="-108" type="line"/>
      <point x="-398" y="-209"/>
      <point x="-343" y="-271"/>
      <point x="-251" y="-271" type="curve" smooth="yes"/>
      <point x="-158" y="-271"/>
      <point x="-104" y="-214"/>
    </contour>
  </outline>
</glyph>
<glyph name="uni1CE1" format="2">
  <advance width="436"/>
  <unicode hex="1CE1"/>
  <outline>
    <contour>
      <point x="480" y="825" type="curve"/>
      <point x="496" y="845" type="line"/>
      <point x="451" y="878"/>
      <point x="395" y="907"/>
      <point x="329" y="907" type="curve" smooth="yes"/>
      <point x="230" y="907"/>
      <point x="149" y="854"/>
      <point x="149" y="677" type="curve" smooth="yes"/>
      <point x="149" y="424"/>
      <point x="230" y="155"/>
      <point x="230" y="-123" type="curve" smooth="yes"/>
      <point x="230" y="-271"/>
      <point x="189" y="-365"/>
      <point x="51" y="-365" type="curve" smooth="yes"/>
      <point x="19" y="-365"/>
      <point x="-20" y="-361"/>
      <point x="-48" y="-356" type="curve"/>
      <point x="-50" y="-382" type="line"/>
      <point x="-41" y="-384"/>
      <point x="12" y="-391"/>
      <point x="53" y="-391" type="curve" smooth="yes"/>
      <point x="205" y="-391"/>
      <point x="257" y="-286"/>
      <point x="257" y="-123" type="curve" smooth="yes"/>
      <point x="257" y="156"/>
      <point x="176" y="428"/>
      <point x="176" y="676" type="curve" smooth="yes"/>
      <point x="176" y="823"/>
      <point x="232" y="881"/>
      <point x="329" y="881" type="curve" smooth="yes"/>
      <point x="391" y="881"/>
      <point x="435" y="856"/>
    </contour>
  </outline>
</glyph>
<glyph name="uni1CEA" format="2">
  <advance width="688"/>
  <unicode hex="1CEA"/>
  <outline>
    <contour>
      <point x="340" y="0" type="curve"/>
      <point x="520" y="0"/>
      <point x="586" y="89"/>
      <point x="586" y="190" type="curve" smooth="yes"/>
      <point x="586" y="258"/>
      <point x="550" y="307"/>
      <point x="512" y="348" type="curve" smooth="yes"/>
      <point x="461" y="404"/>
      <point x="435" y="436"/>
      <point x="435" y="496" type="curve" smooth="yes"/>
      <point x="435" y="567"/>
      <point x="480" y="606"/>
      <point x="540" y="606" type="curve" smooth="yes"/>
      <point x="596" y="606"/>
      <point x="615" y="569"/>
      <point x="615" y="536" type="curve" smooth="yes"/>
      <point x="615" y="491"/>
      <point x="586" y="462"/>
      <point x="504" y="451" type="curve"/>
      <point x="507" y="425" type="line"/>
      <point x="602" y="439"/>
      <point x="642" y="478"/>
      <point x="642" y="537" type="curve" smooth="yes"/>
      <point x="642" y="588"/>
      <point x="606" y="632"/>
      <point x="540" y="632" type="curve" smooth="yes"/>
      <point x="454" y="632"/>
      <point x="408" y="566"/>
      <point x="408" y="498" type="curve" smooth="yes"/>
      <point x="408" y="432"/>
      <point x="438" y="388"/>
      <point x="491" y="332" type="curve" smooth="yes"/>
      <point x="542" y="279"/>
      <point x="559" y="237"/>
      <point x="559" y="191" type="curve" smooth="yes"/>
      <point x="559" y="125"/>
      <point x="527" y="26"/>
      <point x="341" y="26" type="curve" smooth="yes"/>
      <point x="173" y="26"/>
      <point x="129" y="115"/>
      <point x="129" y="191" type="curve" smooth="yes"/>
      <point x="129" y="246"/>
      <point x="153" y="284"/>
      <point x="197" y="332" type="curve" smooth="yes"/>
      <point x="252" y="392"/>
      <point x="280" y="423"/>
      <point x="280" y="497" type="curve" smooth="yes"/>
      <point x="280" y="559"/>
      <point x="244" y="632"/>
      <point x="150" y="632" type="curve" smooth="yes"/>
      <point x="90" y="632"/>
      <point x="46" y="594"/>
      <point x="46" y="541" type="curve" smooth="yes"/>
      <point x="46" y="484"/>
      <point x="79" y="437"/>
      <point x="181" y="425" type="curve"/>
      <point x="184" y="451" type="line"/>
      <point x="107" y="461"/>
      <point x="73" y="487"/>
      <point x="73" y="539" type="curve" smooth="yes"/>
      <point x="73" y="577"/>
      <point x="99" y="606"/>
      <point x="150" y="606" type="curve" smooth="yes"/>
      <point x="208" y="606"/>
      <point x="253" y="565"/>
      <point x="253" y="496" type="curve" smooth="yes"/>
      <point x="253" y="438"/>
      <point x="230" y="404"/>
      <point x="180" y="352" type="curve" smooth="yes"/>
      <point x="145" y="315"/>
      <point x="102" y="264"/>
      <point x="102" y="190" type="curve" smooth="yes"/>
      <point x="102" y="91"/>
      <point x="171" y="0"/>
    </contour>
  </outline>
</glyph>
<glyph name="uni1CED" format="2">
  <unicode hex="1CED"/>
  <outline>
    <contour>
      <point x="-302" y="-115" type="line"/>
      <point x="-91" y="-271" type="line"/>
      <point x="-76" y="-251" type="line"/>
      <point x="-286" y="-95" type="line"/>
    </contour>
  </outline>
</glyph>
<glyph name="uni1CF6" format="2">
  <advance width="563"/>
  <unicode hex="1CF6"/>
  <outline>
    <contour>
      <point x="172" y="199" type="curve" smooth="yes"/>
      <point x="242" y="199"/>
      <point x="283" y="254"/>
      <point x="292" y="421" type="curve"/>
      <point x="269" y="421" type="line"/>
      <point x="266" y="278"/>
      <point x="234" y="225"/>
      <point x="172" y="225" type="curve" smooth="yes"/>
      <point x="116" y="225"/>
      <point x="79" y="265"/>
      <point x="76" y="422" type="curve"/>
      <point x="49" y="421" type="line"/>
      <point x="54" y="248"/>
      <point x="100" y="199"/>
    </contour>
    <contour>
      <point x="392" y="199" type="curve" smooth="yes"/>
      <point x="460" y="199"/>
      <point x="510" y="245"/>
      <point x="514" y="421" type="curve"/>
      <point x="487" y="422" type="line"/>
      <point x="484" y="264"/>
      <point x="446" y="225"/>
      <point x="392" y="225" type="curve" smooth="yes"/>
      <point x="328" y="225"/>
      <point x="298" y="280"/>
      <point x="295" y="421" type="curve"/>
      <point x="273" y="421" type="line"/>
      <point x="280" y="248"/>
      <point x="323" y="199"/>
    </contour>
  </outline>
</glyph>
<glyph name="uni1CF7" format="2">
  <advance width="436"/>
  <unicode hex="1CF7"/>
  <outline>
    <contour>
      <point x="480" y="825" type="curve"/>
      <point x="496" y="845" type="line"/>
      <point x="451" y="878"/>
      <point x="395" y="907"/>
      <point x="329" y="907" type="curve" smooth="yes"/>
      <point x="230" y="907"/>
      <point x="149" y="854"/>
      <point x="149" y="678" type="curve" smooth="yes"/>
      <point x="149" y="397"/>
      <point x="194" y="116"/>
      <point x="194" y="-254" type="curve"/>
      <point x="220" y="-254" type="line"/>
      <point x="220" y="116"/>
      <point x="176" y="397"/>
      <point x="176" y="677" type="curve" smooth="yes"/>
      <point x="176" y="823"/>
      <point x="232" y="881"/>
      <point x="329" y="881" type="curve" smooth="yes"/>
      <point x="391" y="881"/>
      <point x="435" y="856"/>
    </contour>
  </outline>
</glyph>
<glyph name="emdash.beng" format="2">
  <advance width="1000"/>
  <unicode hex="2014"/>
  <outline>
    <contour>
      <point x="40" y="310" type="line"/>
      <point x="40" y="284" type="line"/>
      <point x="960" y="284" type="line"/>
      <point x="960" y="310" type="line"/>
    </contour>
  </outline>
</glyph>
<glyph name="quotedblright.beng" format="2">
  <advance width="389"/>
  <unicode hex="201D"/>
  <outline>
    <contour>
      <point x="304" y="729" type="line"/>
      <point x="276" y="729" type="line"/>
      <point x="265" y="653"/>
      <point x="249" y="581"/>
      <point x="220" y="484" type="curve"/>
      <point x="242" y="484" type="line"/>
      <point x="270" y="553"/>
      <point x="292" y="643"/>
      <point x="307" y="717" type="curve"/>
    </contour>
    <contour>
      <point x="166" y="729" type="line"/>
      <point x="138" y="729" type="line"/>
      <point x="127" y="653"/>
      <point x="111" y="581"/>
      <point x="82" y="484" type="curve"/>
      <point x="104" y="484" type="line"/>
      <point x="132" y="553"/>
      <point x="154" y="643"/>
      <point x="169" y="717" type="curve"/>
    </contour>
  </outline>
</glyph>
<glyph name="ellipsis.beng" format="2">
  <advance width="665"/>
  <unicode hex="2026"/>
  <outline>
    <contour>
      <point x="331" y="-8" type="curve" smooth="yes"/>
      <point x="355" y="-8"/>
      <point x="358" y="6"/>
      <point x="358" y="23" type="curve" smooth="yes"/>
      <point x="358" y="39"/>
      <point x="355" y="54"/>
      <point x="331" y="54" type="curve" smooth="yes"/>
      <point x="311" y="54"/>
      <point x="306" y="39"/>
      <point x="306" y="23" type="curve" smooth="yes"/>
      <point x="306" y="6"/>
      <point x="311" y="-8"/>
    </contour>
    <contour>
      <point x="106" y="-8" type="curve" smooth="yes"/>
      <point x="130" y="-8"/>
      <point x="133" y="6"/>
      <point x="133" y="23" type="curve" smooth="yes"/>
      <point x="133" y="39"/>
      <point x="130" y="54"/>
      <point x="106" y="54" type="curve" smooth="yes"/>
      <point x="86" y="54"/>
      <point x="81" y="39"/>
      <point x="81" y="23" type="curve" smooth="yes"/>
      <point x="81" y="6"/>
      <point x="86" y="-8"/>
    </contour>
    <contour>
      <point x="557" y="-8" type="curve" smooth="yes"/>
      <point x="581" y="-8"/>
      <point x="584" y="6"/>
      <point x="584" y="23" type="curve" smooth="yes"/>
      <point x="584" y="39"/>
      <point x="581" y="54"/>
      <point x="557" y="54" type="curve" smooth="yes"/>
      <point x="537" y="54"/>
      <point x="532" y="39"/>
      <point x="532" y="23" type="curve" smooth="yes"/>
      <point x="532" y="6"/>
      <point x="537" y="-8"/>
    </contour>
  </outline>
</glyph>
<glyph name="uni20B9.beng" format="2">
  <advance width="592"/>
  <unicode hex="20B9"/>
  <outline>
    <contour>
      <point x="510" y="596" type="line"/>
      <point x="510" y="622" type="line"/>
      <point x="100" y="622" type="line"/>
      <point x="100" y="596" type="line"/>
      <point x="143" y="596" type="line" smooth="yes"/>
      <point x="223" y="596"/>
      <point x="261" y="584"/>
      <point x="290" y="555" type="curve" smooth="yes"/>
      <point x="311" y="533"/>
      <point x="321" y="502"/>
      <point x="321" y="461" type="curve" smooth="yes"/>
      <point x="321" y="414"/>
      <point x="310" y="381"/>
      <point x="283" y="358" type="curve" smooth="yes"/>
      <point x="254" y="334"/>
      <point x="211" y="323"/>
      <point x="140" y="323" type="curve" smooth="yes"/>
      <point x="109" y="323" type="line"/>
      <point x="105" y="296" type="line"/>
      <point x="349" y="0" type="line"/>
      <point x="381" y="0" type="line"/>
      <point x="123" y="314" type="line"/>
      <point x="132" y="297" type="line"/>
      <point x="291" y="297"/>
      <point x="347" y="354"/>
      <point x="347" y="462" type="curve" smooth="yes"/>
      <point x="347" y="530"/>
      <point x="314" y="580"/>
      <point x="262" y="596" type="curve"/>
    </contour>
    <contour>
      <point x="100" y="473" type="line"/>
      <point x="100" y="447" type="line"/>
      <point x="510" y="447" type="line"/>
      <point x="510" y="473" type="line"/>
    </contour>
  </outline>
</glyph>
<glyph name="uniA8F1" format="2">
  <unicode hex="A8F1"/>
  <outline>
    <contour>
      <point x="-98" y="631" type="curve" smooth="yes"/>
      <point x="-60" y="631"/>
      <point x="-30" y="652"/>
      <point x="-30" y="694" type="curve" smooth="yes"/>
      <point x="-30" y="729"/>
      <point x="-47" y="752"/>
      <point x="-93" y="787" type="curve" smooth="yes"/>
      <point x="-136" y="819"/>
      <point x="-145" y="827"/>
      <point x="-145" y="847" type="curve" smooth="yes"/>
      <point x="-145" y="865"/>
      <point x="-130" y="875"/>
      <point x="-100" y="875" type="curve" smooth="yes"/>
      <point x="-38" y="875" type="line"/>
      <point x="-38" y="897" type="line"/>
      <point x="-84" y="897" type="line" smooth="yes"/>
      <point x="-122" y="897"/>
      <point x="-139" y="892"/>
      <point x="-152" y="881" type="curve" smooth="yes"/>
      <point x="-161" y="873"/>
      <point x="-167" y="863"/>
      <point x="-167" y="846" type="curve" smooth="yes"/>
      <point x="-167" y="824"/>
      <point x="-158" y="807"/>
      <point x="-110" y="772" type="curve" smooth="yes"/>
      <point x="-73" y="745"/>
      <point x="-53" y="724"/>
      <point x="-53" y="695" type="curve" smooth="yes"/>
      <point x="-53" y="672"/>
      <point x="-67" y="653"/>
      <point x="-100" y="653" type="curve" smooth="yes"/>
      <point x="-141" y="653"/>
      <point x="-168" y="683"/>
      <point x="-193" y="724" type="curve"/>
      <point x="-214" y="712" type="line"/>
      <point x="-174" y="646"/>
      <point x="-135" y="631"/>
    </contour>
  </outline>
</glyph>
<glyph name="aulengthmarkshortbeng" format="2">
  <advance width="236"/>
  <outline>
    <contour>
      <point x="131" y="0" type="line"/>
      <point x="131" y="596" type="line"/>
      <point x="246" y="596" type="line"/>
      <point x="246" y="622" type="line"/>
      <point x="-10" y="622" type="line"/>
      <point x="-10" y="596" type="line"/>
      <point x="105" y="596" type="line"/>
      <point x="105" y="0" type="line"/>
    </contour>
    <contour>
      <point x="105" y="622" type="curve"/>
      <point x="131" y="622" type="line"/>
      <point x="128" y="679"/>
      <point x="112" y="713"/>
      <point x="80" y="733" type="curve" smooth="yes"/>
      <point x="59" y="746"/>
      <point x="34" y="752"/>
      <point x="-3" y="752" type="curve" smooth="yes"/>
      <point x="-16" y="752" type="line" smooth="yes"/>
      <point x="-84" y="752"/>
      <point x="-121" y="759"/>
      <point x="-144" y="785" type="curve" smooth="yes"/>
      <point x="-159" y="802"/>
      <point x="-167" y="828"/>
      <point x="-167" y="863" type="curve" smooth="yes"/>
      <point x="-167" y="877"/>
      <point x="-166" y="893"/>
      <point x="-163" y="910" type="curve"/>
      <point x="-190" y="912" type="line"/>
      <point x="-193" y="895"/>
      <point x="-194" y="878"/>
      <point x="-194" y="862" type="curve" smooth="yes"/>
      <point x="-194" y="825"/>
      <point x="-185" y="795"/>
      <point x="-169" y="774" type="curve" smooth="yes"/>
      <point x="-138" y="734"/>
      <point x="-83" y="726"/>
      <point x="-14" y="726" type="curve" smooth="yes"/>
      <point x="-2" y="726" type="line" smooth="yes"/>
      <point x="79" y="726"/>
      <point x="101" y="690"/>
    </contour>
  </outline>
</glyph>
<glyph name="bababeng" format="2">
  <advance width="935"/>
  <outline>
    <contour>
      <point x="565" y="622" type="line"/>
      <point x="-10" y="622" type="line"/>
      <point x="-10" y="596" type="line"/>
      <point x="424" y="596" type="line"/>
      <point x="424" y="526" type="line"/>
      <point x="443" y="543" type="line"/>
      <point x="294" y="488"/>
      <point x="167" y="419"/>
      <point x="41" y="336" type="curve"/>
      <point x="55" y="302" type="line"/>
      <point x="224" y="265"/>
      <point x="355" y="159"/>
      <point x="424" y="0" type="curve"/>
      <point x="450" y="0" type="line"/>
      <point x="450" y="596" type="line"/>
      <point x="565" y="596" type="line"/>
    </contour>
    <contour>
      <point x="424" y="520" type="line"/>
      <point x="424" y="167" type="line" smooth="yes"/>
      <point x="424" y="112"/>
      <point x="426" y="55"/>
      <point x="430" y="23" type="curve"/>
      <point x="436" y="21" type="line"/>
      <point x="371" y="197"/>
      <point x="211" y="291"/>
      <point x="70" y="325" type="curve"/>
      <point x="184" y="399"/>
      <point x="317" y="470"/>
      <point x="446" y="517" type="curve"/>
    </contour>
    <contour>
      <point x="945" y="622" type="line"/>
      <point x="542" y="622" type="line"/>
      <point x="542" y="596" type="line"/>
      <point x="804" y="596" type="line"/>
      <point x="804" y="526" type="line"/>
      <point x="823" y="543" type="line"/>
      <point x="674" y="488"/>
      <point x="547" y="419"/>
      <point x="430" y="341" type="curve"/>
      <point x="435" y="303" type="line"/>
      <point x="604" y="265"/>
      <point x="735" y="159"/>
      <point x="804" y="0" type="curve"/>
      <point x="830" y="0" type="line"/>
      <point x="830" y="596" type="line"/>
      <point x="945" y="596" type="line"/>
    </contour>
    <contour>
      <point x="804" y="520" type="line"/>
      <point x="804" y="167" type="line" smooth="yes"/>
      <point x="804" y="112"/>
      <point x="806" y="55"/>
      <point x="810" y="23" type="curve"/>
      <point x="816" y="21" type="line"/>
      <point x="751" y="197"/>
      <point x="591" y="291"/>
      <point x="450" y="325" type="curve"/>
      <point x="564" y="399"/>
      <point x="697" y="470"/>
      <point x="826" y="517" type="curve"/>
    </contour>
  </outline>
</glyph>
<glyph name="babhabeng" format="2">
  <advance width="626"/>
  <outline>
    <contour>
      <point x="451" y="610" type="line"/>
      <point x="425" y="609" type="line"/>
      <point x="425" y="551" type="line"/>
      <point x="291" y="505"/>
      <point x="202" y="464"/>
      <point x="89" y="396" type="curve"/>
      <point x="104" y="362" type="line"/>
      <point x="226" y="324"/>
      <point x="326" y="281"/>
      <point x="425" y="147" type="curve"/>
      <point x="451" y="147" type="line"/>
    </contour>
    <contour>
      <point x="425" y="525" type="curve"/>
      <point x="425" y="279" type="line"/>
      <point x="424" y="237"/>
      <point x="425" y="205"/>
      <point x="427" y="180" type="curve"/>
      <point x="348" y="289"/>
      <point x="242" y="352"/>
      <point x="108" y="386" type="curve"/>
      <point x="109" y="380" type="line"/>
      <point x="207" y="437"/>
      <point x="309" y="486"/>
    </contour>
    <contour>
      <point x="636" y="622" type="line"/>
      <point x="-10" y="622" type="line"/>
      <point x="-10" y="596" type="line"/>
      <point x="636" y="596" type="line"/>
    </contour>
    <contour>
      <point x="343" y="72" type="curve" smooth="yes"/>
      <point x="426" y="72"/>
      <point x="476" y="119"/>
      <point x="510" y="206" type="curve"/>
      <point x="513" y="228" type="line"/>
      <point x="488" y="223" type="line"/>
      <point x="454" y="129"/>
      <point x="409" y="98"/>
      <point x="343" y="98" type="curve" smooth="yes"/>
      <point x="296" y="98"/>
      <point x="269" y="120"/>
      <point x="269" y="164" type="curve" smooth="yes"/>
      <point x="269" y="183"/>
      <point x="273" y="202"/>
      <point x="285" y="227" type="curve"/>
      <point x="260" y="235" type="line"/>
      <point x="248" y="212"/>
      <point x="242" y="187"/>
      <point x="242" y="164" type="curve" smooth="yes"/>
      <point x="242" y="111"/>
      <point x="278" y="72"/>
    </contour>
    <contour>
      <point x="367" y="-117" type="curve" smooth="yes"/>
      <point x="506" y="-117"/>
      <point x="572" y="-36"/>
      <point x="572" y="68" type="curve" smooth="yes"/>
      <point x="572" y="117"/>
      <point x="554" y="180"/>
      <point x="513" y="228" type="curve"/>
      <point x="494" y="211" type="line"/>
      <point x="524" y="175"/>
      <point x="545" y="123"/>
      <point x="545" y="67" type="curve" smooth="yes"/>
      <point x="545" y="-18"/>
      <point x="497" y="-91"/>
      <point x="367" y="-91" type="curve" smooth="yes"/>
      <point x="212" y="-91"/>
      <point x="132" y="18"/>
      <point x="59" y="238" type="curve"/>
      <point x="34" y="230" type="line"/>
      <point x="110" y="-8"/>
      <point x="206" y="-117"/>
    </contour>
  </outline>
</glyph>
<glyph name="badabeng" format="2">
  <advance width="835"/>
  <outline>
    <contour>
      <point x="845" y="622" type="line"/>
      <point x="-10" y="622" type="line"/>
      <point x="-10" y="596" type="line"/>
      <point x="368" y="596" type="line"/>
      <point x="368" y="189" type="line"/>
      <point x="389" y="189" type="line"/>
      <point x="503" y="307"/>
      <point x="619" y="407"/>
      <point x="756" y="472" type="curve"/>
      <point x="747" y="475" type="line"/>
      <point x="708" y="398"/>
      <point x="694" y="310"/>
      <point x="694" y="235" type="curve" smooth="yes"/>
      <point x="694" y="145"/>
      <point x="710" y="76"/>
      <point x="733" y="-3" type="curve"/>
      <point x="759" y="3" type="line"/>
      <point x="735" y="84"/>
      <point x="720" y="149"/>
      <point x="720" y="234" type="curve" smooth="yes"/>
      <point x="720" y="306"/>
      <point x="735" y="388"/>
      <point x="773" y="473" type="curve"/>
      <point x="748" y="495" type="line"/>
      <point x="605" y="426"/>
      <point x="482" y="325"/>
      <point x="377" y="211" type="curve"/>
      <point x="390" y="203" type="line"/>
      <point x="390" y="596" type="line"/>
      <point x="845" y="596" type="line"/>
    </contour>
    <contour>
      <point x="380" y="615" type="line"/>
      <point x="364" y="615" type="line"/>
      <point x="364" y="573" type="line"/>
      <point x="236" y="528"/>
      <point x="153" y="490"/>
      <point x="40" y="422" type="curve"/>
      <point x="55" y="388" type="line"/>
      <point x="172" y="350"/>
      <point x="263" y="316"/>
      <point x="364" y="189" type="curve"/>
      <point x="380" y="189" type="line"/>
    </contour>
    <contour>
      <point x="364" y="556" type="line"/>
      <point x="364" y="320" type="line" smooth="yes"/>
      <point x="364" y="278"/>
      <point x="364" y="247"/>
      <point x="366" y="222" type="curve"/>
      <point x="289" y="320"/>
      <point x="193" y="377"/>
      <point x="59" y="412" type="curve"/>
      <point x="60" y="406" type="line"/>
      <point x="158" y="463"/>
      <point x="257" y="510"/>
      <point x="374" y="550" type="curve"/>
    </contour>
  </outline>
</glyph>
<glyph name="badarabeng" format="2">
  <advance width="835"/>
  <outline>
    <contour>
      <point x="845" y="622" type="line"/>
      <point x="-10" y="622" type="line"/>
      <point x="-10" y="596" type="line"/>
      <point x="368" y="596" type="line"/>
      <point x="368" y="189" type="line"/>
      <point x="389" y="189" type="line"/>
      <point x="503" y="307"/>
      <point x="619" y="407"/>
      <point x="756" y="472" type="curve"/>
      <point x="747" y="475" type="line"/>
      <point x="708" y="398"/>
      <point x="694" y="309"/>
      <point x="694" y="226" type="curve" smooth="yes"/>
      <point x="694" y="124"/>
      <point x="707" y="51"/>
      <point x="727" y="-7" type="curve"/>
      <point x="737" y="-59" type="line"/>
      <point x="762" y="-53" type="line"/>
      <point x="731" y="55"/>
      <point x="720" y="135"/>
      <point x="720" y="222" type="curve" smooth="yes"/>
      <point x="720" y="308"/>
      <point x="735" y="390"/>
      <point x="773" y="473" type="curve"/>
      <point x="748" y="495" type="line"/>
      <point x="605" y="426"/>
      <point x="482" y="325"/>
      <point x="377" y="211" type="curve"/>
      <point x="390" y="203" type="line"/>
      <point x="390" y="596" type="line"/>
      <point x="845" y="596" type="line"/>
    </contour>
    <contour>
      <point x="380" y="615" type="line"/>
      <point x="364" y="615" type="line"/>
      <point x="364" y="573" type="line"/>
      <point x="236" y="528"/>
      <point x="153" y="490"/>
      <point x="40" y="422" type="curve"/>
      <point x="55" y="388" type="line"/>
      <point x="172" y="350"/>
      <point x="263" y="316"/>
      <point x="364" y="189" type="curve"/>
      <point x="380" y="189" type="line"/>
    </contour>
    <contour>
      <point x="364" y="556" type="line"/>
      <point x="364" y="320" type="line" smooth="yes"/>
      <point x="364" y="278"/>
      <point x="364" y="247"/>
      <point x="366" y="222" type="curve"/>
      <point x="289" y="320"/>
      <point x="193" y="377"/>
      <point x="59" y="412" type="curve"/>
      <point x="60" y="406" type="line"/>
      <point x="158" y="463"/>
      <point x="257" y="510"/>
      <point x="374" y="550" type="curve"/>
    </contour>
    <contour>
      <point x="738" y="-21" type="line"/>
      <point x="731" y="-7" type="line"/>
      <point x="690" y="57"/>
      <point x="647" y="75"/>
      <point x="579" y="75" type="curve" smooth="yes"/>
      <point x="493" y="75"/>
      <point x="416" y="50"/>
      <point x="305" y="50" type="curve" smooth="yes"/>
      <point x="202" y="50"/>
      <point x="155" y="85"/>
      <point x="155" y="159" type="curve" smooth="yes"/>
      <point x="155" y="184"/>
      <point x="159" y="205"/>
      <point x="164" y="224" type="curve"/>
      <point x="138" y="228" type="line"/>
      <point x="132" y="209"/>
      <point x="128" y="188"/>
      <point x="128" y="160" type="curve" smooth="yes"/>
      <point x="128" y="74"/>
      <point x="183" y="24"/>
      <point x="309" y="24" type="curve" smooth="yes"/>
      <point x="417" y="24"/>
      <point x="491" y="49"/>
      <point x="580" y="49" type="curve" smooth="yes"/>
      <point x="658" y="49"/>
      <point x="698" y="22"/>
      <point x="737" y="-59" type="curve"/>
    </contour>
  </outline>
</glyph>
<glyph name="badhabeng" format="2">
  <advance width="659"/>
  <outline>
    <contour>
      <point x="409" y="606" type="line"/>
      <point x="383" y="605" type="line"/>
      <point x="383" y="537" type="line"/>
      <point x="385" y="546" type="line"/>
      <point x="253" y="500"/>
      <point x="156" y="452"/>
      <point x="41" y="382" type="curve"/>
      <point x="56" y="348" type="line"/>
      <point x="162" y="318"/>
      <point x="228" y="278"/>
      <point x="291" y="220" type="curve"/>
      <point x="390" y="262" type="line"/>
      <point x="409" y="270" type="line"/>
    </contour>
    <contour>
      <point x="383" y="528" type="line"/>
      <point x="383" y="266" type="line"/>
      <point x="310" y="235" type="line"/>
      <point x="246" y="294"/>
      <point x="188" y="339"/>
      <point x="60" y="372" type="curve"/>
      <point x="61" y="366" type="line"/>
      <point x="161" y="425"/>
      <point x="273" y="483"/>
      <point x="391" y="522" type="curve"/>
    </contour>
    <contour>
      <point x="669" y="622" type="line"/>
      <point x="-10" y="622" type="line"/>
      <point x="-10" y="596" type="line"/>
      <point x="669" y="596" type="line"/>
    </contour>
    <contour>
      <point x="409" y="281" type="line"/>
      <point x="394" y="284" type="line"/>
      <point x="282" y="239"/>
      <point x="191" y="195"/>
      <point x="113" y="146" type="curve"/>
      <point x="127" y="113" type="line"/>
      <point x="229" y="92"/>
      <point x="307" y="43"/>
      <point x="383" y="-43" type="curve"/>
      <point x="409" y="-43" type="line"/>
    </contour>
    <contour>
      <point x="383" y="253" type="curve"/>
      <point x="383" y="73" type="line"/>
      <point x="383" y="58"/>
      <point x="383" y="12"/>
      <point x="385" y="-10" type="curve"/>
      <point x="309" y="72"/>
      <point x="232" y="117"/>
      <point x="133" y="138" type="curve"/>
      <point x="136" y="132" type="line"/>
      <point x="210" y="175"/>
      <point x="314" y="226"/>
    </contour>
    <contour>
      <point x="579" y="155" type="curve" smooth="yes"/>
      <point x="579" y="222"/>
      <point x="589" y="271"/>
      <point x="613" y="332" type="curve"/>
      <point x="591" y="353" type="line"/>
      <point x="525" y="333"/>
      <point x="468" y="314"/>
      <point x="401" y="286" type="curve"/>
      <point x="400" y="259" type="line"/>
      <point x="477" y="290"/>
      <point x="528" y="308"/>
      <point x="595" y="329" type="curve"/>
      <point x="588" y="337" type="line"/>
      <point x="562" y="277"/>
      <point x="553" y="224"/>
      <point x="553" y="154" type="curve" smooth="yes"/>
      <point x="553" y="107"/>
      <point x="562" y="51"/>
      <point x="581" y="-14" type="curve"/>
      <point x="606" y="-7" type="line"/>
      <point x="586" y="62"/>
      <point x="579" y="113"/>
    </contour>
  </outline>
</glyph>
<glyph name="bahalfbeng" format="2">
  <advance width="472"/>
  <outline>
    <contour>
      <point x="482" y="622" type="line"/>
      <point x="-10" y="622" type="line"/>
      <point x="-10" y="596" type="line"/>
      <point x="482" y="596" type="line"/>
    </contour>
    <contour>
      <point x="402" y="610" type="line"/>
      <point x="376" y="609" type="line"/>
      <point x="376" y="537" type="line"/>
      <point x="380" y="546" type="line"/>
      <point x="246" y="501"/>
      <point x="153" y="458"/>
      <point x="40" y="390" type="curve"/>
      <point x="55" y="356" type="line"/>
      <point x="177" y="318"/>
      <point x="277" y="275"/>
      <point x="376" y="141" type="curve"/>
      <point x="402" y="141" type="line"/>
    </contour>
    <contour>
      <point x="376" y="528" type="line"/>
      <point x="376" y="273" type="line" smooth="yes"/>
      <point x="376" y="231"/>
      <point x="376" y="199"/>
      <point x="378" y="174" type="curve"/>
      <point x="299" y="283"/>
      <point x="193" y="346"/>
      <point x="59" y="380" type="curve"/>
      <point x="60" y="374" type="line"/>
      <point x="158" y="431"/>
      <point x="269" y="484"/>
      <point x="386" y="522" type="curve"/>
    </contour>
  </outline>
</glyph>
